SplineFontDB: 3.2
FontName: CursiveSerif-Book
FullName: Cursive Serif Book
FamilyName: Cursive Serif
Weight: Book
Copyright: Copyright (c) 2020-2024 by Wojciech Kalinowski "wmk69" with Reserved Font Name "CursiveSerif-Book".\nThis Font Software is licensed under the SIL Open Font License, Version 1.1.
Version: 3.1.0; 2022-02-18
ItalicAngle: -15
UnderlinePosition: -80
UnderlineWidth: 200
Ascent: 1638
Descent: 410
InvalidEm: 0
LayerCount: 2
Layer: 0 1 "Warstwa t+AUIA-a" 1
Layer: 1 1 "Plan pierwszy" 0
XUID: [1021 783 23647091 4037008]
StyleMap: 0x0001
FSType: 0
OS2Version: 3
OS2_WeightWidthSlopeOnly: 0
OS2_UseTypoMetrics: 1
CreationTime: 1260698820
ModificationTime: 1645208960
PfmFamily: 33
TTFWeight: 400
TTFWidth: 5
LineGap: 300
VLineGap: 0
Panose: 2 11 5 3 6 3 8 13 5 4
OS2TypoAscent: 1950
OS2TypoAOffset: 0
OS2TypoDescent: -537
OS2TypoDOffset: 0
OS2TypoLinegap: 300
OS2WinAscent: 1950
OS2WinAOffset: 0
OS2WinDescent: 537
OS2WinDOffset: 0
HheadAscent: 1950
HheadAOffset: 0
HheadDescent: -537
HheadDOffset: 0
OS2SubXSize: 1434
OS2SubYSize: 1331
OS2SubXOff: 0
OS2SubYOff: 287
OS2SupXSize: 1434
OS2SupYSize: 1331
OS2SupXOff: 0
OS2SupYOff: 977
OS2StrikeYSize: 102
OS2StrikeYPos: 512
OS2CapHeight: 1530
OS2XHeight: 1120
OS2Vendor: '    '
OS2CodePages: 20000093.00000000
OS2UnicodeRanges: 8000002f.4000204b.00000000.00000000
Lookup: 258 0 0 "'kern' Horizontal Kerning lookup 0" { "'kern' Horizontal Kerning lookup 0-1 subtable" [307,0,4] } ['kern' ('DFLT' <'dflt' > 'grek' <'dflt' > 'latn' <'dflt' > ) ]
MarkAttachClasses: 1
DEI: 91125
KernClass2: 70 56 "'kern' Horizontal Kerning lookup 0-1 subtable"
 84 A Agrave Aacute Acircumflex Atilde Adieresis Aring Amacron Abreve Aogonek Aringacute
 17 B uni1E02 uni1E9E
 47 C Ccedilla Cacute Ccircumflex Cdotaccent Ccaron
 27 D Eth Dcaron Dcroat uni1E0A
 92 E AE Egrave Eacute Ecircumflex Edieresis Emacron Ebreve Edotaccent Eogonek Ecaron OE AEacute
 9 F uni1E1E
 44 G Gcircumflex Gbreve Gdotaccent Gcommaaccent
 18 H Hcircumflex Hbar

StartChar: .notdef
Encoding: 65536 -1 0
Width: 994
Flags: W
HStem: 0 68<278 752> 1442 68<646 1120>
VStem: 150 694<0 694> 555 694<816 1510>
DStem2: 150 0 259.779 0 0.258819 0.965926<98.8118 1521.24> 733.779 0 844 0 0.258819 0.965926<70.3988 1492.83>
LayerCount: 2
Fore
SplineSet
150 0 m 1,0,-1
 555 1510 l 1,1,-1
 1249 1510 l 1,2,-1
 844 0 l 1,3,-1
 150 0 l 1,0,-1
278 68 m 1,4,-1
 752 68 l 1,5,-1
 1120 1442 l 1,6,-1
 646 1442 l 1,7,-1
 278 68 l 1,4,-1
EndSplineSet
Validated: 1
EndChar

StartChar: exclam
Encoding: 33 33 4
Width: 659
GlyphClass: 2
Flags: W
HStem: -20 264<269.191 450.324> 1510 20G<693.25 751.75>
VStem: 230 259<19.7072 204.293> 575 262<1263.78 1486.06>
LayerCount: 2
Fore
SplineSet
360 -20 m 128,-1,1
 306 -20 306 -20 268 18.5 c 128,-1,2
 230 57 230 57 230 112 c 128,-1,3
 230 167 230 167 268 205.5 c 128,-1,4
 306 244 306 244 360 244 c 128,-1,5
 414 244 414 244 451.5 205.5 c 128,-1,6
 489 167 489 167 489 112 c 128,-1,7
 489 57 489 57 451.5 18.5 c 128,-1,0
 414 -20 414 -20 360 -20 c 128,-1,1
722.5 1530 m 128,-1,9
 781 1530 781 1530 814 1487 c 0,10,11
 837 1457 837 1457 837 1412 c 0,12,13
 837 1381 837 1381 825 1347 c 2,14,-1
 474 350 l 2,15,16
 463 320 463 320 436 320 c 2,17,-1
 394 320 l 2,18,19
 371 320 371 320 371 341 c 0,20,21
 371 345 371 345 372 350 c 2,22,-1
 570 1376 l 2,23,24
 572 1385 572 1385 575 1398 c 0,25,26
 589 1457 589 1457 624 1492 c 0,27,8
 664 1530 664 1530 722.5 1530 c 128,-1,9
EndSplineSet
Validated: 1
EndChar

StartChar: quotedbl
Encoding: 34 34 5
Width: 629
GlyphClass: 2
Flags: W
HStem: 1141 409<503 545.591 795 837.591>
VStem: 503 164<1296.69 1548.15> 795 164<1296.69 1548.15>
LayerCount: 2
Fore
SplineSet
757 1550 m 1,0,1
 938 1550 l 1,2,3
 959 1503 959 1503 959 1451 c 0,4,5
 959 1416 959 1416 949 1379 c 0,6,7
 919 1267 919 1267 799 1141 c 1,8,-1
 678 1141 l 1,9,10
 759 1250 759 1250 784 1343 c 0,11,12
 795 1384 795 1384 795 1421 c 0,13,14
 795 1491 795 1491 757 1550 c 1,0,1
465 1550 m 1,15,-1
 646 1550 l 1,16,17
 667 1503 667 1503 667 1451 c 0,18,19
 667 1416 667 1416 657 1379 c 0,20,21
 627 1267 627 1267 507 1141 c 1,22,-1
 386 1141 l 1,23,24
 467 1250 467 1250 492 1343 c 0,25,26
 503 1384 503 1384 503 1421 c 0,27,28
 503 1491 503 1491 465 1550 c 1,15,-1
EndSplineSet
Validated: 1
EndChar

StartChar: numbersign
Encoding: 35 35 6
Width: 1354
GlyphClass: 2
Flags: W
HStem: 517 131<362.125 579 746 921 1088 1304.18> 859 131<453.82 670 837 1012 1179 1395.88>
DStem2: 514.282 276 646.282 276 0.258819 0.965926<23.4604 249.538 419.297 603.438 773.197 998.309> 856.282 276 988.282 276 0.258819 0.965926<23.4604 249.538 419.297 603.438 773.197 998.309>
LayerCount: 2
Fore
SplineSet
810 1230 m 2,0,1
 862 1230 l 2,2,3
 894 1230 894 1230 894 1208 c 0,4,5
 894 1201 894 1201 891 1190 c 2,6,-1
 837 990 l 1,7,-1
 1047 990 l 1,8,-1
 1101 1190 l 2,9,10
 1112 1230 1112 1230 1152 1230 c 2,11,-1
 1204 1230 l 2,12,13
 1236 1230 1236 1230 1236 1208 c 0,14,15
 1236 1201 1236 1201 1233 1190 c 2,16,-1
 1179 990 l 1,17,-1
 1379 990 l 2,18,19
 1411 990 1411 990 1411 965 c 0,20,21
 1411 957 1411 957 1409 950 c 2,22,-1
 1395 899 l 2,23,24
 1384 859 1384 859 1344 859 c 2,25,-1
 1144 859 l 1,26,-1
 1088 648 l 1,27,-1
 1288 648 l 2,28,29
 1320 648 1320 648 1320 623 c 0,30,31
 1320 615 1320 615 1318 608 c 2,32,-1
 1303 557 l 2,33,34
 1291 517 1291 517 1253 517 c 2,35,-1
 1053 517 l 1,36,-1
 999 316 l 2,37,38
 988 276 988 276 948 276 c 2,39,-1
 896 276 l 2,40,41
 864 276 864 276 864 298 c 0,42,43
 864 305 864 305 867 316 c 2,44,-1
 921 517 l 1,45,-1
 711 517 l 1,46,-1
 657 316 l 2,47,48
 646 276 646 276 606 276 c 2,49,-1
 554 276 l 2,50,51
 522 276 522 276 522 298 c 0,52,53
 522 305 522 305 525 316 c 2,54,-1
 579 517 l 1,55,-1
 379 517 l 2,56,57
 347 517 347 517 347 542 c 0,58,59
 347 550 347 550 349 557 c 2,60,-1
 363 608 l 2,61,62
 374 648 374 648 414 648 c 2,63,-1
 614 648 l 1,64,-1
 670 859 l 1,65,-1
 470 859 l 2,66,67
 438 859 438 859 438 884 c 0,68,69
 438 892 438 892 440 899 c 2,70,-1
 455 950 l 2,71,72
 467 990 467 990 505 990 c 2,73,-1
 705 990 l 1,74,-1
 759 1190 l 2,75,76
 770 1230 770 1230 810 1230 c 2,0,1
746 648 m 1,77,-1
 956 648 l 1,78,-1
 1012 859 l 1,79,-1
 802 859 l 1,80,-1
 746 648 l 1,77,-1
EndSplineSet
Validated: 1
EndChar

StartChar: dollar
Encoding: 36 36 7
Width: 1261
GlyphClass: 2
Flags: W
HStem: -20 75<426.75 565> 228 264<292.844 439.809> 1096 264<1115.19 1262.16> 1455 74<1080 1189.77>
VStem: 202 277<267.707 442.346> 531 196<1049.8 1265.59> 1068 210<380.199 636.297> 1076 280<1145.65 1320.29>
DStem2: 530.282 -150 630.282 -150 0.258819 0.965926<23.4604 134.556 248.494 955.586 1185.37 1647.94 1764.07 1874.84>
LayerCount: 2
Fore
SplineSet
565 -20 m 1,0,1
 393 -20 393 -20 285 101 c 0,2,3
 202 194 202 194 202 308 c 0,4,5
 202 346 202 346 213 381 c 0,6,7
 227 423 227 423 254 451 c 0,8,9
 294 492 294 492 350 492 c 0,10,11
 404 492 404 492 441.5 453.5 c 128,-1,12
 479 415 479 415 479 360 c 128,-1,13
 479 305 479 305 441 266.5 c 128,-1,14
 403 228 403 228 349 228 c 0,15,16
 319 228 319 228 292 243 c 1,17,18
 376 55 376 55 585 55 c 9,19,-1
 782 792 l 1,20,-1
 742 812 l 2,21,22
 531 918 531 918 531 1091 c 0,23,24
 531 1137 531 1137 545 1189 c 0,25,26
 583 1331 583 1331 730 1438 c 0,27,28
 835 1514 835 1514 979 1527 c 1,29,-1
 1004 1620 l 2,30,31
 1015 1660 1015 1660 1055 1660 c 2,32,-1
 1075 1660 l 2,33,34
 1106 1660 1106 1660 1106 1637 c 0,35,36
 1106 1628 1106 1628 1104 1620 c 2,37,-1
 1080 1529 l 1,38,39
 1287 1513 1287 1513 1345 1347 c 0,40,41
 1356 1315 1356 1315 1356 1280 c 0,42,43
 1356 1239 1356 1239 1345 1204 c 128,-1,44
 1334 1169 1334 1169 1304 1137 c 0,45,46
 1264 1096 1264 1096 1205 1096 c 0,47,48
 1151 1096 1151 1096 1113.5 1134.5 c 128,-1,49
 1076 1173 1076 1173 1076 1228 c 128,-1,50
 1076 1283 1076 1283 1114 1321.5 c 128,-1,51
 1152 1360 1152 1360 1206 1360 c 0,52,53
 1236 1360 1236 1360 1263 1345 c 1,54,55
 1193 1455 1193 1455 1060 1455 c 1,56,-1
 925 950 l 1,57,-1
 1042 893 l 2,58,59
 1278 778 1278 778 1278 580 c 0,60,61
 1278 516 1278 516 1263 460 c 0,62,63
 1210 261 1210 261 1008 113 c 0,64,65
 859 4 859 4 666 -16 c 1,66,-1
 641 -110 l 2,67,68
 630 -150 630 -150 590 -150 c 2,69,-1
 570 -150 l 2,70,71
 538 -150 538 -150 538 -128 c 0,72,73
 538 -121 538 -121 541 -110 c 2,74,-1
 565 -20 l 1,0,1
837 995 m 1,75,-1
 956 1442 l 1,76,77
 895 1426 895 1426 848 1390 c 0,78,79
 765 1326 765 1326 735 1222 c 0,80,81
 727 1194 727 1194 727 1168 c 0,82,83
 727 1060 727 1060 837 995 c 1,75,-1
871 748 m 1,84,-1
 688 65 l 1,85,86
 821 92 821 92 915 187 c 0,87,88
 1019 291 1019 291 1056 424 c 0,89,90
 1068 467 1068 467 1068 506 c 0,91,92
 1068 650 1068 650 899 734 c 2,93,-1
 871 748 l 1,84,-1
EndSplineSet
Validated: 1
EndChar

StartChar: percent
Encoding: 37 37 8
Width: 1589
GlyphClass: 2
Flags: W
HStem: -20 59<1064.46 1219.14> 605 59<1205.09 1359.91> 846 59<633.461 788.143> 1471 59<774.087 928.909>
VStem: 453 152<936.203 1248.42> 884 152<70.2031 382.419> 956 154<1123.86 1440> 1387 154<257.862 573.999>
DStem2: 325 65 439 -12 0.645378 0.763863<-37.1214 1957.41>
LayerCount: 2
Fore
SplineSet
1304 664 m 128,-1,1
 1422 664 1422 664 1490 582 c 0,2,3
 1541 520 1541 520 1541 431 c 0,4,5
 1541 381 1541 381 1525 322 c 0,6,7
 1481 158 1481 158 1351 62 c 0,8,9
 1239 -20 1239 -20 1121 -20 c 128,-1,10
 1003 -20 1003 -20 935 62 c 0,11,12
 884 123 884 123 884 213 c 0,13,14
 884 265 884 265 899 322 c 0,15,16
 943 488 943 488 1074 582 c 0,17,0
 1186 664 1186 664 1304 664 c 128,-1,1
1288 605 m 0,18,19
 1222 605 1222 605 1159 535 c 0,20,21
 1101 471 1101 471 1063 322 c 0,22,23
 1036 218 1036 218 1036 156 c 0,24,25
 1036 125 1036 125 1043 106 c 0,26,27
 1065 39 1065 39 1135 39 c 0,28,29
 1202 39 1202 39 1264 109 c 0,30,31
 1323 175 1323 175 1361 322 c 0,32,33
 1387 423 1387 423 1387 485 c 0,34,35
 1387 519 1387 519 1379 542 c 0,36,37
 1358 605 1358 605 1288 605 c 0,18,19
873 1530 m 128,-1,39
 991 1530 991 1530 1059 1448 c 0,40,41
 1110 1386 1110 1386 1110 1297 c 0,42,43
 1110 1247 1110 1247 1094 1188 c 0,44,45
 1050 1024 1050 1024 920 928 c 0,46,47
 808 846 808 846 690 846 c 128,-1,48
 572 846 572 846 504 928 c 0,49,50
 453 989 453 989 453 1079 c 0,51,52
 453 1130 453 1130 468 1188 c 0,53,54
 512 1354 512 1354 643 1448 c 0,55,38
 755 1530 755 1530 873 1530 c 128,-1,39
857 1471 m 0,56,57
 791 1471 791 1471 728 1401 c 0,58,59
 670 1337 670 1337 632 1188 c 0,60,61
 605 1084 605 1084 605 1022 c 0,62,63
 605 991 605 991 612 972 c 0,64,65
 634 905 634 905 704 905 c 0,66,67
 771 905 771 905 833 975 c 0,68,69
 892 1041 892 1041 930 1188 c 0,70,71
 956 1289 956 1289 956 1351 c 0,72,73
 956 1385 956 1385 948 1408 c 0,74,75
 927 1471 927 1471 857 1471 c 0,56,57
391 -40 m 0,76,77
 379 -40 379 -40 366 -31 c 2,78,-1
 325 -3 l 2,79,80
 307 9 307 9 307 27 c 0,81,82
 307 31 307 31 308 36 c 0,83,84
 311 48 311 48 325 65 c 2,85,-1
 1556 1522 l 2,86,87
 1580 1550 1580 1550 1601 1550 c 0,88,89
 1616 1550 1616 1550 1629 1541 c 2,90,-1
 1669 1513 l 2,91,92
 1686 1501 1686 1501 1686 1483 c 0,93,94
 1686 1477 1686 1477 1685 1473 c 0,95,96
 1682 1460 1682 1460 1669 1445 c 2,97,-1
 439 -12 l 2,98,99
 415 -40 415 -40 391 -40 c 0,76,77
EndSplineSet
Validated: 1
EndChar

StartChar: ampersand
Encoding: 38 38 9
Width: 1632
GlyphClass: 2
Flags: W
HStem: -20 107<1265.5 1455.73> -20 75<558.37 880.461> 1100 264<1084.19 1239.91> 1465 65<931.231 1174.85>
VStem: 228 214<166.376 532.191> 561 193<978.847 1278.2> 1045 277<1149.65 1324.29> 1400 259<787.893 980.293>
DStem2: 1148 872 969 856 0.263755 -0.96459<-16.2325 460.893 511.194 596.642 640.925 823.715>
LayerCount: 2
Fore
SplineSet
672 -20 m 0,0,1
 431 -20 431 -20 318 104 c 0,2,3
 228 203 228 203 228 340 c 0,4,5
 228 401 228 401 246 470 c 0,6,7
 292 643 292 643 424 755 c 0,8,9
 564 873 564 873 739 886 c 1,10,11
 657 913 657 913 613 969 c 0,12,13
 561 1033 561 1033 561 1116 c 0,14,15
 561 1154 561 1154 572 1195 c 0,16,17
 614 1350 614 1350 764 1447 c 0,18,19
 893 1530 893 1530 1048 1530 c 0,20,21
 1207 1530 1207 1530 1282 1414 c 0,22,23
 1322 1352 1322 1352 1322 1284 c 0,24,25
 1322 1246 1322 1246 1311 1211 c 0,26,27
 1297 1169 1297 1169 1270 1141 c 0,28,29
 1230 1100 1230 1100 1174 1100 c 0,30,31
 1120 1100 1120 1100 1082.5 1138.5 c 128,-1,32
 1045 1177 1045 1177 1045 1232 c 128,-1,33
 1045 1287 1045 1287 1083 1325.5 c 128,-1,34
 1121 1364 1121 1364 1175 1364 c 0,35,36
 1206 1364 1206 1364 1241 1345 c 1,37,38
 1195 1465 1195 1465 1057 1465 c 0,39,40
 941 1465 941 1465 860 1376 c 0,41,42
 796 1306 796 1306 769 1204 c 0,43,44
 754 1148 754 1148 754 1102 c 0,45,46
 754 1037 754 1037 784 993 c 0,47,48
 850 898 850 898 1148 872 c 1,49,-1
 1268 427 l 1,50,51
 1429 612 1429 612 1520 758 c 1,52,53
 1475 758 1475 758 1438 794 c 0,54,55
 1400 831 1400 831 1400 888 c 0,56,57
 1400 943 1400 943 1438 981.5 c 128,-1,58
 1476 1020 1476 1020 1530 1020 c 128,-1,59
 1584 1020 1584 1020 1621.5 981.5 c 128,-1,60
 1659 943 1659 943 1659 888 c 0,61,62
 1659 845 1659 845 1630 797 c 0,63,64
 1616 773 1616 773 1578 720 c 0,65,66
 1439 525 1439 525 1288 351 c 1,67,-1
 1349 130 l 2,68,69
 1361 87 1361 87 1409 87 c 0,70,71
 1491 87 1491 87 1551 200 c 1,72,-1
 1566 200 l 1,73,74
 1547 119 1547 119 1501 67 c 0,75,76
 1424 -20 1424 -20 1322 -20 c 0,77,78
 1209 -20 1209 -20 1179 88 c 2,79,-1
 1146 207 l 1,80,81
 1110 168 1110 168 1053 120 c 0,82,83
 887 -20 887 -20 672 -20 c 0,0,1
969 856 m 1,84,85
 785 836 785 836 663 755 c 0,86,87
 516 657 516 657 466 470 c 0,88,89
 442 381 442 381 442 312 c 0,90,91
 442 235 442 235 472 182 c 0,92,93
 543 55 543 55 699 55 c 0,94,95
 866 55 866 55 1012 168 c 0,96,97
 1078 219 1078 219 1127 277 c 1,98,-1
 969 856 l 1,84,85
EndSplineSet
Validated: 1
EndChar

StartChar: quotesingle
Encoding: 39 39 10
Width: 337
GlyphClass: 2
Flags: W
HStem: 1141 409<503 545.591>
VStem: 503 164<1296.69 1548.15>
LayerCount: 2
Fore
SplineSet
465 1550 m 1,0,1
 646 1550 l 1,2,3
 667 1503 667 1503 667 1451 c 0,4,5
 667 1416 667 1416 657 1379 c 0,6,7
 627 1267 627 1267 507 1141 c 1,8,-1
 386 1141 l 1,9,10
 467 1250 467 1250 492 1343 c 0,11,12
 503 1384 503 1384 503 1421 c 0,13,14
 503 1491 503 1491 465 1550 c 1,0,1
EndSplineSet
Validated: 1
EndChar

StartChar: parenleft
Encoding: 40 40 11
Width: 670
GlyphClass: 2
Flags: W
VStem: 346 173<8.1687 630.036>
LayerCount: 2
Fore
SplineSet
1005 1730 m 1,0,-1
 1073 1691 l 1,1,2
 903 1490 903 1490 786 1261 c 0,3,4
 669 1033 669 1033 594 755 c 0,5,6
 520 479 520 479 519 253 c 0,7,8
 519 25 519 25 572 -181 c 1,9,-1
 482 -220 l 1,10,11
 376 -22 376 -22 353 208 c 0,12,13
 346 276 346 276 346 346 c 0,14,15
 346 546 346 546 402 755 c 0,16,17
 483 1058 483 1058 646 1302 c 0,18,19
 783 1506 783 1506 1005 1730 c 1,0,-1
EndSplineSet
Validated: 1
EndChar

StartChar: parenright
Encoding: 41 41 12
Width: 670
GlyphClass: 2
Flags: W
VStem: 503 90<1626.64 1697.21> 560 171<900.668 1472.85>
LayerCount: 2
Fore
SplineSet
593 1730 m 1,0,1
 695 1506 695 1506 722 1302 c 0,2,3
 731 1234 731 1234 731 1160 c 0,4,5
 731 973 731 973 672 755 c 0,6,7
 594 467 594 467 429 208 c 0,8,9
 282 -22 282 -22 70 -220 c 1,10,-1
 2 -181 l 1,11,12
 162 22 162 22 283 247 c 0,13,14
 405 473 405 473 480 755 c 0,15,16
 560 1052 560 1052 560 1295 c 0,17,18
 560 1506 560 1506 503 1691 c 1,19,-1
 593 1730 l 1,0,1
EndSplineSet
Validated: 1
EndChar

StartChar: asterisk
Encoding: 42 42 13
Width: 891
GlyphClass: 2
Flags: W
LayerCount: 2
Fore
SplineSet
853 1550 m 1,0,-1
 864 1550 l 1,1,-1
 870 1295 l 1,2,-1
 1003 1350 l 1,3,-1
 917 1237 l 1,4,-1
 1152 1162 l 1,5,-1
 1149 1151 l 1,6,-1
 875 1077 l 1,7,-1
 898 959 l 1,8,-1
 800 1014 l 1,9,-1
 656 759 l 1,10,-1
 645 759 l 1,11,-1
 640 1014 l 1,12,-1
 507 959 l 1,13,-1
 592 1072 l 1,14,-1
 357 1147 l 1,15,-1
 360 1158 l 1,16,-1
 635 1232 l 1,17,-1
 612 1350 l 1,18,-1
 710 1295 l 1,19,-1
 853 1550 l 1,0,-1
EndSplineSet
Validated: 1
EndChar

StartChar: plus
Encoding: 43 43 14
Width: 1133
GlyphClass: 2
Flags: W
HStem: 680 150<360.77 674 864 1176.94>
DStem2: 582.603 338 732.603 338 0.258819 0.965926<32.8771 354.002 548.067 869.45>
LayerCount: 2
Fore
SplineSet
856 1172 m 2,0,-1
 906 1172 l 2,1,2
 946 1172 946 1172 946 1141 c 0,3,4
 946 1133 946 1133 943 1122 c 2,5,-1
 864 830 l 1,6,-1
 1155 830 l 2,7,8
 1195 830 1195 830 1195 799 c 0,9,10
 1195 791 1195 791 1192 780 c 2,11,-1
 1179 730 l 2,12,13
 1166 680 1166 680 1115 680 c 2,14,-1
 824 680 l 1,15,-1
 746 388 l 2,16,17
 733 338 733 338 683 338 c 2,18,-1
 633 338 l 2,19,20
 593 338 593 338 593 369 c 0,21,22
 593 377 593 377 596 388 c 2,23,-1
 674 680 l 1,24,-1
 382 680 l 2,25,26
 343 680 343 680 343 711 c 0,27,28
 343 720 343 720 346 730 c 2,29,-1
 359 780 l 2,30,31
 372 830 372 830 422 830 c 2,32,-1
 714 830 l 1,33,-1
 793 1122 l 2,34,35
 806 1172 806 1172 856 1172 c 2,0,-1
EndSplineSet
Validated: 1
EndChar

StartChar: comma
Encoding: 44 44 15
Width: 368
GlyphClass: 2
Flags: W
HStem: -183 404<52 198>
VStem: 77 260<31 186.161>
LayerCount: 2
Fore
SplineSet
198 221 m 0,0,1
 218 221 218 221 237 216 c 0,2,3
 289 202 289 202 315 159 c 0,4,5
 337 123 337 123 337 76 c 0,6,7
 337 54 337 54 331 31 c 0,8,9
 312 -39 312 -39 250 -98 c 0,10,11
 159 -183 159 -183 52 -183 c 0,12,13
 7 -183 7 -183 -35 -172 c 1,14,-1
 -32 -159 l 1,15,16
 55 -137 55 -137 119 -84 c 0,17,18
 151 -57 151 -57 176 -18 c 1,19,20
 114 -1 114 -1 93 36 c 0,21,22
 77 65 77 65 77 96 c 0,23,24
 77 116 77 116 82 132 c 0,25,26
 96 179 96 179 139 205 c 0,27,28
 166 221 166 221 198 221 c 0,0,1
EndSplineSet
Validated: 1
EndChar

StartChar: hyphen
Encoding: 45 45 16
Width: 1133
GlyphClass: 2
Flags: W
HStem: 680 150<360.77 1176.94>
LayerCount: 2
Fore
SplineSet
422 830 m 2,0,-1
 1155 830 l 2,1,2
 1195 830 1195 830 1195 799 c 0,3,4
 1195 791 1195 791 1192 780 c 2,5,-1
 1179 730 l 2,6,7
 1166 680 1166 680 1115 680 c 2,8,-1
 382 680 l 2,9,10
 343 680 343 680 343 711 c 0,11,12
 343 720 343 720 346 730 c 2,13,-1
 359 780 l 2,14,15
 372 830 372 830 422 830 c 2,0,-1
EndSplineSet
Validated: 1
EndChar

StartChar: period
Encoding: 46 46 17
Width: 359
GlyphClass: 2
Flags: W
HStem: -20 264<119.191 300.324>
VStem: 80 259<19.7072 204.293>
LayerCount: 2
Fore
SplineSet
210 -20 m 128,-1,1
 156 -20 156 -20 118 18.5 c 128,-1,2
 80 57 80 57 80 112 c 128,-1,3
 80 167 80 167 118 205.5 c 128,-1,4
 156 244 156 244 210 244 c 128,-1,5
 264 244 264 244 301.5 205.5 c 128,-1,6
 339 167 339 167 339 112 c 128,-1,7
 339 57 339 57 301.5 18.5 c 128,-1,0
 264 -20 264 -20 210 -20 c 128,-1,1
EndSplineSet
Validated: 1
EndChar

StartChar: slash
Encoding: 47 47 18
Width: 1141
GlyphClass: 2
Flags: W
DStem2: 7 -45 120 -122 0.645494 0.763766<-37.1235 2248.95>
LayerCount: 2
Fore
SplineSet
1472 1662 m 0,0,1
 1486 1662 1486 1662 1499 1653 c 2,2,-1
 1539 1625 l 2,3,4
 1557 1612 1557 1612 1557 1594 c 0,5,6
 1557 1590 1557 1590 1556 1586 c 0,7,8
 1553 1573 1553 1573 1539 1557 c 2,9,-1
 120 -122 l 2,10,11
 96 -150 96 -150 73 -150 c 0,12,13
 60 -150 60 -150 47 -141 c 2,14,-1
 7 -113 l 2,15,16
 -11 -100 -11 -100 -11 -83 c 0,17,18
 -11 -78 -11 -78 -10 -74 c 0,19,20
 -7 -62 -7 -62 7 -45 c 2,21,-1
 1426 1634 l 2,22,23
 1450 1662 1450 1662 1472 1662 c 0,0,1
EndSplineSet
Validated: 1
EndChar

StartChar: zero
Encoding: 48 48 19
Width: 1424
GlyphClass: 2
Flags: W
HStem: -20 75<596.521 879.138> 1455 75<957.836 1229.25>
VStem: 289 203<223.049 693.812> 1337 202<818.515 1286.15>
LayerCount: 2
Fore
SplineSet
727 55 m 0,0,1
 878 55 878 55 1002 185 c 0,2,3
 1173 366 1173 366 1276 755 c 0,4,5
 1337 985 1337 985 1337 1139 c 0,6,7
 1337 1252 1337 1252 1304 1325 c 0,8,9
 1245 1455 1245 1455 1102 1455 c 0,10,11
 964 1455 964 1455 833 1324 c 0,12,13
 656 1148 656 1148 552 755 c 0,14,15
 492 527 492 527 492 372 c 0,16,17
 492 259 492 259 524 184 c 0,18,19
 580 55 580 55 727 55 c 0,0,1
707 -20 m 0,20,21
 497 -20 497 -20 384 134 c 0,22,23
 289 265 289 265 289 461 c 0,24,25
 289 593 289 593 332 755 c 0,26,27
 438 1152 438 1152 717 1376 c 0,28,29
 908 1530 908 1530 1122 1530 c 128,-1,30
 1336 1530 1336 1530 1445 1376 c 0,31,32
 1539 1242 1539 1242 1539 1047 c 0,33,34
 1539 915 1539 915 1496 755 c 0,35,36
 1388 353 1388 353 1114 139 c 0,37,38
 910 -20 910 -20 707 -20 c 0,20,21
EndSplineSet
Validated: 1
EndChar

StartChar: one
Encoding: 49 49 20
Width: 700
GlyphClass: 2
Flags: W
HStem: 0 21G<280 425>
VStem: 850 15<1543.4 1550>
DStem2: 249.603 0 449.603 0 0.258819 0.965926<39.8087 1113.43>
LayerCount: 2
Fore
SplineSet
300 0 m 2,0,1
 260 0 260 0 260 31 c 0,2,3
 260 39 260 39 263 50 c 2,4,-1
 517 995 l 2,5,6
 529 1042 529 1042 529 1079 c 0,7,8
 529 1196 529 1196 410 1230 c 1,9,10
 412 1237 412 1237 414 1245 c 9,11,12
 675 1338 675 1338 850 1550 c 1,13,-1
 865 1550 l 1,14,-1
 463 50 l 2,15,16
 450 0 450 0 400 0 c 2,17,-1
 300 0 l 2,0,1
EndSplineSet
Validated: 1
EndChar

StartChar: two
Encoding: 50 50 21
Width: 1341
GlyphClass: 2
Flags: W
HStem: -10 180<780.076 1025.1> 80 181<349.626 653.957> 908 262<550.441 668.324> 1434 96<823.85 1122.97>
VStem: 448 259<947.707 1131.32> 1204 233<1034.03 1355.45>
LayerCount: 2
Fore
SplineSet
147 -10 m 1,0,1
 297 269 297 269 505 449 c 0,2,3
 715 631 715 631 908 755 c 0,4,5
 1137 901 1137 901 1189 1102 c 0,6,7
 1204 1160 1204 1160 1204 1209 c 0,8,9
 1204 1278 1204 1278 1178 1327 c 0,10,11
 1120 1434 1120 1434 967 1434 c 0,12,13
 825 1434 825 1434 707 1346 c 0,14,15
 606 1271 606 1271 550 1166 c 1,16,17
 563 1170 563 1170 578 1170 c 0,18,19
 632 1170 632 1170 669.5 1132.5 c 128,-1,20
 707 1095 707 1095 707 1040 c 128,-1,21
 707 985 707 985 669.5 946.5 c 128,-1,22
 632 908 632 908 578 908 c 128,-1,23
 524 908 524 908 486 946.5 c 128,-1,24
 448 985 448 985 448 1040 c 0,25,26
 448 1221 448 1221 660 1390 c 0,27,28
 835 1530 835 1530 1071 1530 c 0,29,30
 1282 1530 1282 1530 1374 1405 c 0,31,32
 1436 1320 1436 1320 1437 1219 c 0,33,34
 1437 1171 1437 1171 1423 1120 c 0,35,36
 1354 860 1354 860 1050 698 c 0,37,38
 766 546 766 546 636 452 c 0,39,40
 442 311 442 311 365 191 c 1,41,42
 470 261 470 261 589 261 c 0,43,44
 664 261 664 261 779 215 c 0,45,46
 891 170 891 170 975 170 c 0,47,48
 1113 170 1113 170 1248 268 c 1,49,-1
 1263 268 l 1,50,51
 1097 -10 1097 -10 831 -10 c 0,52,53
 766 -10 766 -10 634 43 c 0,54,55
 542 80 542 80 433 80 c 0,56,57
 293 80 293 80 162 -10 c 1,58,-1
 147 -10 l 1,0,1
EndSplineSet
Validated: 1
EndChar

StartChar: three
Encoding: 51 51 22
Width: 1213
GlyphClass: 2
Flags: W
HStem: -20 75<365.951 676.752> 160 264<272.844 419.809> 1465 65<762.279 1019.66>
VStem: 184 275<199.707 376.881> 536 258<1139.22 1315.93> 986 221<393.976 733.335> 1074 190<1118.75 1418.62>
LayerCount: 2
Fore
SplineSet
530 -20 m 0,0,1
 386 -20 386 -20 290 58 c 0,2,3
 184 145 184 145 184 257 c 0,4,5
 184 290 184 290 195 321 c 0,6,7
 207 357 207 357 234 383 c 0,8,9
 277 424 277 424 330 424 c 0,10,11
 384 424 384 424 421.5 385.5 c 128,-1,12
 459 347 459 347 459 292 c 128,-1,13
 459 237 459 237 421 198.5 c 128,-1,14
 383 160 383 160 329 160 c 0,15,16
 299 160 299 160 272 175 c 1,17,18
 362 55 362 55 516 55 c 128,-1,19
 670 55 670 55 809 182 c 0,20,21
 919 282 919 282 969 470 c 0,22,23
 986 534 986 534 986 588 c 0,24,25
 986 690 986 690 924 755 c 0,26,27
 846 836 846 836 695 856 c 1,28,-1
 699 871 l 1,29,30
 845 913 845 913 940 995 c 0,31,32
 1024 1068 1024 1068 1060 1204 c 0,33,34
 1074 1256 1074 1256 1074 1300 c 0,35,36
 1074 1342 1074 1342 1061 1376 c 0,37,38
 1026 1465 1026 1465 909 1465 c 0,39,40
 753 1465 753 1465 664 1351 c 1,41,42
 725 1351 725 1351 759.5 1317 c 128,-1,43
 794 1283 794 1283 794 1233 c 0,44,45
 794 1177 794 1177 756 1138 c 0,46,47
 718 1100 718 1100 664 1100 c 0,48,49
 606 1100 606 1100 571 1136 c 128,-1,50
 536 1172 536 1172 536 1221 c 0,51,52
 536 1259 536 1259 551 1296 c 0,53,54
 584 1379 584 1379 667 1444 c 0,55,56
 777 1530 777 1530 949 1530 c 0,57,58
 1110 1530 1110 1530 1195 1447 c 0,59,60
 1264 1379 1264 1379 1264 1283 c 0,61,62
 1264 1242 1264 1242 1251 1195 c 0,63,64
 1214 1062 1214 1062 1090 969 c 0,65,66
 1029 923 1029 923 918 886 c 1,67,68
 1089 873 1089 873 1163 757 c 0,69,70
 1207 689 1207 689 1207 596 c 0,71,72
 1207 538 1207 538 1189 470 c 0,73,74
 1130 248 1130 248 921 104 c 0,75,76
 742 -20 742 -20 530 -20 c 0,0,1
EndSplineSet
Validated: 1
EndChar

StartChar: four
Encoding: 52 52 23
Width: 1176
GlyphClass: 2
Flags: W
HStem: 0 21G<757 902> 360 90<310 823 1048 1184.23>
DStem2: 198 464 310 450 0.720698 0.693249<71.0127 1075.99> 726.603 0 926.603 0 0.258819 0.965926<39.8087 372.683 517.85 1187.48>
LayerCount: 2
Fore
SplineSet
777 0 m 2,0,1
 737 0 737 0 737 31 c 0,2,3
 737 39 737 39 740 50 c 2,4,-1
 823 360 l 1,5,-1
 176 360 l 2,6,7
 152 360 152 360 152 376 c 0,8,9
 152 383 152 383 154 390 c 2,10,-1
 160 410 l 2,11,12
 167 435 167 435 198 464 c 2,13,-1
 1327 1550 l 1,14,-1
 1342 1550 l 1,15,-1
 1048 450 l 1,16,-1
 1167 450 l 2,17,18
 1191 450 1191 450 1191 431 c 0,19,20
 1191 427 1191 427 1189 420 c 2,21,-1
 1180 390 l 2,22,23
 1171 360 1171 360 1142 360 c 2,24,-1
 1023 360 l 1,25,-1
 940 50 l 2,26,27
 927 0 927 0 877 0 c 2,28,-1
 777 0 l 2,0,1
848 450 m 1,29,-1
 1034 1147 l 1,30,-1
 310 450 l 1,31,-1
 848 450 l 1,29,-1
EndSplineSet
Validated: 1
EndChar

StartChar: five
Encoding: 53 53 24
Width: 1203
GlyphClass: 2
Flags: W
HStem: -20 75<355.951 666.752> 160 264<262.844 409.809> 835 81<628.095 869.246> 1320 190<865.992 1145.04>
VStem: 174 275<199.707 376.881> 978 219<393.976 740.095>
LayerCount: 2
Fore
SplineSet
520 -20 m 0,0,1
 376 -20 376 -20 280 58 c 0,2,3
 174 145 174 145 174 257 c 0,4,5
 174 290 174 290 185 321 c 0,6,7
 197 357 197 357 224 383 c 0,8,9
 267 424 267 424 320 424 c 0,10,11
 374 424 374 424 411.5 385.5 c 128,-1,12
 449 347 449 347 449 292 c 128,-1,13
 449 237 449 237 411 198.5 c 128,-1,14
 373 160 373 160 319 160 c 0,15,16
 289 160 289 160 262 175 c 1,17,18
 352 55 352 55 506 55 c 128,-1,19
 660 55 660 55 799 182 c 0,20,21
 909 282 909 282 959 470 c 0,22,23
 978 541 978 541 978 598 c 0,24,25
 978 685 978 685 934 740 c 0,26,27
 858 835 858 835 711 835 c 0,28,29
 630 835 630 835 549 787 c 1,30,-1
 411 901 l 1,31,-1
 737 1510 l 1,32,-1
 1401 1510 l 1,33,34
 1255 1320 1255 1320 1032 1320 c 0,35,36
 858 1320 858 1320 778 1461 c 1,37,-1
 626 893 l 1,38,39
 713 916 713 916 810 916 c 0,40,41
 1003 916 1003 916 1113 806 c 0,42,43
 1197 722 1197 722 1197 596 c 0,44,45
 1197 538 1197 538 1179 470 c 0,46,47
 1120 248 1120 248 911 104 c 0,48,49
 732 -20 732 -20 520 -20 c 0,0,1
EndSplineSet
Validated: 1
EndChar

StartChar: six
Encoding: 54 54 25
Width: 1366
GlyphClass: 2
Flags: W
HStem: -20 77<572.865 851.266> 958 77<798.173 1075.75> 1086 264<1247.19 1394.16> 1455 75<999.42 1296.79>
VStem: 297 190<190.049 545.102> 1164 209<468.657 839.325> 1208 275<1133.12 1310.29>
LayerCount: 2
Fore
SplineSet
1147 1530 m 0,0,1
 1294 1530 1294 1530 1382 1453 c 0,2,3
 1483 1367 1483 1367 1483 1253 c 0,4,5
 1483 1220 1483 1220 1472 1189 c 0,6,7
 1460 1153 1460 1153 1433 1127 c 0,8,9
 1393 1086 1393 1086 1337 1086 c 0,10,11
 1283 1086 1283 1086 1245.5 1124.5 c 128,-1,12
 1208 1163 1208 1163 1208 1218 c 128,-1,13
 1208 1273 1208 1273 1246 1311.5 c 128,-1,14
 1284 1350 1284 1350 1338 1350 c 0,15,16
 1368 1350 1368 1350 1395 1335 c 1,17,18
 1297 1455 1297 1455 1151 1455 c 0,19,20
 985 1455 985 1455 837 1295 c 0,21,22
 673 1118 673 1118 602 854 c 1,23,24
 774 1035 774 1035 972 1035 c 0,25,26
 1192 1035 1192 1035 1300 886 c 0,27,28
 1373 785 1373 785 1373 655 c 0,29,30
 1373 586 1373 586 1353 508 c 0,31,32
 1293 285 1293 285 1097 130 c 0,33,34
 908 -20 908 -20 689 -20 c 0,35,36
 465 -20 465 -20 364 147 c 0,37,38
 297 258 297 258 297 419 c 0,39,40
 297 547 297 547 339 705 c 0,41,42
 456 1141 456 1141 735 1371 c 0,43,44
 928 1530 928 1530 1147 1530 c 0,0,1
702 57 m 0,45,46
 860 57 860 57 992 208 c 0,47,48
 1075 303 1075 303 1131 508 c 0,49,50
 1164 634 1164 634 1164 720 c 0,51,52
 1164 770 1164 770 1153 807 c 0,53,54
 1105 958 1105 958 943 958 c 0,55,56
 787 958 787 958 659 807 c 0,57,58
 575 708 575 708 521 508 c 0,59,60
 487 382 487 382 487 295 c 0,61,62
 487 245 487 245 498 208 c 0,63,64
 546 57 546 57 702 57 c 0,45,46
EndSplineSet
Validated: 1
EndChar

StartChar: seven
Encoding: 55 55 26
Width: 1141
GlyphClass: 2
Flags: W
HStem: -20 21G<532.5 598.5> 1250 180<992.598 1300.51> 1340 180<620.715 866.85>
VStem: 412 232<151 424.925>
DStem2: 667 765 946 909 0.72763 0.685969<-23.8156 655.19>
LayerCount: 2
Fore
SplineSet
568 -20 m 0,0,1
 497 -20 497 -20 451 48 c 0,2,3
 412 106 412 106 412 196 c 0,4,5
 412 267 412 267 436 358 c 0,6,7
 494 576 494 576 667 765 c 0,8,9
 749 855 749 855 831 923.5 c 128,-1,10
 913 992 913 992 999 1055 c 0,11,12
 1167 1179 1167 1179 1263 1294 c 1,13,14
 1159 1250 1159 1250 1070 1250 c 128,-1,15
 981 1250 981 1250 867 1295 c 0,16,17
 752 1340 752 1340 671 1340 c 0,18,19
 533 1340 533 1340 398 1242 c 1,20,-1
 383 1242 l 1,21,22
 549 1520 549 1520 814 1520 c 0,23,24
 879 1520 879 1520 1012 1467 c 0,25,26
 1104 1430 1104 1430 1212 1430 c 0,27,28
 1352 1430 1352 1430 1483 1520 c 1,29,-1
 1498 1520 l 1,30,31
 1344 1258 1344 1258 1134 1078 c 0,32,33
 1001 964 1001 964 946 909 c 0,34,35
 826 790 826 790 770 707 c 0,36,37
 687 583 687 583 656 455 c 0,38,39
 644 405 644 405 644 362 c 0,40,41
 644 277 644 277 691 216 c 0,42,43
 723 175 723 175 723 126 c 0,44,45
 723 109 723 109 719 91 c 0,46,47
 709 43 709 43 670 12 c 0,48,49
 629 -20 629 -20 568 -20 c 0,0,1
EndSplineSet
Validated: 1
EndChar

StartChar: eight
Encoding: 56 56 27
Width: 1245
GlyphClass: 2
Flags: W
HStem: -20 72<475.467 779.728> 1462 68<910.023 1134.23>
VStem: 219 144<146.646 495.349> 548 197<1016.47 1258.69> 1046 211<361.772 621.589> 1187 145<1114.43 1421.24>
DStem2: 834 980 730 816 0.851504 -0.524347<-27.9001 179.907 223.134 367.052>
LayerCount: 2
Fore
SplineSet
978 893 m 1,0,1
 1123 1015 1123 1015 1170 1192 c 0,2,3
 1187 1254 1187 1254 1187 1302 c 0,4,5
 1187 1348 1187 1348 1171 1381 c 0,6,7
 1132 1462 1132 1462 1033 1462 c 128,-1,8
 934 1462 934 1462 855 1387 c 0,9,10
 780 1314 780 1314 755 1212 c 0,11,12
 745 1172 745 1172 745 1138 c 0,13,14
 745 1034 745 1034 834 980 c 2,15,-1
 978 893 l 1,0,1
610 -20 m 0,16,17
 395 -20 395 -20 295 101 c 0,18,19
 219 194 219 194 219 313 c 0,20,21
 219 366 219 366 234 424 c 0,22,23
 311 721 311 721 681 854 c 1,24,25
 548 958 548 958 548 1094 c 0,26,27
 548 1132 548 1132 559 1172 c 0,28,29
 605 1345 605 1345 759 1444 c 0,30,31
 892 1530 892 1530 1047 1530 c 0,32,33
 1197 1530 1197 1530 1270 1448 c 0,34,35
 1332 1377 1332 1377 1332 1282 c 0,36,37
 1332 1240 1332 1240 1320 1192 c 0,38,39
 1261 962 1261 962 1024 863 c 1,40,41
 1257 732 1257 732 1257 540 c 0,42,43
 1257 492 1257 492 1242 440 c 0,44,45
 1189 253 1189 253 1003 112 c 0,46,47
 830 -20 830 -20 610 -20 c 0,16,17
730 816 m 1,48,49
 457 701 457 701 382 419 c 0,50,51
 363 348 363 348 363 291 c 0,52,53
 363 219 363 219 393 168 c 0,54,55
 461 52 461 52 629 52 c 0,56,57
 760 52 760 52 885 156 c 0,58,59
 997 249 997 249 1035 400 c 0,60,61
 1046 443 1046 443 1046 482 c 0,62,63
 1046 622 1046 622 908 707 c 2,64,-1
 730 816 l 1,48,49
EndSplineSet
Validated: 1
EndChar

StartChar: nine
Encoding: 57 57 28
Width: 1366
GlyphClass: 2
Flags: W
HStem: -20 75<474.209 771.58> 160 264<376.844 523.809> 475 77<695.25 972.827> 1453 77<919.734 1198.14>
VStem: 288 275<199.707 376.881> 398 209<670.675 1041.34> 1284 190<964.898 1319.95>
LayerCount: 2
Fore
SplineSet
624 -20 m 0,0,1
 477 -20 477 -20 389 57 c 0,2,3
 288 143 288 143 288 257 c 0,4,5
 288 290 288 290 299 321 c 0,6,7
 311 357 311 357 338 383 c 0,8,9
 378 424 378 424 434 424 c 0,10,11
 488 424 488 424 525.5 385.5 c 128,-1,12
 563 347 563 347 563 292 c 128,-1,13
 563 237 563 237 525 198.5 c 128,-1,14
 487 160 487 160 433 160 c 0,15,16
 403 160 403 160 376 175 c 1,17,18
 474 55 474 55 620 55 c 0,19,20
 786 55 786 55 934 215 c 0,21,22
 1098 392 1098 392 1169 656 c 1,23,24
 997 475 997 475 799 475 c 0,25,26
 579 475 579 475 471 624 c 0,27,28
 398 725 398 725 398 855 c 0,29,30
 398 924 398 924 418 1002 c 0,31,32
 478 1225 478 1225 674 1380 c 0,33,34
 863 1530 863 1530 1082 1530 c 0,35,36
 1306 1530 1306 1530 1407 1363 c 0,37,38
 1474 1252 1474 1252 1474 1091 c 0,39,40
 1474 963 1474 963 1432 805 c 0,41,42
 1315 369 1315 369 1036 139 c 0,43,44
 843 -20 843 -20 624 -20 c 0,0,1
1069 1453 m 0,45,46
 911 1453 911 1453 779 1302 c 0,47,48
 696 1207 696 1207 640 1002 c 0,49,50
 607 876 607 876 607 790 c 0,51,52
 607 740 607 740 618 703 c 0,53,54
 666 552 666 552 828 552 c 0,55,56
 984 552 984 552 1112 703 c 0,57,58
 1196 802 1196 802 1250 1002 c 0,59,60
 1284 1128 1284 1128 1284 1215 c 0,61,62
 1284 1265 1284 1265 1273 1302 c 0,63,64
 1225 1453 1225 1453 1069 1453 c 0,45,46
EndSplineSet
Validated: 1
EndChar

StartChar: colon
Encoding: 58 58 29
Width: 359
GlyphClass: 2
Flags: W
HStem: -20 264<119.191 300.324> 625 264<292.191 473.324>
VStem: 80 259<19.7072 204.293> 253 259<664.707 849.293>
LayerCount: 2
Fore
SplineSet
383 889 m 128,-1,1
 437 889 437 889 474.5 850.5 c 128,-1,2
 512 812 512 812 512 757 c 128,-1,3
 512 702 512 702 474.5 663.5 c 128,-1,4
 437 625 437 625 383 625 c 128,-1,5
 329 625 329 625 291 663.5 c 128,-1,6
 253 702 253 702 253 757 c 128,-1,7
 253 812 253 812 291 850.5 c 128,-1,0
 329 889 329 889 383 889 c 128,-1,1
210 -20 m 128,-1,9
 156 -20 156 -20 118 18.5 c 128,-1,10
 80 57 80 57 80 112 c 128,-1,11
 80 167 80 167 118 205.5 c 128,-1,12
 156 244 156 244 210 244 c 128,-1,13
 264 244 264 244 301.5 205.5 c 128,-1,14
 339 167 339 167 339 112 c 128,-1,15
 339 57 339 57 301.5 18.5 c 128,-1,8
 264 -20 264 -20 210 -20 c 128,-1,9
EndSplineSet
Validated: 1
EndChar

StartChar: semicolon
Encoding: 59 59 30
Width: 368
GlyphClass: 2
Flags: W
HStem: -183 404<52 198> 625 264<292.191 473.324>
VStem: 77 260<31 186.161> 253 259<664.707 849.293>
LayerCount: 2
Fore
SplineSet
198 221 m 0,0,1
 218 221 218 221 237 216 c 0,2,3
 289 202 289 202 315 159 c 0,4,5
 337 123 337 123 337 76 c 0,6,7
 337 54 337 54 331 31 c 0,8,9
 312 -39 312 -39 250 -98 c 0,10,11
 159 -183 159 -183 52 -183 c 0,12,13
 7 -183 7 -183 -35 -172 c 1,14,-1
 -32 -159 l 1,15,16
 55 -137 55 -137 119 -84 c 0,17,18
 151 -57 151 -57 176 -18 c 1,19,20
 114 -1 114 -1 93 36 c 0,21,22
 77 65 77 65 77 96 c 0,23,24
 77 116 77 116 82 132 c 0,25,26
 96 179 96 179 139 205 c 0,27,28
 166 221 166 221 198 221 c 0,0,1
383 889 m 128,-1,30
 437 889 437 889 474.5 850.5 c 128,-1,31
 512 812 512 812 512 757 c 128,-1,32
 512 702 512 702 474.5 663.5 c 128,-1,33
 437 625 437 625 383 625 c 128,-1,34
 329 625 329 625 291 663.5 c 128,-1,35
 253 702 253 702 253 757 c 128,-1,36
 253 812 253 812 291 850.5 c 128,-1,29
 329 889 329 889 383 889 c 128,-1,30
EndSplineSet
Validated: 1
EndChar

StartChar: less
Encoding: 60 60 31
Width: 1127
GlyphClass: 2
Flags: W
DStem2: 515 783 379 669 0.84286 -0.538133<0 590.922> 428 850 515 783 0.897272 0.441477<48.4837 854.439>
LayerCount: 2
Fore
SplineSet
1203 1226 m 0,0,1
 1217 1226 1217 1226 1223 1207 c 2,2,-1
 1235 1172 l 2,3,4
 1237 1164 1237 1164 1237 1158 c 0,5,6
 1237 1151 1237 1151 1235 1146 c 0,7,8
 1229 1134 1229 1134 1209 1124 c 2,9,-1
 515 783 l 1,10,-1
 1010 468 l 2,11,12
 1029 456 1029 456 1029 438 c 0,13,14
 1029 434 1029 434 1028 430 c 0,15,16
 1025 418 1025 418 1010 400 c 2,17,-1
 972 355 l 2,18,19
 949 328 949 328 926 328 c 0,20,21
 913 328 913 328 899 337 c 2,22,-1
 379 669 l 2,23,24
 345 691 345 691 345 721 c 0,25,26
 345 728 345 728 348 739 c 2,27,-1
 359 780 l 2,28,29
 370 821 370 821 428 850 c 2,30,-1
 1180 1220 l 2,31,32
 1192 1226 1192 1226 1203 1226 c 0,0,1
EndSplineSet
Validated: 1
EndChar

StartChar: equal
Encoding: 61 61 32
Width: 1133
GlyphClass: 2
Flags: W
HStem: 490 150<309.77 1125.94> 870 150<411.77 1227.94>
LayerCount: 2
Fore
SplineSet
371 640 m 2,0,-1
 1104 640 l 2,1,2
 1144 640 1144 640 1144 609 c 0,3,4
 1144 601 1144 601 1141 590 c 2,5,-1
 1128 540 l 2,6,7
 1115 490 1115 490 1064 490 c 2,8,-1
 331 490 l 2,9,10
 292 490 292 490 292 521 c 0,11,12
 292 530 292 530 295 540 c 2,13,-1
 308 590 l 2,14,15
 321 640 321 640 371 640 c 2,0,-1
473 1020 m 2,16,-1
 1206 1020 l 2,17,18
 1246 1020 1246 1020 1246 989 c 0,19,20
 1246 981 1246 981 1243 970 c 2,21,-1
 1230 920 l 2,22,23
 1217 870 1217 870 1166 870 c 2,24,-1
 433 870 l 2,25,26
 394 870 394 870 394 901 c 0,27,28
 394 910 394 910 397 920 c 2,29,-1
 410 970 l 2,30,31
 423 1020 423 1020 473 1020 c 2,16,-1
EndSplineSet
Validated: 1
EndChar

StartChar: greater
Encoding: 62 62 33
Width: 1127
GlyphClass: 2
Flags: W
DStem2: 1029 771 364 334 0.897272 0.441477<-805.956 0> 1165 885 1029 771 0.84286 -0.538133<-644.204 -53.2817>
LayerCount: 2
Fore
SplineSet
618 1226 m 0,0,1
 631 1226 631 1226 645 1217 c 2,2,-1
 1165 885 l 2,3,4
 1199 863 1199 863 1199 833 c 0,5,6
 1199 826 1199 826 1196 815 c 2,7,-1
 1185 774 l 2,8,9
 1174 733 1174 733 1116 704 c 2,10,-1
 364 334 l 2,11,12
 352 328 352 328 341 328 c 0,13,14
 327 328 327 328 321 347 c 2,15,-1
 309 382 l 2,16,17
 307 390 307 390 307 396 c 0,18,19
 307 403 307 403 309 408 c 0,20,21
 315 420 315 420 335 430 c 2,22,-1
 1029 771 l 1,23,-1
 534 1086 l 2,24,25
 515 1098 515 1098 515 1116 c 0,26,27
 515 1120 515 1120 516 1124 c 0,28,29
 519 1136 519 1136 534 1154 c 2,30,-1
 572 1199 l 2,31,32
 595 1226 595 1226 618 1226 c 0,0,1
EndSplineSet
Validated: 1
EndChar

StartChar: question
Encoding: 63 63 34
Width: 1256
GlyphClass: 2
Flags: W
HStem: -20 264<506.191 687.324> 908 262<538.441 656.324> 1434 96<811.85 1110.85>
VStem: 436 259<947.707 1131.32> 467 259<19.7072 204.293> 1192 229<1037.9 1353.64>
LayerCount: 2
Fore
SplineSet
1059 1530 m 0,0,1
 1271 1530 1271 1530 1362 1405 c 0,2,3
 1421 1325 1421 1325 1421 1225 c 0,4,5
 1421 1175 1421 1175 1406 1120 c 0,6,7
 1346 895 1346 895 1104 735 c 2,8,-1
 871 581 l 2,9,10
 745 498 745 498 705 350 c 24,11,12
 697 320 697 320 667 320 c 2,13,-1
 625 320 l 2,14,15
 601 320 601 320 601 338 c 0,16,17
 601 343 601 343 603 350 c 0,18,19
 650 527 650 527 809 664 c 2,20,-1
 934 772 l 2,21,22
 1136 946 1136 946 1177 1102 c 0,23,24
 1192 1160 1192 1160 1192 1209 c 0,25,26
 1192 1277 1192 1277 1166 1326 c 0,27,28
 1107 1434 1107 1434 955 1434 c 0,29,30
 813 1434 813 1434 695 1346 c 0,31,32
 594 1271 594 1271 538 1166 c 1,33,34
 551 1170 551 1170 566 1170 c 0,35,36
 620 1170 620 1170 657.5 1132.5 c 128,-1,37
 695 1095 695 1095 695 1040 c 128,-1,38
 695 985 695 985 657.5 946.5 c 128,-1,39
 620 908 620 908 566 908 c 128,-1,40
 512 908 512 908 474 946.5 c 128,-1,41
 436 985 436 985 436 1040 c 0,42,43
 436 1221 436 1221 648 1390 c 0,44,45
 823 1530 823 1530 1059 1530 c 0,0,1
597 -20 m 128,-1,47
 543 -20 543 -20 505 18.5 c 128,-1,48
 467 57 467 57 467 112 c 128,-1,49
 467 167 467 167 505 205.5 c 128,-1,50
 543 244 543 244 597 244 c 128,-1,51
 651 244 651 244 688.5 205.5 c 128,-1,52
 726 167 726 167 726 112 c 128,-1,53
 726 57 726 57 688.5 18.5 c 128,-1,46
 651 -20 651 -20 597 -20 c 128,-1,47
EndSplineSet
Validated: 1
EndChar

StartChar: at
Encoding: 64 64 35
Width: 1474
GlyphClass: 2
Flags: W
HStem: -430 70<593.417 929.394> -20 107<1173 1368.54> -20 65<834.975 1020.19> 606 46<1093.46 1206> 1050 70<915.146 1216.57>
VStem: 202 194<-162.53 344.969> 608 180<85.8054 366.18> 1271 177<681.836 1008.37>
DStem2: 928.421 -430 1109.19 -430 0.258819 0.965926<647.379 1072.54 1108.24 1366.1>
LayerCount: 2
Fore
SplineSet
883 -20 m 0,0,1
 741 -20 741 -20 670 63 c 0,2,3
 608 134 608 134 608 225 c 0,4,5
 608 264 608 264 619 306 c 0,6,7
 661 463 661 463 826 560 c 0,8,9
 982 652 982 652 1219 652 c 1,10,-1
 1255 786 l 2,11,12
 1271 846 1271 846 1271 894 c 0,13,14
 1271 956 1271 956 1242 992 c 0,15,16
 1195 1050 1195 1050 1093 1050 c 0,17,18
 906 1050 906 1050 754 910 c 0,19,20
 536 708 536 708 438 345 c 0,21,22
 396 188 396 188 396 63 c 0,23,24
 396 -86 396 -86 455 -193 c 0,25,26
 547 -360 547 -360 763 -360 c 0,27,28
 955 -360 955 -360 1136 -230 c 1,29,-1
 1166 -276 l 1,30,31
 956 -430 956 -430 700 -430 c 128,-1,32
 444 -430 444 -430 316 -276 c 0,33,34
 202 -139 202 -139 202 71 c 0,35,36
 202 195 202 195 242 345 c 0,37,38
 350 747 350 747 649 966 c 0,39,40
 859 1120 859 1120 1140 1120 c 0,41,42
 1293 1120 1293 1120 1374 1048 c 0,43,44
 1448 982 1448 982 1448 880 c 0,45,46
 1448 838 1448 838 1434 785 c 2,47,-1
 1278 200 l 2,48,49
 1270 170 1270 170 1270 148 c 0,50,51
 1270 87 1270 87 1331 87 c 0,52,53
 1413 87 1413 87 1473 200 c 1,54,-1
 1488 200 l 1,55,56
 1469 126 1469 126 1419 70 c 0,57,58
 1339 -20 1339 -20 1229 -20 c 0,59,60
 1117 -20 1117 -20 1093 72 c 1,61,62
 1020 -20 1020 -20 883 -20 c 0,0,1
1206 606 m 1,63,64
 1062 594 1062 594 945 506 c 0,65,66
 840 427 840 427 801 282 c 0,67,68
 788 234 788 234 788 194 c 0,69,70
 788 149 788 149 805 114 c 0,71,72
 839 46 839 46 932 45 c 0,73,74
 1056 45 1056 45 1105 229 c 2,75,-1
 1206 606 l 1,63,64
EndSplineSet
Validated: 1
EndChar

StartChar: A
Encoding: 65 65 36
Width: 1624
GlyphClass: 2
Flags: W
HStem: -20 93<92.5254 248.645 1346.5 1554.88> 500 90<686 1184> 1423 107<957.761 1176.5>
VStem: 48 32<110.982 198.129>
DStem2: 293 171 625 500 0.562624 0.826713<-145.452 458.78 567.504 1293.64> 1270 1387 1075 1339 0.144041 -0.989572<-64.5388 35.5326 169.738 776.301 867.235 1316.31>
LayerCount: 2
Fore
SplineSet
162 -20 m 0,0,1
 71 -20 71 -20 52 60 c 0,2,3
 48 77 48 77 48 98 c 0,4,5
 48 140 48 140 64 200 c 1,6,-1
 80 200 l 1,7,8
 80 73 80 73 156 73 c 0,9,10
 226 73 226 73 293 171 c 2,11,-1
 1077 1323 l 1,12,-1
 1075 1339 l 2,13,14
 1064 1423 1064 1423 984 1423 c 0,15,16
 913 1423 913 1423 853 1310 c 1,17,-1
 839 1310 l 1,18,19
 859 1384 859 1384 907 1439 c 0,20,21
 987 1530 987 1530 1104 1530 c 0,22,23
 1249 1530 1249 1530 1270 1387 c 2,24,-1
 1447 171 l 2,25,26
 1459 87 1459 87 1522 87 c 0,27,28
 1593 87 1593 87 1654 200 c 1,29,-1
 1668 200 l 1,30,31
 1648 120 1648 120 1600 67 c 0,32,33
 1524 -20 1524 -20 1420 -20 c 0,34,35
 1273 -20 1273 -20 1252 123 c 2,36,-1
 1197 500 l 1,37,-1
 625 500 l 1,38,-1
 368 123 l 2,39,40
 271 -20 271 -20 162 -20 c 0,0,1
1095 1190 m 1,41,-1
 686 590 l 1,42,-1
 1184 590 l 1,43,-1
 1095 1190 l 1,41,-1
EndSplineSet
Validated: 1
EndChar

StartChar: C
Encoding: 67 67 37
Width: 1280
GlyphClass: 2
Flags: W
HStem: -20 75<637.823 965.548> 1021 264<1264.19 1411.16> 1455 75<987.909 1310.46>
VStem: 289 210<222.502 682.318> 1225 280<1073.6 1245.29> 1252 15<327.883 336>
LayerCount: 2
Fore
SplineSet
751 -20 m 0,0,1
 497 -20 497 -20 384 134 c 0,2,3
 289 265 289 265 289 461 c 0,4,5
 289 593 289 593 332 755 c 0,6,7
 445 1176 445 1176 717 1376 c 0,8,9
 927 1530 927 1530 1157 1530 c 0,10,11
 1349 1530 1349 1530 1445 1401 c 0,12,13
 1505 1321 1505 1321 1505 1222 c 0,14,15
 1505 1173 1505 1173 1492 1132 c 0,16,17
 1479 1092 1479 1092 1450 1062 c 0,18,19
 1410 1021 1410 1021 1354 1021 c 0,20,21
 1300 1021 1300 1021 1262.5 1059.5 c 128,-1,22
 1225 1098 1225 1098 1225 1153 c 128,-1,23
 1225 1208 1225 1208 1263 1246.5 c 128,-1,24
 1301 1285 1301 1285 1355 1285 c 0,25,26
 1385 1285 1385 1285 1412 1270 c 1,27,28
 1366 1455 1366 1455 1160 1455 c 0,29,30
 987 1455 987 1455 840 1320 c 0,31,32
 673 1167 673 1167 562 755 c 0,33,34
 499 521 499 521 499 371 c 0,35,36
 499 257 499 257 536 192 c 0,37,38
 614 55 614 55 796 55 c 0,39,40
 964 55 964 55 1107 180 c 0,41,42
 1186 249 1186 249 1252 336 c 1,43,-1
 1267 336 l 1,44,-1
 1225 178 l 1,45,46
 1014 -20 1014 -20 751 -20 c 0,0,1
EndSplineSet
Validated: 1
EndChar

StartChar: D
Encoding: 68 68 38
Width: 1504
GlyphClass: 2
Flags: W
HStem: -20 107<161.88 313.858> -20 80<572.714 893.485> 1440 90<828.764 1227.1>
VStem: 124 25<128.961 200> 1381 231<737.473 1245.42>
DStem2: 285.051 -20 484.601 -20 0.258819 0.965926<253.357 1274.67>
LayerCount: 2
Fore
SplineSet
280 -20 m 128,-1,1
 168 -20 168 -20 135 71 c 0,2,3
 124 100 124 100 124 133 c 0,4,5
 124 165 124 165 134 200 c 1,6,-1
 149 200 l 1,7,8
 149 87 149 87 229 87 c 0,9,10
 314 87 314 87 344 200 c 2,11,-1
 598 1150 l 2,12,13
 611 1200 611 1200 662 1200 c 2,14,-1
 762 1200 l 2,15,16
 801 1200 801 1200 801 1169 c 0,17,18
 801 1161 801 1161 798 1150 c 2,19,-1
 554 239 l 2,20,21
 544 201 544 201 544 172 c 0,22,23
 544 142 544 142 555 121 c 0,24,25
 589 60 589 60 714 60 c 0,26,27
 961 60 961 60 1143 317 c 0,28,29
 1276 506 1276 506 1342 755 c 0,30,31
 1381 901 1381 901 1381 1028 c 0,32,33
 1381 1114 1381 1114 1363 1192 c 0,34,35
 1305 1440 1305 1440 1043 1440 c 0,36,37
 648 1440 648 1440 313 1045 c 1,38,-1
 302 1053 l 1,39,40
 630 1530 630 1530 1097 1530 c 0,41,42
 1438 1530 1438 1530 1559 1266 c 0,43,44
 1612 1149 1612 1149 1612 1007 c 0,45,46
 1612 889 1612 889 1576 754 c 0,47,48
 1496 456 1496 456 1278 235 c 0,49,50
 1026 -20 1026 -20 724 -20 c 0,51,52
 528 -20 528 -20 461 64 c 1,53,0
 392 -20 392 -20 280 -20 c 128,-1,1
EndSplineSet
Validated: 1
EndChar

StartChar: E
Encoding: 69 69 39
Width: 1186
GlyphClass: 2
Flags: W
HStem: -20 75<558.37 868.829> 1100 264<1084.19 1231.16> 1465 65<931.231 1167.83>
VStem: 228 214<166.376 532.191> 561 192<979.69 1278.2> 1045 277<1149.65 1324.29> 1177 15<388.058 397>
LayerCount: 2
Fore
SplineSet
672 -20 m 0,0,1
 431 -20 431 -20 318 104 c 0,2,3
 228 203 228 203 228 340 c 0,4,5
 228 401 228 401 246 470 c 0,6,7
 292 643 292 643 424 755 c 0,8,9
 564 873 564 873 739 886 c 1,10,11
 657 913 657 913 613 969 c 0,12,13
 561 1035 561 1035 561 1116 c 0,14,15
 561 1154 561 1154 572 1195 c 0,16,17
 614 1350 614 1350 764 1447 c 0,18,19
 893 1530 893 1530 1048 1530 c 0,20,21
 1207 1530 1207 1530 1282 1414 c 0,22,23
 1322 1352 1322 1352 1322 1284 c 0,24,25
 1322 1246 1322 1246 1311 1211 c 0,26,27
 1297 1169 1297 1169 1270 1141 c 0,28,29
 1230 1100 1230 1100 1174 1100 c 0,30,31
 1120 1100 1120 1100 1082.5 1138.5 c 128,-1,32
 1045 1177 1045 1177 1045 1232 c 128,-1,33
 1045 1287 1045 1287 1083 1325.5 c 128,-1,34
 1121 1364 1121 1364 1175 1364 c 0,35,36
 1205 1364 1205 1364 1232 1349 c 1,37,38
 1187 1465 1187 1465 1057 1465 c 0,39,40
 941 1465 941 1465 860 1376 c 0,41,42
 796 1306 796 1306 769 1204 c 0,43,44
 753 1143 753 1143 753 1094 c 0,45,46
 753 1035 753 1035 777 995 c 0,47,48
 827 913 827 913 950 871 c 1,49,-1
 946 856 l 1,50,51
 785 836 785 836 663 755 c 0,52,53
 516 657 516 657 466 470 c 0,54,55
 442 381 442 381 442 312 c 0,56,57
 442 235 442 235 472 182 c 0,58,59
 543 55 543 55 699 55 c 0,60,61
 858 55 858 55 991 168 c 0,62,63
 1091 253 1091 253 1177 397 c 1,64,-1
 1192 397 l 1,65,-1
 1143 211 l 1,66,67
 1094 159 1094 159 1041 117 c 0,68,69
 868 -20 868 -20 672 -20 c 0,0,1
EndSplineSet
Validated: 1
EndChar

StartChar: F
Encoding: 70 70 40
Width: 1128
GlyphClass: 2
Flags: W
HStem: -20 107<112.165 263.32> 600 90<232 401 625 1042> 1100 264<1200.19 1347.16> 1455 75<998.324 1288.32>
VStem: 74 25<128.961 200> 1161 277<1149.65 1324.29>
DStem2: 235.051 -20 434.601 -20 0.258819 0.965926<109.607 641.825 786.734 1299.85>
LayerCount: 2
Fore
SplineSet
227 -20 m 0,0,1
 120 -20 120 -20 85 71 c 0,2,3
 74 100 74 100 74 133 c 0,4,5
 74 165 74 165 84 200 c 1,6,-1
 99 200 l 1,7,8
 99 87 99 87 179 87 c 0,9,10
 264 87 264 87 294 200 c 2,11,-1
 401 600 l 1,12,-1
 250 600 l 2,13,14
 226 600 226 600 226 618 c 0,15,16
 226 622 226 622 228 630 c 2,17,-1
 236 660 l 2,18,19
 244 690 244 690 274 690 c 2,20,-1
 425 690 l 1,21,-1
 497 960 l 2,22,23
 573 1245 573 1245 774 1394 c 0,24,25
 956 1530 956 1530 1149 1530 c 0,26,27
 1312 1530 1312 1530 1393 1422 c 0,28,29
 1438 1364 1438 1364 1438 1284 c 0,30,31
 1438 1246 1438 1246 1427 1211 c 0,32,33
 1413 1169 1413 1169 1386 1141 c 0,34,35
 1346 1100 1346 1100 1290 1100 c 0,36,37
 1236 1100 1236 1100 1198.5 1138.5 c 128,-1,38
 1161 1177 1161 1177 1161 1232 c 128,-1,39
 1161 1287 1161 1287 1199 1325.5 c 128,-1,40
 1237 1364 1237 1364 1291 1364 c 0,41,42
 1321 1364 1321 1364 1348 1349 c 1,43,44
 1292 1455 1292 1455 1154 1455 c 0,45,46
 985 1455 985 1455 863 1309 c 0,47,48
 756 1182 756 1182 697 960 c 2,49,-1
 625 690 l 1,50,-1
 1024 690 l 2,51,52
 1048 690 1048 690 1048 672 c 0,53,54
 1048 668 1048 668 1046 660 c 2,55,-1
 1038 630 l 2,56,57
 1030 600 1030 600 1000 600 c 2,58,-1
 601 600 l 1,59,-1
 504 239 l 2,60,61
 470 113 470 113 422 62 c 0,62,63
 345 -20 345 -20 227 -20 c 0,0,1
EndSplineSet
Validated: 1
EndChar

StartChar: G
Encoding: 71 71 41
Width: 1346
GlyphClass: 2
Flags: W
HStem: -20 75<619.79 926.851> 600 90<955 1135.63> 1021 264<1264.19 1411.16> 1455 75<987.909 1310.46>
VStem: 289 214<231.468 695.04> 1172 212<383.774 560.43> 1225 280<1073.6 1245.29>
LayerCount: 2
Fore
SplineSet
755 -20 m 0,0,1
 495 -20 495 -20 372 162 c 0,2,3
 289 285 289 285 289 466 c 0,4,5
 289 596 289 596 332 755 c 0,6,7
 445 1176 445 1176 717 1376 c 0,8,9
 927 1530 927 1530 1157 1530 c 0,10,11
 1349 1530 1349 1530 1445 1401 c 0,12,13
 1505 1321 1505 1321 1505 1222 c 0,14,15
 1505 1173 1505 1173 1492 1132 c 0,16,17
 1479 1092 1479 1092 1450 1062 c 0,18,19
 1410 1021 1410 1021 1354 1021 c 0,20,21
 1300 1021 1300 1021 1262.5 1059.5 c 128,-1,22
 1225 1098 1225 1098 1225 1153 c 128,-1,23
 1225 1208 1225 1208 1263 1246.5 c 128,-1,24
 1301 1285 1301 1285 1355 1285 c 0,25,26
 1385 1285 1385 1285 1412 1270 c 1,27,28
 1366 1455 1366 1455 1160 1455 c 0,29,30
 987 1455 987 1455 840 1320 c 0,31,32
 670 1165 670 1165 562 755 c 0,33,34
 503 532 503 532 503 380 c 0,35,36
 503 266 503 266 536 192 c 0,37,38
 598 55 598 55 762 55 c 0,39,40
 929 55 929 55 1049 182 c 0,41,42
 1130 269 1130 269 1160 379 c 0,43,44
 1172 423 1172 423 1172 458 c 0,45,46
 1172 600 1172 600 982 600 c 2,47,-1
 973 600 l 2,48,49
 949 600 949 600 949 617 c 0,50,51
 949 622 949 622 951 630 c 2,52,-1
 959 660 l 2,53,54
 967 690 967 690 997 690 c 2,55,-1
 1192 690 l 2,56,57
 1384 690 1384 690 1384 550 c 0,58,59
 1384 515 1384 515 1372 472 c 0,60,61
 1327 304 1327 304 1169 160 c 0,62,63
 971 -20 971 -20 755 -20 c 0,0,1
EndSplineSet
Validated: 1
EndChar

StartChar: H
Encoding: 72 72 42
Width: 1417
GlyphClass: 2
Flags: W
HStem: -20 107<112.165 263.452 1128.5 1323.04> 600 90<625 1138> 1423 107<499.161 695 1558.55 1709.83>
VStem: 74 25<128.961 200> 599 197<1184.41 1421.26> 1025 198<88.5154 328.148> 1723 25<1310 1381.04>
DStem2: 235.051 -20 434.601 -20 0.258819 0.965926<109.651 693.589 786.734 1428.44> 971.601 -20 1172.05 -20 0.258819 0.965926<228.009 641.941 735.086 1546.8>
LayerCount: 2
Fore
SplineSet
227 -20 m 0,0,1
 120 -20 120 -20 85 71 c 0,2,3
 74 100 74 100 74 133 c 0,4,5
 74 165 74 165 84 200 c 1,6,-1
 99 200 l 1,7,8
 99 87 99 87 179 87 c 0,9,10
 264 87 264 87 294 200 c 2,11,-1
 591 1310 l 2,12,13
 599 1340 599 1340 599 1362 c 0,14,15
 599 1423 599 1423 537 1423 c 0,16,17
 455 1423 455 1423 396 1310 c 1,18,-1
 381 1310 l 1,19,20
 400 1386 400 1386 448 1440 c 0,21,22
 528 1530 528 1530 642 1530 c 0,23,24
 748 1530 748 1530 785 1438 c 0,25,26
 796 1411 796 1411 796 1373 c 0,27,28
 796 1327 796 1327 781 1271 c 2,29,-1
 625 690 l 1,30,-1
 1162 690 l 1,31,-1
 1318 1271 l 2,32,33
 1352 1397 1352 1397 1400 1448 c 0,34,35
 1476 1530 1476 1530 1595 1530 c 0,36,37
 1702 1530 1702 1530 1737 1439 c 0,38,39
 1748 1410 1748 1410 1748 1377 c 0,40,41
 1748 1345 1748 1345 1738 1310 c 1,42,-1
 1723 1310 l 1,43,44
 1723 1423 1723 1423 1643 1423 c 0,45,46
 1558 1423 1558 1423 1528 1310 c 2,47,-1
 1231 200 l 2,48,49
 1223 170 1223 170 1223 148 c 0,50,51
 1223 87 1223 87 1284 87 c 0,52,53
 1366 87 1366 87 1426 200 c 1,54,-1
 1441 200 l 1,55,56
 1422 125 1422 125 1372 69 c 0,57,58
 1293 -20 1293 -20 1184 -20 c 0,59,60
 1073 -20 1073 -20 1036 72 c 0,61,62
 1025 99 1025 99 1025 135 c 0,63,64
 1025 179 1025 179 1041 239 c 2,65,-1
 1138 600 l 1,66,-1
 601 600 l 1,67,-1
 504 239 l 2,68,69
 470 113 470 113 422 62 c 0,70,71
 346 -20 346 -20 227 -20 c 0,0,1
EndSplineSet
Validated: 1
EndChar

StartChar: I
Encoding: 73 73 43
Width: 680
GlyphClass: 2
Flags: W
HStem: -20 107<112.165 263.32> 1490 20G<669.5 814.5>
VStem: 74 25<128.961 200>
DStem2: 235.051 -20 434.601 -20 0.258819 0.965926<109.607 1595.59>
LayerCount: 2
Fore
SplineSet
227 -20 m 0,0,1
 120 -20 120 -20 85 71 c 0,2,3
 74 100 74 100 74 133 c 0,4,5
 74 165 74 165 84 200 c 1,6,-1
 99 200 l 1,7,8
 99 87 99 87 179 87 c 0,9,10
 264 87 264 87 294 200 c 10,11,-1
 631 1460 l 2,12,13
 644 1510 644 1510 695 1510 c 2,14,-1
 795 1510 l 2,15,16
 834 1510 834 1510 834 1479 c 0,17,18
 834 1471 834 1471 831 1460 c 2,19,-1
 504 239 l 2,20,21
 470 113 470 113 422 62 c 0,22,23
 345 -20 345 -20 227 -20 c 0,0,1
EndSplineSet
Validated: 1
EndChar

StartChar: J
Encoding: 74 74 44
Width: 1128
GlyphClass: 2
Flags: W
HStem: -20 75<244.683 534.438> 146 264<185.844 332.809> 1423 107<951.533 1142.25>
VStem: 95 277<185.707 360.346> 1047 197<1180.12 1421.26>
DStem2: 682.269 -20 882.269 -20 0.258819 0.965926<355.884 1428.64>
LayerCount: 2
Fore
SplineSet
384 -20 m 0,0,1
 221 -20 221 -20 140 88 c 0,2,3
 95 146 95 146 95 226 c 0,4,5
 95 264 95 264 106 299 c 0,6,7
 120 341 120 341 147 369 c 0,8,9
 187 410 187 410 243 410 c 0,10,11
 297 410 297 410 334.5 371.5 c 128,-1,12
 372 333 372 333 372 278 c 128,-1,13
 372 223 372 223 334 184.5 c 128,-1,14
 296 146 296 146 242 146 c 0,15,16
 212 146 212 146 185 161 c 1,17,18
 241 55 241 55 379 55 c 0,19,20
 548 55 548 55 670 201 c 0,21,22
 775 326 775 326 835 550 c 2,23,-1
 1039 1310 l 18,24,25
 1047 1340 1047 1340 1047 1362 c 0,26,27
 1047 1423 1047 1423 985 1423 c 0,28,29
 903 1423 903 1423 844 1310 c 1,30,-1
 829 1310 l 1,31,32
 848 1382 848 1382 900 1439 c 0,33,34
 981 1530 981 1530 1088.5 1530 c 128,-1,35
 1196 1530 1196 1530 1233 1438 c 0,36,37
 1244 1411 1244 1411 1244 1373 c 0,38,39
 1244 1327 1244 1327 1229 1271 c 10,40,-1
 1035 550 l 2,41,42
 958 264 958 264 759 116 c 0,43,44
 576 -20 576 -20 384 -20 c 0,0,1
EndSplineSet
Validated: 1
EndChar

StartChar: K
Encoding: 75 75 45
Width: 1440
GlyphClass: 2
Flags: W
HStem: -283 133<1121.5 1345.35> -39 20G<1478.5 1505> -20 107<112.165 263.452> 1423 107<503.511 693>
VStem: 74 25<128.961 200> 599 198<1181.42 1421.52> 1272 259<1297.72 1490.29>
DStem2: 164.581 -283 364.131 -283 0.258819 0.965926<381.929 843.827 948.151 1700.72> 1155 414 952 341 0.131589 -0.991304<-122.761 565.344>
LayerCount: 2
Fore
SplineSet
227 -20 m 0,0,1
 120 -20 120 -20 85 71 c 0,2,3
 74 100 74 100 74 133 c 0,4,5
 74 165 74 165 84 200 c 1,6,-1
 99 200 l 1,7,8
 99 87 99 87 179 87 c 0,9,10
 264 87 264 87 294 200 c 2,11,-1
 591 1310 l 2,12,13
 599 1340 599 1340 599 1362 c 0,14,15
 599 1423 599 1423 537 1423 c 0,16,17
 455 1423 455 1423 396 1310 c 1,18,-1
 381 1310 l 1,19,20
 399 1380 399 1380 452 1439 c 0,21,22
 533 1530 533 1530 640 1530 c 0,23,24
 746 1530 746 1530 785 1438 c 0,25,26
 797 1410 797 1410 797 1373 c 0,27,28
 797 1331 797 1331 781 1271 c 2,29,-1
 596 583 l 1,30,31
 1144 847 1144 847 1382 1268 c 1,32,33
 1340 1274 1340 1274 1310 1304 c 0,34,35
 1272 1343 1272 1343 1272 1398 c 128,-1,36
 1272 1453 1272 1453 1310 1491.5 c 128,-1,37
 1348 1530 1348 1530 1402 1530 c 128,-1,38
 1456 1530 1456 1530 1493.5 1491.5 c 128,-1,39
 1531 1453 1531 1453 1531 1398 c 0,40,41
 1531 1374 1531 1374 1523 1347 c 0,42,43
 1511 1306 1511 1306 1473 1244 c 0,44,45
 1252 883 1252 883 901 661 c 1,46,47
 1122 661 1122 661 1155 414 c 2,48,-1
 1215 -38 l 2,49,50
 1230 -150 1230 -150 1316 -150 c 0,51,52
 1373 -150 1373 -150 1417 -112 c 0,53,54
 1462 -73 1462 -73 1495 -19 c 1,55,-1
 1505 -19 l 1,56,57
 1461 -138 1461 -138 1381 -210.5 c 128,-1,58
 1301 -283 1301 -283 1207 -283 c 0,59,60
 1036 -283 1036 -283 1011 -95 c 2,61,-1
 952 341 l 2,62,63
 925 544 925 544 780 544 c 0,64,65
 583 544 583 544 512 270 c 2,66,-1
 504 239 l 2,67,68
 472 116 472 116 422 62 c 0,69,70
 346 -20 346 -20 227 -20 c 0,0,1
EndSplineSet
Validated: 1
EndChar

StartChar: L
Encoding: 76 76 46
Width: 1218
GlyphClass: 2
Flags: W
HStem: -20 107<112.077 263.382> -20 74<739.532 1056.33> 36 81<447.536 769.769> 1100 264<1200.19 1347.16> 1455 75<998.562 1288.32>
VStem: 74 25<128.961 200> 992 259<158.188 349.293> 1161 277<1149.65 1324.29>
DStem2: 235.051 -20 434.601 -20 0.258819 0.965926<178.209 1299.85>
LayerCount: 2
Fore
SplineSet
225 -20 m 0,0,1
 120 -20 120 -20 85 71 c 0,2,3
 74 100 74 100 74 133 c 0,4,5
 74 165 74 165 84 200 c 1,6,-1
 99 200 l 1,7,8
 99 87 99 87 179 87 c 0,9,10
 264 87 264 87 294 200 c 2,11,-1
 497 960 l 2,12,13
 573 1245 573 1245 774 1394 c 0,14,15
 957 1530 957 1530 1149 1530 c 0,16,17
 1312 1530 1312 1530 1393 1422 c 0,18,19
 1438 1364 1438 1364 1438 1284 c 0,20,21
 1438 1246 1438 1246 1427 1211 c 0,22,23
 1413 1169 1413 1169 1386 1141 c 0,24,25
 1346 1100 1346 1100 1290 1100 c 0,26,27
 1236 1100 1236 1100 1198.5 1138.5 c 128,-1,28
 1161 1177 1161 1177 1161 1232 c 128,-1,29
 1161 1287 1161 1287 1199 1325.5 c 128,-1,30
 1237 1364 1237 1364 1291 1364 c 0,31,32
 1321 1364 1321 1364 1348 1349 c 1,33,34
 1292 1455 1292 1455 1154 1455 c 0,35,36
 985 1455 985 1455 863 1309 c 0,37,38
 756 1181 756 1181 697 960 c 2,39,-1
 504 239 l 2,40,41
 483 159 483 159 446 106 c 1,42,43
 500 117 500 117 563 117 c 0,44,45
 675 117 675 117 755 85 c 0,46,47
 833 54 833 54 915 54 c 0,48,49
 1034 54 1034 54 1100 127 c 1,50,51
 1060 133 1060 133 1030 164 c 0,52,53
 992 202 992 202 992 257 c 128,-1,54
 992 312 992 312 1030 350.5 c 128,-1,55
 1068 389 1068 389 1122 389 c 128,-1,56
 1176 389 1176 389 1213.5 350.5 c 128,-1,57
 1251 312 1251 312 1251 257 c 0,58,59
 1251 236 1251 236 1244 208 c 0,60,61
 1215 103 1215 103 1123 41 c 0,62,63
 1033 -20 1033 -20 904 -20 c 0,64,65
 823 -20 823 -20 686 15 c 0,66,67
 606 36 606 36 525 36 c 0,68,69
 458 36 458 36 376.5 8 c 128,-1,70
 295 -20 295 -20 225 -20 c 0,0,1
EndSplineSet
Validated: 1
EndChar

StartChar: M
Encoding: 77 77 47
Width: 1966
GlyphClass: 2
Flags: W
HStem: -20 107<1703 1892.25> -20 82<96.6119 235.152> 1423 107<617.009 827.5> 1442 88<1958 2106.57>
VStem: 47 32<105.664 196.207> 1608 198<87.9943 587.984> 2121 32<1311.87 1402.52>
DStem2: 293 200 393 200 0.382326 0.924027<-160.365 994.845> 918 1371 719 1339 0.164515 -0.986375<-90.6678 77.9014 258.247 1075.17> 1092 310 964 -40 0.562581 0.826742<0 952.219> 1614 239 1808 200 0.108753 0.994069<-49.2624 811.893>
LayerCount: 2
Fore
SplineSet
161 -20 m 0,0,1
 69 -20 69 -20 50 67 c 0,2,3
 47 81 47 81 47 98 c 0,4,5
 47 139 47 139 64 200 c 1,6,-1
 79 200 l 1,7,8
 80 62 80 62 158 62 c 128,-1,9
 236 62 236 62 293 200 c 2,10,-1
 732 1261 l 1,11,-1
 719 1339 l 2,12,13
 705 1423 705 1423 643 1423 c 0,14,15
 572 1423 572 1423 512 1310 c 1,16,-1
 498 1310 l 1,17,18
 517 1385 517 1385 567 1441 c 0,19,20
 646 1530 646 1530 763 1530 c 0,21,22
 892 1530 892 1530 918 1371 c 2,23,-1
 1092 310 l 1,24,-1
 1833 1387 l 2,25,26
 1931 1530 1931 1530 2039 1530 c 0,27,28
 2130 1530 2130 1530 2149 1450 c 0,29,30
 2153 1433 2153 1433 2153 1412 c 0,31,32
 2153 1370 2153 1370 2137 1310 c 1,33,-1
 2121 1310 l 1,34,35
 2121 1442 2121 1442 2045 1442 c 0,36,37
 1981 1442 1981 1442 1936 1370 c 1,38,-1
 1808 200 l 2,39,40
 1806 182 1806 182 1806 168 c 0,41,42
 1806 87 1806 87 1861 87 c 0,43,44
 1935 87 1935 87 1996 200 c 1,45,-1
 2010 200 l 1,46,47
 1990 122 1990 122 1941 69 c 0,48,49
 1861 -20 1861 -20 1761 -20 c 0,50,51
 1645 -20 1645 -20 1615 77 c 0,52,53
 1608 100 1608 100 1608 143 c 0,54,55
 1608 185 1608 185 1614 239 c 2,56,-1
 1703 1046 l 1,57,-1
 964 -40 l 1,58,-1
 949 -40 l 1,59,-1
 761 1083 l 1,60,-1
 393 200 l 2,61,62
 349 94 349 94 309 51 c 0,63,64
 245 -20 245 -20 161 -20 c 0,0,1
EndSplineSet
Validated: 1
EndChar

StartChar: N
Encoding: 78 78 48
Width: 1534
GlyphClass: 2
Flags: W
HStem: -20 82<129.222 277.938> 1407 123<498.795 685.5> 1448 82<1672.06 1820.78>
VStem: 78 32<108.124 196.207> 1840 32<1313.79 1401.88>
DStem2: 259.692 -40 359.692 -40 0.258819 0.965926<107.672 1268.15> 771 1437 681 1160 0.427827 -0.90386<211.865 1172.34> 1163.73 -40 1264 -40 0.258819 0.965926<433.781 1564.44>
LayerCount: 2
Fore
SplineSet
204 -20 m 0,0,1
 100 -20 100 -20 81 67 c 0,2,3
 78 81 78 81 78 98 c 0,4,5
 78 139 78 139 95 200 c 1,6,-1
 110 200 l 1,7,8
 111 62 111 62 195 62 c 0,9,10
 287 62 287 62 324 200 c 2,11,-1
 616 1290 l 1,12,13
 582 1407 582 1407 520 1407 c 0,14,15
 451 1407 451 1407 395 1310 c 1,16,-1
 381 1310 l 1,17,18
 400 1386 400 1386 453 1444 c 0,19,20
 529 1530 529 1530 644 1530 c 0,21,22
 727 1530 727 1530 771 1437 c 2,23,-1
 1276 379 l 1,24,-1
 1526 1310 l 2,25,26
 1553 1411 1553 1411 1590 1454 c 0,27,28
 1655 1530 1655 1530 1746 1530 c 0,29,30
 1850 1530 1850 1530 1869 1443 c 0,31,32
 1872 1429 1872 1429 1872 1412 c 0,33,34
 1872 1371 1872 1371 1855 1310 c 1,35,-1
 1840 1310 l 1,36,37
 1839 1448 1839 1448 1755 1448 c 0,38,39
 1663 1448 1663 1448 1626 1310 c 2,40,-1
 1264 -40 l 1,41,-1
 1249 -40 l 1,42,-1
 681 1160 l 1,43,-1
 424 200 l 2,44,45
 397 98 397 98 360 56 c 0,46,47
 295 -20 295 -20 204 -20 c 0,0,1
EndSplineSet
Validated: 1
EndChar

StartChar: P
Encoding: 80 80 49
Width: 1416
GlyphClass: 2
Flags: W
HStem: -20 107<162.165 313.32> 458 70<735.887 1027> 1440 90<834.168 1234.13>
VStem: 124 25<128.961 200> 1351 223<926.132 1326.24>
DStem2: 285.051 -20 484.601 -20 0.258819 0.965926<109.607 641.669 705.455 1274.67>
LayerCount: 2
Fore
SplineSet
277 -20 m 0,0,1
 170 -20 170 -20 135 71 c 0,2,3
 124 100 124 100 124 133 c 0,4,5
 124 165 124 165 134 200 c 1,6,-1
 149 200 l 1,7,8
 149 87 149 87 229 87 c 0,9,10
 314 87 314 87 344 200 c 2,11,-1
 598 1150 l 2,12,13
 611 1200 611 1200 662 1200 c 2,14,-1
 762 1200 l 2,15,16
 801 1200 801 1200 801 1169 c 0,17,18
 801 1160 801 1160 798 1150 c 2,19,-1
 666 657 l 1,20,21
 709 528 709 528 868 528 c 0,22,23
 1025 528 1025 528 1142 642 c 0,24,25
 1265 763 1265 763 1327 994 c 0,26,27
 1351 1083 1351 1083 1351 1156 c 0,28,29
 1351 1238 1351 1238 1321 1302 c 0,30,31
 1255 1440 1255 1440 1033 1440 c 0,32,33
 676 1440 676 1440 316 1047 c 1,34,-1
 302 1053 l 1,35,36
 624 1530 624 1530 1111 1530 c 0,37,38
 1377 1530 1377 1530 1497 1377 c 0,39,40
 1574 1279 1574 1279 1574 1146 c 0,41,42
 1574 1076 1574 1076 1553 996 c 0,43,44
 1498 792 1498 792 1349 652 c 0,45,46
 1141 458 1141 458 901 458 c 0,47,48
 713 458 713 458 637 550 c 1,49,-1
 554 239 l 2,50,51
 520 113 520 113 472 62 c 0,52,53
 395 -20 395 -20 277 -20 c 0,0,1
EndSplineSet
Validated: 1
EndChar

StartChar: R
Encoding: 82 82 50
Width: 1479
GlyphClass: 2
Flags: W
HStem: -283 133<1164 1384.76> -39 20G<1517.5 1544> -20 107<162.165 313.452> 1440 90<834.168 1234.13>
VStem: 124 25<128.961 200> 1351 223<925.99 1326.24>
DStem2: 214.581 -283 414.131 -283 0.258819 0.965926<381.929 913.946 977.733 1546.95> 1199 281 990 255 0.168964 -0.985622<-140.29 435.229>
LayerCount: 2
Fore
SplineSet
277 -20 m 0,0,1
 170 -20 170 -20 135 71 c 0,2,3
 124 100 124 100 124 133 c 0,4,5
 124 165 124 165 134 200 c 1,6,-1
 149 200 l 1,7,8
 149 87 149 87 229 87 c 0,9,10
 314 87 314 87 344 200 c 2,11,-1
 598 1150 l 2,12,13
 611 1200 611 1200 662 1200 c 2,14,-1
 762 1200 l 2,15,16
 801 1200 801 1200 801 1169 c 0,17,18
 801 1161 801 1161 798 1150 c 2,19,-1
 666 657 l 1,20,21
 709 528 709 528 868 528 c 0,22,23
 1025 528 1025 528 1142 642 c 0,24,25
 1265 763 1265 763 1327 994 c 0,26,27
 1351 1083 1351 1083 1351 1156 c 0,28,29
 1351 1238 1351 1238 1321 1302 c 0,30,31
 1255 1440 1255 1440 1033 1440 c 0,32,33
 676 1440 676 1440 316 1047 c 1,34,-1
 302 1053 l 1,35,36
 624 1530 624 1530 1111 1530 c 0,37,38
 1377 1530 1377 1530 1497 1377 c 0,39,40
 1574 1279 1574 1279 1574 1146 c 0,41,42
 1574 1076 1574 1076 1553 996 c 0,43,44
 1498 791 1498 791 1349 652 c 0,45,46
 1190 504 1190 504 1013 469 c 1,47,48
 1172 439 1172 439 1199 281 c 2,49,-1
 1254 -38 l 2,50,51
 1273 -150 1273 -150 1355 -150 c 0,52,53
 1410 -150 1410 -150 1455.5 -111.5 c 128,-1,54
 1501 -73 1501 -73 1534 -19 c 1,55,-1
 1544 -19 l 1,56,57
 1500 -138 1500 -138 1420 -210.5 c 128,-1,58
 1340 -283 1340 -283 1246 -283 c 0,59,60
 1082 -283 1082 -283 1050 -95 c 2,61,-1
 990 255 l 2,62,63
 958 443 958 443 819 463 c 0,64,65
 695 481 695 481 637 550 c 1,66,-1
 554 239 l 2,67,68
 521 114 521 114 472 62 c 0,69,70
 396 -20 396 -20 277 -20 c 0,0,1
EndSplineSet
Validated: 1
EndChar

StartChar: S
Encoding: 83 83 51
Width: 1261
GlyphClass: 2
Flags: W
HStem: -20 75<423.384 777.33> 228 264<292.844 439.809> 1096 264<1115.19 1261.83> 1455 75<894.541 1196.85>
VStem: 202 277<267.707 442.346> 531 196<1048.96 1265.59> 1068 210<380.199 636.297> 1076 280<1146.93 1320.29>
DStem2: 864 980 742 812 0.898429 -0.43912<-149.802 311.539>
LayerCount: 2
Fore
SplineSet
596 -20 m 0,0,1
 384 -20 384 -20 286 98 c 0,2,3
 202 198 202 198 202 308 c 0,4,5
 202 346 202 346 213 381 c 0,6,7
 227 423 227 423 254 451 c 0,8,9
 294 492 294 492 350 492 c 0,10,11
 404 492 404 492 441.5 453.5 c 128,-1,12
 479 415 479 415 479 360 c 128,-1,13
 479 305 479 305 441 266.5 c 128,-1,14
 403 228 403 228 349 228 c 0,15,16
 319 228 319 228 292 243 c 1,17,18
 367 55 367 55 594 55 c 0,19,20
 784 55 784 55 915 187 c 0,21,22
 1019 291 1019 291 1056 424 c 0,23,24
 1068 467 1068 467 1068 506 c 0,25,26
 1068 650 1068 650 899 734 c 2,27,-1
 742 812 l 2,28,29
 531 917 531 917 531 1091 c 0,30,31
 531 1137 531 1137 545 1189 c 0,32,33
 583 1331 583 1331 730 1438 c 0,34,35
 857 1530 857 1530 1041 1530 c 0,36,37
 1273 1530 1273 1530 1342 1353 c 0,38,39
 1356 1317 1356 1317 1356 1280 c 0,40,41
 1356 1237 1356 1237 1345 1206 c 0,42,43
 1332 1168 1332 1168 1304 1138 c 0,44,45
 1263 1096 1263 1096 1205 1096 c 0,46,47
 1151 1096 1151 1096 1113.5 1134.5 c 128,-1,48
 1076 1173 1076 1173 1076 1228 c 128,-1,49
 1076 1283 1076 1283 1114 1321.5 c 128,-1,50
 1152 1360 1152 1360 1206 1360 c 0,51,52
 1236 1360 1236 1360 1263 1345 c 1,53,54
 1200 1455 1200 1455 1061 1455 c 0,55,56
 933 1455 933 1455 848 1390 c 0,57,58
 765 1326 765 1326 735 1222 c 0,59,60
 727 1194 727 1194 727 1168 c 0,61,62
 727 1047 727 1047 864 980 c 2,63,-1
 1042 893 l 2,64,65
 1278 778 1278 778 1278 580 c 0,66,67
 1278 516 1278 516 1263 460 c 0,68,69
 1210 261 1210 261 1008 113 c 0,70,71
 827 -20 827 -20 596 -20 c 0,0,1
EndSplineSet
Validated: 1
EndChar

StartChar: T
Encoding: 84 84 52
Width: 1296
GlyphClass: 2
Flags: W
HStem: -20 107<442.165 593.32> 1420 90<787.746 1471.75>
VStem: 404 25<128.961 200> 1344 275<1202.12 1379.78>
DStem2: 565.051 -20 764.601 -20 0.258819 0.965926<109.607 1274.67>
LayerCount: 2
Fore
SplineSet
1044 1510 m 2,0,1
 1389 1510 l 2,2,3
 1501 1510 1501 1510 1563 1452 c 0,4,5
 1619 1400 1619 1400 1619 1330 c 0,6,7
 1619 1295 1619 1295 1610 1266 c 0,8,9
 1598 1226 1598 1226 1569 1196 c 0,10,11
 1529 1155 1529 1155 1473 1155 c 0,12,13
 1419 1155 1419 1155 1381.5 1193.5 c 128,-1,14
 1344 1232 1344 1232 1344 1287 c 128,-1,15
 1344 1342 1344 1342 1382 1381 c 0,16,17
 1416 1416 1416 1416 1474 1418 c 1,18,-1
 1474 1420 l 1,19,-1
 1011 1420 l 2,20,21
 638 1420 638 1420 299 1025 c 1,22,-1
 287 1033 l 1,23,24
 590 1510 590 1510 1044 1510 c 2,0,1
557 -20 m 0,25,26
 450 -20 450 -20 415 71 c 0,27,28
 404 100 404 100 404 133 c 0,29,30
 404 165 404 165 414 200 c 1,31,-1
 429 200 l 1,32,33
 429 87 429 87 509 87 c 0,34,35
 594 87 594 87 624 200 c 2,36,-1
 878 1150 l 2,37,38
 891 1200 891 1200 942 1200 c 2,39,-1
 1042 1200 l 2,40,41
 1081 1200 1081 1200 1081 1169 c 0,42,43
 1081 1161 1081 1161 1078 1150 c 2,44,-1
 834 239 l 2,45,46
 800 113 800 113 752 62 c 0,47,48
 675 -20 675 -20 557 -20 c 0,25,26
EndSplineSet
Validated: 1
EndChar

StartChar: U
Encoding: 85 85 53
Width: 1480
GlyphClass: 2
Flags: W
HStem: -20 119<610.567 877.007 1211.57 1384.59> 1423 107<499.985 694> 1490 20G<1469.5 1614.5>
VStem: 341 202<165.235 539.383> 599 197<1174.06 1421.26> 1088 198<88.6188 276.173>
DStem2: 234.987 -20 434.523 -20 0.258819 0.965926<397.009 1428.46> 1037.76 -20 1235.05 -20 0.258819 0.965926<284.102 1595.79>
LayerCount: 2
Fore
SplineSet
675 -20 m 0,0,1
 438 -20 438 -20 361 166 c 0,2,3
 341 214 341 214 341 284 c 0,4,5
 341 375 341 375 377 510 c 2,6,-1
 591 1310 l 2,7,8
 599 1340 599 1340 599 1362 c 0,9,10
 599 1423 599 1423 537 1423 c 0,11,12
 455 1423 455 1423 396 1310 c 1,13,-1
 381 1310 l 1,14,15
 399 1384 399 1384 450 1440 c 0,16,17
 530 1530 530 1530 640 1530 c 0,18,19
 748 1530 748 1530 785 1438 c 0,20,21
 796 1411 796 1411 796 1373 c 0,22,23
 796 1327 796 1327 781 1271 c 2,24,-1
 576 508 l 2,25,26
 543 385 543 385 543 306 c 0,27,28
 543 276 543 276 548 251 c 0,29,30
 576 99 576 99 765 99 c 0,31,32
 946 99 946 99 1068 266 c 0,33,34
 1137 361 1137 361 1177 510 c 2,35,-1
 1431 1460 l 2,36,37
 1444 1510 1444 1510 1495 1510 c 2,38,-1
 1595 1510 l 2,39,40
 1634 1510 1634 1510 1634 1479 c 0,41,42
 1634 1471 1634 1471 1631 1460 c 2,43,-1
 1294 200 l 2,44,45
 1286 170 1286 170 1286 148 c 0,46,47
 1286 87 1286 87 1347 87 c 0,48,49
 1429 87 1429 87 1489 200 c 1,50,-1
 1504 200 l 1,51,52
 1482 122 1482 122 1435 69 c 0,53,54
 1355 -20 1355 -20 1246 -20 c 128,-1,55
 1137 -20 1137 -20 1099 72 c 0,56,57
 1088 98 1088 98 1088 132 c 0,58,59
 1088 169 1088 169 1101 216 c 1,60,61
 1072 168 1072 168 1015 116 c 0,62,63
 866 -20 866 -20 675 -20 c 0,0,1
EndSplineSet
Validated: 1
EndChar

StartChar: V
Encoding: 86 86 54
Width: 1445
GlyphClass: 2
Flags: W
HStem: -20 119<619.34 919.271> 1383 147<508.557 707>
VStem: 340 202<170.831 532.484> 587 210<1166.56 1397.5> 1410 171<826.457 1149.65>
DStem2: 234.987 -20 434.523 -20 0.258819 0.965926<396.631 1384.66>
LayerCount: 2
Fore
SplineSet
698 -20 m 0,0,1
 438 -20 438 -20 361 166 c 0,2,3
 340 217 340 217 340 285 c 0,4,5
 340 372 340 372 377 510 c 2,6,-1
 578 1260 l 2,7,8
 587 1294 587 1294 587 1320 c 0,9,10
 587 1383 587 1383 527 1383 c 0,11,12
 451 1383 451 1383 383 1260 c 1,13,-1
 368 1260 l 1,14,15
 396 1364 396 1364 456 1436 c 0,16,17
 535 1530 535 1530 651 1530 c 0,18,19
 763 1530 763 1530 791 1433 c 0,20,21
 797 1412 797 1412 797 1383 c 0,22,23
 797 1332 797 1332 778 1261 c 2,24,-1
 576 508 l 2,25,26
 542 381 542 381 542 306 c 0,27,28
 542 274 542 274 548 251 c 0,29,30
 586 99 586 99 778 99 c 0,31,32
 997 99 997 99 1185 325 c 0,33,34
 1313 479 1313 479 1382 736 c 0,35,36
 1410 839 1410 839 1410 930 c 0,37,38
 1410 1030 1410 1030 1387 1097 c 0,39,40
 1353 1201 1353 1201 1279 1278 c 0,41,42
 1234 1325 1234 1325 1234 1382 c 0,43,44
 1234 1409 1234 1409 1243 1436 c 0,45,46
 1256 1477 1256 1477 1287 1500 c 0,47,48
 1327 1530 1327 1530 1384 1530 c 0,49,50
 1487 1530 1487 1530 1532 1418 c 0,51,52
 1581 1299 1581 1299 1581 1139 c 0,53,54
 1581 994 1581 994 1536 826 c 0,55,56
 1455 525 1455 525 1288 318 c 0,57,58
 1015 -20 1015 -20 698 -20 c 0,0,1
EndSplineSet
Validated: 1
EndChar

StartChar: W
Encoding: 87 87 55
Width: 2245
GlyphClass: 2
Flags: W
HStem: -20 119<610.688 886.547 1418.97 1718.6> 1423 107<500.32 695> 1490 20G<1469.5 1614.5>
VStem: 340 203<165.235 533.422> 599 197<1174.06 1421.26> 2210 171<826.457 1149.65>
DStem2: 234.987 -20 434.523 -20 0.258819 0.965926<397.009 1428.46> 1034.99 -20 1234.44 -20 0.258819 0.965926<396.631 1595.6>
LayerCount: 2
Fore
SplineSet
675 -20 m 0,0,1
 439 -20 439 -20 361 166 c 0,2,3
 340 216 340 216 340 284 c 0,4,5
 340 372 340 372 377 510 c 2,6,-1
 591 1310 l 2,7,8
 599 1340 599 1340 599 1362 c 0,9,10
 599 1423 599 1423 537 1423 c 0,11,12
 455 1423 455 1423 396 1310 c 1,13,-1
 381 1310 l 1,14,15
 399 1383 399 1383 451 1441 c 0,16,17
 530 1530 530 1530 642 1530 c 0,18,19
 748 1530 748 1530 785 1438 c 0,20,21
 796 1411 796 1411 796 1373 c 0,22,23
 796 1327 796 1327 781 1271 c 2,24,-1
 576 508 l 2,25,26
 543 385 543 385 543 306 c 0,27,28
 543 276 543 276 548 251 c 0,29,30
 576 99 576 99 765 99 c 0,31,32
 946 99 946 99 1068 266 c 0,33,34
 1137 361 1137 361 1177 510 c 2,35,-1
 1431 1460 l 2,36,37
 1444 1510 1444 1510 1495 1510 c 2,38,-1
 1595 1510 l 2,39,40
 1634 1510 1634 1510 1634 1479 c 0,41,42
 1634 1471 1634 1471 1631 1460 c 2,43,-1
 1376 508 l 2,44,45
 1342 381 1342 381 1342 306 c 0,46,47
 1342 274 1342 274 1348 251 c 0,48,49
 1386 99 1386 99 1578 99 c 0,50,51
 1795 99 1795 99 1985 325 c 0,52,53
 2112 476 2112 476 2182 736 c 0,54,55
 2210 839 2210 839 2210 930 c 0,56,57
 2210 1030 2210 1030 2187 1097 c 0,58,59
 2153 1201 2153 1201 2079 1278 c 0,60,61
 2034 1325 2034 1325 2034 1382 c 0,62,63
 2034 1409 2034 1409 2043 1436 c 0,64,65
 2056 1477 2056 1477 2087 1500 c 0,66,67
 2127 1530 2127 1530 2184 1530 c 0,68,69
 2287 1530 2287 1530 2332 1418 c 0,70,71
 2381 1299 2381 1299 2381 1139 c 0,72,73
 2381 994 2381 994 2336 826 c 0,74,75
 2255 525 2255 525 2088 318 c 0,76,77
 1814 -20 1814 -20 1498 -20 c 0,78,79
 1235 -20 1235 -20 1163 165 c 0,80,81
 1148 203 1148 203 1143 258 c 1,82,83
 1097 182 1097 182 1028 119 c 0,84,85
 876 -20 876 -20 675 -20 c 0,0,1
EndSplineSet
Validated: 1
EndChar

StartChar: X
Encoding: 88 88 56
Width: 1289
GlyphClass: 2
Flags: W
HStem: -20 107<996.5 1195.5> -20 91<115.21 315.192> 1423 107<499.897 702>
VStem: 72 27<121.391 200> 1322 259<1305.22 1490.29>
DStem2: 802 1387 615 1339 0.224391 -0.974499<-87.0331 815.194 880.196 931.07 1006.49 1339.97>
LayerCount: 2
Fore
SplineSet
172 -20 m 0,0,1
 90 -20 90 -20 75 74 c 0,2,3
 72 93 72 93 72 114 c 0,4,5
 72 154 72 154 84 200 c 1,6,-1
 99 200 l 1,7,8
 100 71 100 71 190 71 c 0,9,10
 235 71 235 71 308 109 c 0,11,12
 577 249 577 249 811 452 c 1,13,-1
 615 1339 l 2,14,15
 596 1423 596 1423 526 1423 c 0,16,17
 455 1423 455 1423 395 1310 c 1,18,-1
 381 1310 l 1,19,20
 399 1385 399 1385 450 1441 c 0,21,22
 531 1530 531 1530 634 1530 c 0,23,24
 770 1530 770 1530 802 1387 c 2,25,-1
 978 591 l 1,26,27
 1254 860 1254 860 1446 1268 c 1,28,29
 1396 1268 1396 1268 1360 1304 c 0,30,31
 1322 1343 1322 1343 1322 1398 c 128,-1,32
 1322 1453 1322 1453 1360 1491.5 c 128,-1,33
 1398 1530 1398 1530 1452 1530 c 128,-1,34
 1506 1530 1506 1530 1543.5 1491.5 c 128,-1,35
 1581 1453 1581 1453 1581 1398 c 0,36,37
 1581 1380 1581 1380 1576 1359 c 0,38,39
 1569 1327 1569 1327 1540 1264 c 0,40,41
 1329 805 1329 805 1000 500 c 1,42,-1
 1082 171 l 2,43,44
 1103 87 1103 87 1167 87 c 0,45,46
 1238 87 1238 87 1299 200 c 1,47,-1
 1313 200 l 1,48,49
 1292 123 1292 123 1245 70 c 0,50,51
 1165 -20 1165 -20 1063 -20 c 0,52,53
 930 -20 930 -20 895 123 c 2,54,-1
 836 362 l 1,55,56
 625 182 625 182 314 18 c 0,57,58
 242 -20 242 -20 172 -20 c 0,0,1
EndSplineSet
Validated: 1
EndChar

StartChar: Y
Encoding: 89 89 57
Width: 1420
GlyphClass: 2
Flags: W
HStem: -20 75<510.879 820.888> 146 264<449.844 596.809> 510 111<729.082 983.192> 1423 107<500.15 693.5> 1490 20G<1409.5 1554.5>
VStem: 359 277<185.707 360.346> 466 203<678.401 1006.53> 599 197<1174.11 1421.26>
DStem2: 235.128 -20 435.128 -20 0.258819 0.965926<907.83 1428.42> 974.269 -20 1174.27 -20 0.258819 0.965926<356.415 739.295 764.062 1595.68>
LayerCount: 2
Fore
SplineSet
663 -20 m 0,0,1
 489 -20 489 -20 404 88 c 0,2,3
 359 146 359 146 359 226 c 0,4,5
 359 264 359 264 370 299 c 0,6,7
 384 341 384 341 411 369 c 0,8,9
 451 410 451 410 507 410 c 0,10,11
 561 410 561 410 598.5 371.5 c 128,-1,12
 636 333 636 333 636 278 c 128,-1,13
 636 223 636 223 598 184.5 c 128,-1,14
 560 146 560 146 506 146 c 0,15,16
 476 146 476 146 449 161 c 1,17,18
 505 55 505 55 658 55 c 0,19,20
 833 55 833 55 962 201 c 0,21,22
 1064 316 1064 316 1127 550 c 2,23,-1
 1166 694 l 1,24,25
 1124 644 1124 644 1057 597 c 0,26,27
 932 510 932 510 772 510 c 0,28,29
 577 510 577 510 500 641 c 0,30,31
 466 699 466 699 466 780 c 0,32,33
 466 841 466 841 487 920 c 2,34,-1
 591 1310 l 2,35,36
 599 1340 599 1340 599 1362 c 0,37,38
 599 1423 599 1423 537 1423 c 0,39,40
 455 1423 455 1423 396 1310 c 1,41,-1
 381 1310 l 1,42,43
 399 1385 399 1385 450 1441 c 0,44,45
 531 1530 531 1530 639 1530 c 0,46,47
 748 1530 748 1530 785 1438 c 0,48,49
 796 1411 796 1411 796 1373 c 0,50,51
 796 1327 796 1327 781 1271 c 2,52,-1
 687 920 l 2,53,54
 669 853 669 853 669 802 c 0,55,56
 669 766 669 766 678 739 c 0,57,58
 718 621 718 621 877 621 c 0,59,60
 1032 621 1032 621 1141 740 c 0,61,62
 1195 799 1195 799 1227 920 c 2,63,-1
 1371 1460 l 2,64,65
 1384 1510 1384 1510 1435 1510 c 2,66,-1
 1535 1510 l 2,67,68
 1574 1510 1574 1510 1574 1479 c 0,69,70
 1574 1471 1574 1471 1571 1460 c 2,71,-1
 1327 550 l 2,72,73
 1250 264 1250 264 1051 116 c 0,74,75
 869 -20 869 -20 663 -20 c 0,0,1
EndSplineSet
Validated: 1
EndChar

StartChar: Z
Encoding: 90 90 58
Width: 1387
GlyphClass: 2
Flags: W
HStem: -20 83<667.573 1143.2> 37 92<458 747.69> 1380 93<1027.18 1286> 1447 83<676.797 1102.57>
VStem: 499 259<1160.71 1350.12> 1062 259<159.875 349.293>
DStem2: 98 -6 458 129 0.650791 0.759257<336.785 1825.47>
LayerCount: 2
Fore
SplineSet
105 -20 m 1,0,1
 98 -6 l 1,2,-1
 1286 1380 l 1,3,4
 1195 1380 1195 1380 1062 1416 c 0,5,6
 948 1447 948 1447 867 1447 c 0,7,8
 707 1447 707 1447 650 1383 c 1,9,10
 690 1377 690 1377 720 1346 c 0,11,12
 758 1308 758 1308 758 1253 c 128,-1,13
 758 1198 758 1198 720 1159.5 c 128,-1,14
 682 1121 682 1121 628 1121 c 128,-1,15
 574 1121 574 1121 536.5 1159.5 c 128,-1,16
 499 1198 499 1198 499 1253 c 0,17,18
 499 1278 499 1278 506 1306 c 0,19,20
 532 1404 532 1404 627 1469 c 0,21,22
 717 1530 717 1530 874 1530 c 0,23,24
 988 1530 988 1530 1140 1495 c 0,25,26
 1235 1473 1235 1473 1351 1473 c 0,27,28
 1483 1473 1483 1473 1636 1530 c 1,29,-1
 1642 1516 l 1,30,-1
 458 129 l 1,31,32
 580 129 580 129 708 94 c 0,33,34
 822 63 822 63 953 63 c 0,35,36
 1113 63 1113 63 1170 127 c 1,37,38
 1130 133 1130 133 1100 164 c 0,39,40
 1062 202 1062 202 1062 257 c 128,-1,41
 1062 312 1062 312 1100 350.5 c 128,-1,42
 1138 389 1138 389 1192 389 c 128,-1,43
 1246 389 1246 389 1283.5 350.5 c 128,-1,44
 1321 312 1321 312 1321 257 c 0,45,46
 1321 232 1321 232 1314 204 c 0,47,48
 1288 106 1288 106 1193 41 c 0,49,50
 1103 -20 1103 -20 946 -20 c 0,51,52
 802 -20 802 -20 658 13 c 0,53,54
 555 37 555 37 419 37 c 0,55,56
 258 37 258 37 105 -20 c 1,0,1
EndSplineSet
Validated: 1
EndChar

StartChar: bracketleft
Encoding: 91 91 59
Width: 765
GlyphClass: 2
Flags: W
HStem: -205 100<402 672.02> 1610 100<861 1158.02>
DStem2: 194.603 -205 375.205 -205 0.258819 0.965926<150.271 1925.63>
LayerCount: 2
Fore
SplineSet
758 1710 m 2,0,1
 1148 1710 l 2,2,3
 1167 1710 1167 1710 1167 1694 c 0,4,5
 1167 1689 1167 1689 1166 1685 c 2,6,-1
 1153 1635 l 2,7,8
 1146 1610 1146 1610 1121 1610 c 2,9,-1
 861 1610 l 1,10,-1
 402 -105 l 1,11,-1
 662 -105 l 2,12,13
 681 -105 681 -105 681 -120 c 0,14,15
 681 -126 681 -126 680 -130 c 2,16,-1
 667 -180 l 2,17,18
 660 -205 660 -205 635 -205 c 2,19,-1
 245 -205 l 2,20,21
 205 -205 205 -205 205 -174 c 0,22,23
 205 -166 205 -166 208 -155 c 2,24,-1
 695 1660 l 2,25,26
 708 1710 708 1710 758 1710 c 2,0,1
EndSplineSet
Validated: 1
EndChar

StartChar: backslash
Encoding: 92 92 60
Width: 1113
GlyphClass: 2
Flags: W
VStem: 437 648
DStem2: 1082 -45 959 -106 0.295325 -0.955397<-1752.35 16.4549>
LayerCount: 2
Fore
SplineSet
531 1662 m 0,0,1
 554 1662 554 1662 563 1634 c 2,2,-1
 1082 -45 l 2,3,4
 1085 -55 1085 -55 1085 -61.5 c 128,-1,5
 1085 -68 1085 -68 1083 -75 c 0,6,7
 1077 -97 1077 -97 1046 -113 c 2,8,-1
 1022 -125 l 2,9,10
 1004 -134 1004 -134 992 -134 c 0,11,12
 968 -134 968 -134 959 -106 c 2,13,-1
 440 1573 l 2,14,15
 437 1583 437 1583 437 1590 c 0,16,17
 437 1596 437 1596 439 1602 c 0,18,19
 446 1626 446 1626 476 1641 c 2,20,-1
 500 1653 l 2,21,22
 518 1662 518 1662 531 1662 c 0,0,1
EndSplineSet
Validated: 1
EndChar

StartChar: bracketright
Encoding: 93 93 61
Width: 765
GlyphClass: 2
Flags: W
HStem: -205 100<9.98047 307> 1610 100<495.98 766>
DStem2: 279.672 -205 460.275 -205 0.258819 0.965926<103.666 1879.03>
LayerCount: 2
Fore
SplineSet
923 1710 m 2,0,1
 963 1710 963 1710 963 1679 c 0,2,3
 963 1671 963 1671 960 1660 c 2,4,-1
 473 -155 l 2,5,6
 460 -205 460 -205 410 -205 c 2,7,-1
 20 -205 l 2,8,9
 1 -205 1 -205 1 -189 c 0,10,11
 1 -184 1 -184 2 -180 c 2,12,-1
 15 -130 l 2,13,14
 22 -105 22 -105 47 -105 c 2,15,-1
 307 -105 l 1,16,-1
 766 1610 l 1,17,-1
 506 1610 l 2,18,19
 487 1610 487 1610 487 1625 c 0,20,21
 487 1631 487 1631 488 1635 c 2,22,-1
 501 1685 l 2,23,24
 508 1710 508 1710 533 1710 c 2,25,-1
 923 1710 l 2,0,1
EndSplineSet
Validated: 1
EndChar

StartChar: asciicircum
Encoding: 94 94 62
Width: 692
GlyphClass: 2
Flags: W
HStem: 1040 490<777.062 841.137>
VStem: 342 600
DStem2: 354 1114 436 1059 0.643878 0.765128<-23.4762 416.723> 843 1480 697 1370 0.270256 -0.962788<66.4493 372.215>
LayerCount: 2
Fore
SplineSet
745 1530 m 2,0,1
 786 1530 l 2,2,3
 829 1530 829 1530 843 1480 c 2,4,-1
 939 1138 l 2,5,6
 942 1127 942 1127 942 1121 c 0,7,8
 942 1110 942 1110 937 1100 c 0,9,10
 924 1077 924 1077 903 1070 c 2,11,-1
 844 1050 l 2,12,13
 814 1040 814 1040 812 1040 c 0,14,15
 789 1040 789 1040 781 1068 c 2,16,-1
 697 1370 l 1,17,-1
 436 1059 l 2,18,19
 420 1040 420 1040 405 1040 c 0,20,21
 394 1040 394 1040 385 1046 c 2,22,-1
 355 1067 l 2,23,24
 342 1076 342 1076 342 1086 c 0,25,26
 342 1089 342 1089 343 1093 c 0,27,28
 347 1106 347 1106 354 1114 c 2,29,-1
 662 1480 l 2,30,31
 704 1530 704 1530 745 1530 c 2,0,1
EndSplineSet
Validated: 1
EndChar

StartChar: underscore
Encoding: 95 95 63
Width: 1233
GlyphClass: 2
Flags: W
HStem: -200 113<115.241 1040.76>
LayerCount: 2
Fore
SplineSet
167 -87 m 2,0,-1
 1020 -87 l 2,1,2
 1060 -87 1060 -87 1049 -127 c 2,3,4
 1040 -160 l 2,5,6
 1029 -200 1029 -200 989 -200 c 2,7,-1
 136 -200 l 2,8,9
 96 -200 96 -200 107 -160 c 2,10,-1
 116 -127 l 2,11,12
 127 -87 127 -87 167 -87 c 2,0,-1
EndSplineSet
Validated: 1
EndChar

StartChar: grave
Encoding: 96 96 64
Width: 444
GlyphClass: 2
Flags: W
HStem: 1160 324
VStem: 419 291
LayerCount: 2
Fore
SplineSet
522 1484 m 128,-1,1
 572 1484 572 1484 597 1428 c 2,2,-1
 710 1178 l 1,3,-1
 689 1160 l 1,4,-1
 474 1295 l 2,5,6
 419 1330 419 1330 419 1377 c 128,-1,7
 419 1424 419 1424 446 1454 c 0,8,0
 472 1484 472 1484 522 1484 c 128,-1,1
EndSplineSet
Validated: 1
EndChar

StartChar: a
Encoding: 97 97 65
Width: 1199
GlyphClass: 2
Flags: W
HStem: -20 75<499.022 725.24> 1045 75<744.369 981.565> 1080 20G<1118 1243.5>
VStem: 227 190<155.258 564.155>
DStem2: 793.373 -20 974.051 -20 0.258819 0.965926<222.892 934.363 1062.38 1171.24>
LayerCount: 2
Fore
SplineSet
612 55 m 4,0,1
 698 55 698 55 766 114 c 4,2,3
 849 186 849 186 884 319 c 6,4,-1
 1008 781 l 6,5,6
 1024 840 1024 840 1024 887 c 4,7,8
 1024 946 1024 946 999 986 c 4,9,10
 963 1045 963 1045 877 1045 c 4,11,12
 735 1045 735 1045 611 892 c 4,13,14
 518 777 518 777 458 550 c 4,15,16
 418 400 418 400 417 299 c 4,17,18
 417 247 417 247 428 208 c 4,19,20
 470 55 470 55 612 55 c 4,0,1
560 -20 m 4,21,22
 379 -20 379 -20 278 144 c 4,23,24
 227 227 227 227 227 345 c 4,25,26
 227 436 227 436 257 549 c 4,27,28
 323 794 323 794 495 956 c 4,29,30
 670 1120 670 1120 865 1120 c 4,31,32
 1028 1120 1028 1120 1069 1006 c 5,33,-1
 1080 1050 l 6,34,35
 1092 1100 1092 1100 1144 1100 c 6,36,-1
 1224 1100 l 6,37,38
 1263 1100 1263 1100 1263 1069 c 4,39,40
 1263 1061 1263 1061 1260 1050 c 6,41,-1
 1033 200 l 6,42,43
 1025 170 1025 170 1025 148 c 4,44,45
 1025 87 1025 87 1086 87 c 4,46,47
 1168 87 1168 87 1228 200 c 5,48,-1
 1243 200 l 5,49,50
 1223 122 1223 122 1173 67 c 4,51,52
 1096 -20 1096 -20 984 -20 c 4,53,54
 870 -20 870 -20 848 72 c 4,55,56
 843 93 843 93 843 116 c 5,57,58
 738 -20 738 -20 560 -20 c 4,21,22
EndSplineSet
Validated: 1
EndChar

StartChar: c
Encoding: 99 99 66
Width: 1078
GlyphClass: 2
Flags: W
HStem: -20 75<517.065 806.156> 690 264<956.191 1102.96> 1045 75<759.695 1048.11>
VStem: 229 193<162.463 566.064> 917 278<739.654 914.293>
LayerCount: 2
Fore
SplineSet
599 -20 m 0,0,1
 399 -20 399 -20 301 116 c 0,2,3
 229 217 229 217 229 358 c 0,4,5
 229 446 229 446 257 550 c 0,6,7
 333 834 333 834 534 984 c 0,8,9
 716 1120 716 1120 911 1120 c 0,10,11
 1066 1120 1066 1120 1149 1010 c 0,12,13
 1195 949 1195 949 1195 874 c 0,14,15
 1195 835 1195 835 1184 800 c 0,16,17
 1170 759 1170 759 1142 730 c 0,18,19
 1103 690 1103 690 1046 690 c 0,20,21
 992 690 992 690 954.5 728.5 c 128,-1,22
 917 767 917 767 917 822 c 128,-1,23
 917 877 917 877 955 915.5 c 128,-1,24
 993 954 993 954 1047 954 c 0,25,26
 1077 954 1077 954 1104 939 c 1,27,28
 1052 1045 1052 1045 918 1045 c 0,29,30
 747 1045 747 1045 623 899 c 0,31,32
 525 784 525 784 462 550 c 0,33,34
 422 401 422 401 422 302 c 0,35,36
 422 243 422 243 436 201 c 0,37,38
 485 55 485 55 665 55 c 0,39,40
 807 55 807 55 932 168 c 0,41,42
 963 196 963 196 992 229 c 1,43,-1
 1007 229 l 1,44,-1
 977 116 l 1,45,46
 811 -20 811 -20 599 -20 c 0,0,1
EndSplineSet
Validated: 1
EndChar

StartChar: d
Encoding: 100 100 67
Width: 1199
GlyphClass: 2
Flags: W
HStem: -20 75<498.88 725.24> 1045 75<744.799 981.565> 1423 107<1056.26 1254.5>
VStem: 227 190<155.26 564.246> 1158 181<1182.16 1421.54>
DStem2: 793.373 -20 974.051 -20 0.258819 0.965926<222.892 934.363 1062.38 1428.62>
LayerCount: 2
Fore
SplineSet
560 -20 m 0,0,1
 378 -20 378 -20 278 144 c 0,2,3
 227 227 227 227 227 346 c 0,4,5
 227 437 227 437 257 549 c 0,6,7
 323 797 323 797 495 956 c 0,8,9
 672 1120 672 1120 865 1120 c 0,10,11
 1028 1120 1028 1120 1069 1006 c 1,12,-1
 1150 1310 l 2,13,14
 1158 1340 1158 1340 1158 1362 c 0,15,16
 1158 1423 1158 1423 1096 1423 c 0,17,18
 1014 1423 1014 1423 955 1310 c 1,19,-1
 940 1310 l 1,20,21
 960 1388 960 1388 1010 1443 c 0,22,23
 1087 1530 1087 1530 1199 1530 c 0,24,25
 1310 1530 1310 1530 1334 1438 c 0,26,27
 1339 1419 1339 1419 1339 1394 c 0,28,29
 1339 1345 1339 1345 1320 1271 c 2,30,-1
 1033 200 l 2,31,32
 1025 170 1025 170 1025 148 c 0,33,34
 1025 87 1025 87 1086 87 c 0,35,36
 1168 87 1168 87 1228 200 c 1,37,-1
 1243 200 l 1,38,39
 1223 122 1223 122 1173 67 c 0,40,41
 1096 -20 1096 -20 983 -20 c 128,-1,42
 870 -20 870 -20 848 72 c 0,43,44
 843 93 843 93 843 116 c 1,45,46
 738 -20 738 -20 560 -20 c 0,0,1
612 55 m 0,47,48
 698 55 698 55 766 114 c 0,49,50
 849 186 849 186 884 319 c 2,51,-1
 1008 781 l 2,52,53
 1024 840 1024 840 1024 887 c 0,54,55
 1024 946 1024 946 999 986 c 0,56,57
 963 1045 963 1045 877 1045 c 0,58,59
 735 1045 735 1045 611 892 c 0,60,61
 518 777 518 777 458 550 c 0,62,63
 418 400 418 400 417 299 c 0,64,65
 417 247 417 247 428 208 c 0,66,67
 470 55 470 55 612 55 c 0,47,48
EndSplineSet
Validated: 1
EndChar

StartChar: e
Encoding: 101 101 68
Width: 1138
GlyphClass: 2
Flags: W
HStem: -20 75<515.44 806.906> 1055 65<749.272 969.992>
VStem: 229 190<162.463 433.998> 1042 191<644.969 969.625>
DStem2: 430 419 420 329 0.957781 0.287499<0 595.345>
LayerCount: 2
Fore
SplineSet
599 -20 m 0,0,1
 399 -20 399 -20 301 116 c 0,2,3
 229 217 229 217 229 358 c 0,4,5
 229 446 229 446 257 550 c 0,6,7
 329 817 329 817 534 984 c 0,8,9
 700 1120 700 1120 890 1120 c 0,10,11
 1084 1120 1084 1120 1176 990 c 0,12,13
 1233 910 1233 910 1233 814 c 0,14,15
 1233 766 1233 766 1219 714 c 0,16,17
 1177 556 1177 556 1003 504 c 2,18,-1
 420 329 l 1,19,20
 419 314 419 314 419 301 c 0,21,22
 419 243 419 243 433 201 c 0,23,24
 480 55 480 55 665 55 c 0,25,26
 810 55 810 55 932 168 c 0,27,28
 963 196 963 196 992 229 c 1,29,-1
 1007 229 l 1,30,-1
 977 116 l 1,31,32
 811 -20 811 -20 599 -20 c 0,0,1
430 419 m 1,33,-1
 860 550 l 2,34,35
 993 590 993 590 1023 701 c 0,36,37
 1042 772 1042 772 1042 833 c 0,38,39
 1042 870 1042 870 1035 903 c 0,40,41
 1004 1055 1004 1055 869 1055 c 0,42,43
 729 1055 729 1055 616 902 c 0,44,45
 519 771 519 771 459 550 c 0,46,47
 438 471 438 471 430 419 c 1,33,-1
EndSplineSet
Validated: 1
EndChar

StartChar: f
Encoding: 102 102 69
Width: 979
GlyphClass: 2
Flags: W
HStem: -430 107<-17.9231 133.918> 600 90<232.054 381 585 891.946> 1100 264<1051.19 1198.16> 1460 70<897.759 1140.62>
VStem: -56 25<-281.039 -210> 1012 279<1149.65 1324.29>
DStem2: 105.051 -430 284.601 -430 0.258819 0.965926<107.955 1066.32 1206.06 1832.73>
LayerCount: 2
Fore
SplineSet
95 -430 m 0,0,1
 -10 -430 -10 -430 -45 -339 c 0,2,3
 -56 -310 -56 -310 -56 -277 c 0,4,5
 -56 -245 -56 -245 -46 -210 c 1,6,-1
 -31 -210 l 1,7,8
 -31 -323 -31 -323 49 -323 c 0,9,10
 134 -323 134 -323 164 -210 c 2,11,-1
 381 600 l 1,12,-1
 250 600 l 2,13,14
 227 600 227 600 227 619 c 0,15,16
 227 626 227 626 228 630 c 2,17,-1
 236 660 l 2,18,19
 244 690 244 690 274 690 c 2,20,-1
 405 690 l 1,21,-1
 523 1132 l 2,22,23
 570 1307 570 1307 720 1426 c 0,24,25
 851 1530 851 1530 1019 1530 c 0,26,27
 1170 1530 1170 1530 1245 1423 c 0,28,29
 1291 1358 1291 1358 1291 1284 c 0,30,31
 1291 1241 1291 1241 1280 1210 c 0,32,33
 1266 1169 1266 1169 1238 1140 c 0,34,35
 1199 1100 1199 1100 1141 1100 c 0,36,37
 1087 1100 1087 1100 1049.5 1138.5 c 128,-1,38
 1012 1177 1012 1177 1012 1232 c 128,-1,39
 1012 1287 1012 1287 1050 1325.5 c 128,-1,40
 1088 1364 1088 1364 1142 1364 c 0,41,42
 1172 1364 1172 1364 1199 1349 c 1,43,44
 1152 1460 1152 1460 1030 1460 c 0,45,46
 923 1460 923 1460 834 1380 c 0,47,48
 749 1304 749 1304 703 1132 c 2,49,-1
 585 690 l 1,50,-1
 874 690 l 2,51,52
 897 690 897 690 897 671 c 0,53,54
 897 664 897 664 896 660 c 2,55,-1
 888 630 l 2,56,57
 880 600 880 600 850 600 c 2,58,-1
 561 600 l 1,59,-1
 354 -171 l 2,60,61
 323 -286 323 -286 279 -338 c 0,62,63
 202 -430 202 -430 95 -430 c 0,0,1
EndSplineSet
Validated: 1
EndChar

StartChar: h
Encoding: 104 104 70
Width: 1270
GlyphClass: 2
Flags: W
HStem: -20 107<1000 1197.27> 0 21G<250 375> 1009 111<824.536 1031.75> 1423 107<477.259 673>
VStem: 579 182<1186.06 1421.46> 914 182<88.2308 327.406> 1080 183<629.68 963.038>
DStem2: 214.244 -20 394.244 -20 0.258819 0.965926<55.3295 1428.65> 864.601 -20 1045.05 -20 0.258819 0.965926<222.832 883.843>
LayerCount: 2
Fore
SplineSet
270 0 m 2,0,1
 230 0 230 0 230 31 c 0,2,3
 230 39 230 39 233 50 c 2,4,-1
 571 1310 l 2,5,6
 579 1340 579 1340 579 1362 c 0,7,8
 579 1423 579 1423 517 1423 c 0,9,10
 435 1423 435 1423 376 1310 c 1,11,-1
 361 1310 l 1,12,13
 381 1388 381 1388 431 1443 c 0,14,15
 508 1530 508 1530 620 1530 c 0,16,17
 726 1530 726 1530 755 1438 c 0,18,19
 761 1419 761 1419 761 1393 c 0,20,21
 761 1344 761 1344 741 1271 c 2,22,-1
 643 908 l 1,23,24
 691 981 691 981 760 1034 c 0,25,26
 872 1120 872 1120 1010 1120 c 0,27,28
 1176 1120 1176 1120 1239 986 c 0,29,30
 1263 935 1263 935 1263 865 c 0,31,32
 1263 797 1263 797 1240 710 c 2,33,-1
 1104 200 l 2,34,35
 1096 170 1096 170 1096 148 c 0,36,37
 1096 87 1096 87 1157 87 c 0,38,39
 1239 87 1239 87 1299 200 c 1,40,-1
 1314 200 l 1,41,42
 1294 122 1294 122 1244 67 c 0,43,44
 1167 -20 1167 -20 1055 -20 c 0,45,46
 945 -20 945 -20 919 72 c 0,47,48
 914 90 914 90 914 114 c 0,49,50
 914 162 914 162 934 239 c 2,51,-1
 1060 710 l 2,52,53
 1080 785 1080 785 1080 839 c 0,54,55
 1080 869 1080 869 1074 892 c 0,56,57
 1043 1009 1043 1009 903 1009 c 0,58,59
 771 1009 771 1009 675 890 c 0,60,61
 620 821 620 821 590 710 c 2,62,-1
 413 50 l 2,63,64
 400 0 400 0 350 0 c 2,65,-1
 270 0 l 2,0,1
EndSplineSet
Validated: 1
EndChar

StartChar: i
Encoding: 105 105 71
Width: 620
GlyphClass: 2
Flags: W
HStem: -20 107<350 547.272> 1013 107<367.259 565.5> 1180 264<532.191 713.324>
VStem: 264 182<88.3198 327.945> 469 181<766.891 1011.54> 493 259<1219.71 1404.29>
DStem2: 214.601 -20 395.051 -20 0.258819 0.965926<222.832 1004.06>
LayerCount: 2
Fore
SplineSet
623 1180 m 128,-1,1
 569 1180 569 1180 531 1218.5 c 128,-1,2
 493 1257 493 1257 493 1312 c 128,-1,3
 493 1367 493 1367 531 1405.5 c 128,-1,4
 569 1444 569 1444 623 1444 c 128,-1,5
 677 1444 677 1444 714.5 1405.5 c 128,-1,6
 752 1367 752 1367 752 1312 c 128,-1,7
 752 1257 752 1257 714.5 1218.5 c 128,-1,0
 677 1180 677 1180 623 1180 c 128,-1,1
405 -20 m 0,8,9
 295 -20 295 -20 269 72 c 0,10,11
 264 90 264 90 264 115 c 0,12,13
 264 164 264 164 284 239 c 2,14,-1
 461 900 l 2,15,16
 469 930 469 930 469 952 c 0,17,18
 469 1013 469 1013 407 1013 c 0,19,20
 325 1013 325 1013 266 900 c 1,21,-1
 251 900 l 1,22,23
 271 978 271 978 321 1033 c 0,24,25
 398 1120 398 1120 510 1120 c 0,26,27
 621 1120 621 1120 645 1028 c 0,28,29
 650 1009 650 1009 650 984 c 0,30,31
 650 935 650 935 631 861 c 2,32,-1
 454 200 l 2,33,34
 446 170 446 170 446 148 c 0,35,36
 446 87 446 87 507 87 c 0,37,38
 589 87 589 87 649 200 c 1,39,-1
 664 200 l 1,40,41
 644 122 644 122 594 67 c 0,42,43
 517 -20 517 -20 405 -20 c 0,8,9
EndSplineSet
Validated: 1
EndChar

StartChar: j
Encoding: 106 106 72
Width: 620
GlyphClass: 2
Flags: W
HStem: -430 21G<-81 111> 1013 107<367.259 565.5> 1180 264<532.191 713.324>
VStem: 469 181<770.133 1011.54> 493 259<1219.71 1404.29>
DStem2: 104.782 -430 284.782 -430 0.258819 0.965926<265.762 1428.51>
LayerCount: 2
Fore
SplineSet
623 1180 m 128,-1,1
 569 1180 569 1180 531 1218.5 c 128,-1,2
 493 1257 493 1257 493 1312 c 128,-1,3
 493 1367 493 1367 531 1405.5 c 128,-1,4
 569 1444 569 1444 623 1444 c 128,-1,5
 677 1444 677 1444 714.5 1405.5 c 128,-1,6
 752 1367 752 1367 752 1312 c 128,-1,7
 752 1257 752 1257 714.5 1218.5 c 128,-1,0
 677 1180 677 1180 623 1180 c 128,-1,1
-85 -430 m 1,8,-1
 -81 -415 l 1,9,10
 140 -300 140 -300 220 0 c 2,11,-1
 461 900 l 2,12,13
 469 930 469 930 469 952 c 0,14,15
 469 1013 469 1013 407 1013 c 0,16,17
 325 1013 325 1013 266 900 c 1,18,-1
 251 900 l 1,19,20
 271 978 271 978 321 1033 c 0,21,22
 398 1120 398 1120 510 1120 c 0,23,24
 621 1120 621 1120 645 1028 c 0,25,26
 650 1009 650 1009 650 984 c 0,27,28
 650 935 650 935 631 861 c 2,29,-1
 400 0 l 2,30,31
 307 -347 307 -347 -85 -430 c 1,8,-1
EndSplineSet
Validated: 1
EndChar

StartChar: l
Encoding: 108 108 73
Width: 620
GlyphClass: 2
Flags: W
HStem: -20 107<350 547.272> 1423 107<477.259 675.5>
VStem: 264 182<88.3198 319.906> 579 181<1181.73 1421.54>
DStem2: 214.601 -20 395.051 -20 0.258819 0.965926<222.832 1428.56>
LayerCount: 2
Fore
SplineSet
405 -20 m 0,0,1
 295 -20 295 -20 269 72 c 0,2,3
 264 90 264 90 264 115 c 0,4,5
 264 164 264 164 284 239 c 2,6,-1
 571 1310 l 2,7,8
 579 1340 579 1340 579 1362 c 0,9,10
 579 1423 579 1423 517 1423 c 0,11,12
 435 1423 435 1423 376 1310 c 1,13,-1
 361 1310 l 1,14,15
 381 1388 381 1388 431 1443 c 0,16,17
 508 1530 508 1530 620 1530 c 0,18,19
 731 1530 731 1530 755 1438 c 0,20,21
 760 1419 760 1419 760 1394 c 0,22,23
 760 1345 760 1345 741 1271 c 2,24,-1
 454 200 l 2,25,26
 446 170 446 170 446 148 c 0,27,28
 446 87 446 87 507 87 c 0,29,30
 589 87 589 87 649 200 c 1,31,-1
 664 200 l 1,32,33
 644 122 644 122 594 67 c 0,34,35
 517 -20 517 -20 405 -20 c 0,0,1
EndSplineSet
Validated: 1
EndChar

StartChar: m
Encoding: 109 109 74
Width: 1920
GlyphClass: 2
Flags: W
HStem: -20 107<1650 1847.27> 0 21G<250 375 900 1025> 1013 107<367.259 542.387 824.772 1029.12 1473.94 1676.74>
VStem: 469 182<838.218 1011.33> 1564 182<88.2308 327.406> 1730 183<629.68 963.038>
DStem2: 214.244 -20 394.244 -20 0.258819 0.965926<55.3295 1004.15> 864.244 -20 1044.24 -20 0.258819 0.965926<55.3295 883.936> 1514.6 -20 1695.05 -20 0.258819 0.965926<222.832 883.843>
LayerCount: 2
Fore
SplineSet
270 0 m 2,0,1
 230 0 230 0 230 31 c 0,2,3
 230 39 230 39 233 50 c 2,4,-1
 461 900 l 2,5,6
 469 930 469 930 469 952 c 0,7,8
 469 1013 469 1013 407 1013 c 0,9,10
 325 1013 325 1013 266 900 c 1,11,-1
 251 900 l 1,12,13
 271 978 271 978 321 1033 c 0,14,15
 398 1120 398 1120 510 1120 c 0,16,17
 617 1120 617 1120 645 1028 c 0,18,19
 651 1008 651 1008 651 980 c 0,20,21
 651 948 651 948 643 908 c 1,22,23
 691 981 691 981 760 1034 c 0,24,25
 872 1120 872 1120 1010 1120 c 0,26,27
 1174 1120 1174 1120 1239 986 c 0,28,29
 1260 942 1260 942 1264 881 c 1,30,31
 1316 967 1316 967 1406 1034 c 0,32,33
 1523 1120 1523 1120 1660 1120 c 0,34,35
 1826 1120 1826 1120 1889 986 c 0,36,37
 1913 935 1913 935 1913 865 c 0,38,39
 1913 797 1913 797 1890 710 c 2,40,-1
 1754 200 l 2,41,42
 1746 170 1746 170 1746 148 c 0,43,44
 1746 87 1746 87 1807 87 c 0,45,46
 1889 87 1889 87 1949 200 c 1,47,-1
 1964 200 l 1,48,49
 1944 122 1944 122 1894 67 c 0,50,51
 1817 -20 1817 -20 1705 -20 c 0,52,53
 1595 -20 1595 -20 1569 72 c 0,54,55
 1564 90 1564 90 1564 114 c 0,56,57
 1564 162 1564 162 1584 239 c 2,58,-1
 1710 710 l 2,59,60
 1730 785 1730 785 1730 839 c 0,61,62
 1730 869 1730 869 1724 892 c 0,63,64
 1692 1009 1692 1009 1554 1009 c 0,65,66
 1421 1009 1421 1009 1325 890 c 0,67,68
 1270 821 1270 821 1240 710 c 2,69,-1
 1063 50 l 2,70,71
 1050 0 1050 0 1000 0 c 2,72,-1
 920 0 l 2,73,74
 880 0 880 0 880 31 c 0,75,76
 880 39 880 39 883 50 c 2,77,-1
 1060 710 l 2,78,79
 1080 785 1080 785 1080 839 c 0,80,81
 1080 869 1080 869 1074 892 c 0,82,83
 1042 1009 1042 1009 904 1009 c 0,84,85
 771 1009 771 1009 675 890 c 0,86,87
 620 821 620 821 590 710 c 2,88,-1
 413 50 l 2,89,90
 400 0 400 0 350 0 c 2,91,-1
 270 0 l 2,0,1
EndSplineSet
Validated: 1
EndChar

StartChar: n
Encoding: 110 110 75
Width: 1270
GlyphClass: 2
Flags: W
HStem: -20 107<999.5 1197.27> 0 21G<250 375> 1013 107<367.22 543.887 826.18 1026.56>
VStem: 469 182<838.202 1011.53> 914 182<88.3198 327.406> 1080 183<629.68 961.881>
DStem2: 214.244 -20 394.244 -20 0.258819 0.965926<55.3295 1004.15> 864.601 -20 1045.05 -20 0.258819 0.965926<222.832 884.809>
LayerCount: 2
Fore
SplineSet
270 0 m 2,0,1
 230 0 230 0 230 31 c 0,2,3
 230 39 230 39 233 50 c 2,4,-1
 461 900 l 2,5,6
 469 930 469 930 469 952 c 0,7,8
 469 1013 469 1013 407 1013 c 0,9,10
 325 1013 325 1013 266 900 c 1,11,-1
 251 900 l 1,12,13
 271 978 271 978 321 1033 c 0,14,15
 398 1120 398 1120 509 1120 c 128,-1,16
 620 1120 620 1120 645 1028 c 0,17,18
 651 1006 651 1006 651 979 c 0,19,20
 651 947 651 947 643 908 c 1,21,22
 691 981 691 981 760 1034 c 0,23,24
 872 1120 872 1120 1010 1120 c 0,25,26
 1176 1120 1176 1120 1239 986 c 0,27,28
 1263 935 1263 935 1263 865 c 0,29,30
 1263 797 1263 797 1240 710 c 2,31,-1
 1104 200 l 2,32,33
 1096 170 1096 170 1096 148 c 0,34,35
 1096 87 1096 87 1157 87 c 0,36,37
 1239 87 1239 87 1299 200 c 1,38,-1
 1314 200 l 1,39,40
 1294 122 1294 122 1244 67 c 0,41,42
 1167 -20 1167 -20 1055 -20 c 0,43,44
 944 -20 944 -20 919 72 c 0,45,46
 914 90 914 90 914 115 c 0,47,48
 914 164 914 164 934 239 c 2,49,-1
 1060 710 l 2,50,51
 1080 786 1080 786 1080 840 c 0,52,53
 1080 870 1080 870 1074 892 c 0,54,55
 1042 1009 1042 1009 902 1009 c 0,56,57
 771 1009 771 1009 675 890 c 0,58,59
 620 821 620 821 590 710 c 2,60,-1
 413 50 l 2,61,62
 400 0 400 0 350 0 c 2,63,-1
 270 0 l 2,0,1
EndSplineSet
Validated: 1
EndChar

StartChar: o
Encoding: 111 111 76
Width: 1168
GlyphClass: 2
Flags: W
HStem: -20 65<491.34 719.368> 1055 65<745.261 973.393>
VStem: 230 186<162.924 561.022> 1049 184<546.491 937.872>
LayerCount: 2
Fore
SplineSet
596 45 m 0,0,1
 738 45 738 45 851 198 c 0,2,3
 945 324 945 324 1006 550 c 0,4,5
 1049 708 1049 708 1049 818 c 0,6,7
 1049 865 1049 865 1041 903 c 0,8,9
 1010 1055 1010 1055 867 1055 c 0,10,11
 727 1055 727 1055 614 902 c 0,12,13
 517 771 517 771 457 550 c 0,14,15
 416 398 416 398 416 288 c 0,16,17
 416 239 416 239 424 198 c 0,18,19
 455 45 455 45 596 45 c 0,0,1
579 -20 m 0,20,21
 393 -20 393 -20 301 116 c 0,22,23
 230 221 230 221 230 363 c 0,24,25
 230 450 230 450 257 550 c 0,26,27
 329 817 329 817 534 984 c 0,28,29
 700 1120 700 1120 889 1120 c 0,30,31
 1068 1120 1068 1120 1162 984 c 0,32,33
 1233 881 1233 881 1233 740 c 0,34,35
 1233 652 1233 652 1205 550 c 0,36,37
 1133 283 1133 283 929 116 c 0,38,39
 763 -20 763 -20 579 -20 c 0,20,21
EndSplineSet
Validated: 1
EndChar

StartChar: p
Encoding: 112 112 77
Width: 1199
GlyphClass: 2
Flags: W
HStem: -410 21G<140.5 265.5> -20 75<512.435 749.631> 1045 75<768.76 994.978>
VStem: 1077 190<535.845 944.742>
DStem2: 110.603 -410 290.603 -410 0.258819 0.965926<34.8353 568.199 696.92 1407.68>
LayerCount: 2
Fore
SplineSet
629 -20 m 0,0,1
 466 -20 466 -20 425 94 c 1,2,-1
 304 -360 l 2,3,4
 291 -410 291 -410 240 -410 c 2,5,-1
 160 -410 l 2,6,7
 121 -410 121 -410 121 -379 c 0,8,9
 121 -370 121 -370 124 -360 c 2,10,-1
 461 900 l 2,11,12
 469 930 469 930 469 952 c 0,13,14
 469 1013 469 1013 407 1013 c 0,15,16
 325 1013 325 1013 266 900 c 1,17,-1
 251 900 l 1,18,19
 271 978 271 978 321 1033 c 0,20,21
 398 1120 398 1120 510.5 1120 c 128,-1,22
 623 1120 623 1120 645 1028 c 0,23,24
 650 1007 650 1007 651 984 c 1,25,26
 756 1120 756 1120 934 1120 c 0,27,28
 1115 1120 1115 1120 1216 956 c 0,29,30
 1267 873 1267 873 1267 755 c 0,31,32
 1267 664 1267 664 1237 551 c 0,33,34
 1171 306 1171 306 999 144 c 0,35,36
 824 -20 824 -20 629 -20 c 0,0,1
617 55 m 0,37,38
 759 55 759 55 883 208 c 0,39,40
 976 323 976 323 1036 550 c 0,41,42
 1076 700 1076 700 1077 801 c 0,43,44
 1077 853 1077 853 1066 892 c 0,45,46
 1024 1045 1024 1045 882 1045 c 0,47,48
 796 1045 796 1045 728 986 c 0,49,50
 645 914 645 914 609 781 c 2,51,-1
 485 319 l 2,52,53
 469 261 469 261 469 214 c 0,54,55
 469 154 469 154 495 114 c 0,56,57
 531 55 531 55 617 55 c 0,37,38
EndSplineSet
Validated: 1
EndChar

StartChar: q
Encoding: 113 113 78
Width: 1199
GlyphClass: 2
Flags: W
HStem: -430 107<819 1016.27> -20 75<499.022 727.412> 1045 75<744.369 981.565> 1080 20G<1118.5 1243.5>
VStem: 227 190<155.258 564.155> 733 182<-321.68 -85.8906> 1024 239<863.5 1084.5>
DStem2: 683.601 -430 864.051 -430 0.258819 0.965926<222.832 542.483 576.372 1358.8 1486.82 1595.7>
LayerCount: 2
Fore
SplineSet
560 -20 m 0,0,1
 379 -20 379 -20 278 144 c 0,2,3
 227 227 227 227 227 345 c 0,4,5
 227 436 227 436 257 549 c 0,6,7
 323 794 323 794 495 956 c 0,8,9
 670 1120 670 1120 865 1120 c 0,10,11
 1028 1120 1028 1120 1069 1006 c 1,12,-1
 1080 1050 l 2,13,14
 1093 1100 1093 1100 1144 1100 c 2,15,-1
 1224 1100 l 2,16,17
 1263 1100 1263 1100 1263 1069 c 0,18,19
 1263 1060 1263 1060 1260 1050 c 2,20,-1
 923 -210 l 2,21,22
 915 -240 915 -240 915 -262 c 0,23,24
 915 -323 915 -323 976 -323 c 0,25,26
 1058 -323 1058 -323 1118 -210 c 1,27,-1
 1133 -210 l 1,28,29
 1113 -288 1113 -288 1063 -343 c 0,30,31
 986 -430 986 -430 874 -430 c 0,32,33
 764 -430 764 -430 738 -338 c 0,34,35
 733 -320 733 -320 733 -295 c 0,36,37
 733 -246 733 -246 753 -171 c 2,38,-1
 824 94 l 1,39,40
 728 -20 728 -20 560 -20 c 0,0,1
612 55 m 0,41,42
 698 55 698 55 766 114 c 0,43,44
 849 186 849 186 884 319 c 2,45,-1
 1008 781 l 2,46,47
 1024 840 1024 840 1024 887 c 0,48,49
 1024 946 1024 946 999 986 c 0,50,51
 963 1045 963 1045 877 1045 c 0,52,53
 735 1045 735 1045 611 892 c 0,54,55
 518 777 518 777 458 550 c 0,56,57
 418 400 418 400 417 299 c 0,58,59
 417 247 417 247 428 208 c 0,60,61
 470 55 470 55 612 55 c 0,41,42
EndSplineSet
Validated: 1
EndChar

StartChar: r
Encoding: 114 114 79
Width: 979
GlyphClass: 2
Flags: W
HStem: 0 21G<250 375> 690 264<940.191 1087.16> 1050 70<787.741 1029.62>
VStem: 901 279<739.654 914.293>
DStem2: 219.603 0 399.603 0 0.258819 0.965926<34.624 983.444>
LayerCount: 2
Fore
SplineSet
270 0 m 2,0,1
 230 0 230 0 230 31 c 0,2,3
 230 39 230 39 233 50 c 2,4,-1
 461 900 l 2,5,6
 469 930 469 930 469 952 c 0,7,8
 469 1013 469 1013 407 1013 c 0,9,10
 325 1013 325 1013 266 900 c 1,11,-1
 251 900 l 1,12,13
 271 978 271 978 321 1033 c 0,14,15
 398 1120 398 1120 510 1120 c 0,16,17
 611 1120 611 1120 641 1039 c 1,18,19
 760 1120 760 1120 908 1120 c 0,20,21
 1059 1120 1059 1120 1134 1013 c 0,22,23
 1180 948 1180 948 1180 874 c 0,24,25
 1180 831 1180 831 1169 800 c 0,26,27
 1155 759 1155 759 1127 730 c 0,28,29
 1088 690 1088 690 1030 690 c 0,30,31
 976 690 976 690 938.5 728.5 c 128,-1,32
 901 767 901 767 901 822 c 128,-1,33
 901 877 901 877 939 915.5 c 128,-1,34
 977 954 977 954 1031 954 c 0,35,36
 1061 954 1061 954 1088 939 c 1,37,38
 1041 1050 1041 1050 919 1050 c 0,39,40
 813 1050 813 1050 724 970 c 0,41,42
 639 894 639 894 593 722 c 2,43,-1
 413 50 l 2,44,45
 400 0 400 0 350 0 c 2,46,-1
 270 0 l 2,0,1
EndSplineSet
Validated: 1
EndChar

StartChar: s
Encoding: 115 115 80
Width: 1020
GlyphClass: 2
Flags: W
HStem: -20 80<351.594 659.846> 166 264<269.844 416.809> 740 264<847.191 994.156> 1047 73<706.688 969.891>
VStem: 177 279<205.707 382.212> 423 167<741.009 932.705> 808 279<787.372 964.293> 824 181<224.498 444.642>
DStem2: 693 699 579 564 0.879707 -0.475517<-135.103 259.132>
LayerCount: 2
Fore
SplineSet
510 -20 m 0,0,1
 342 -20 342 -20 247 86 c 0,2,3
 177 164 177 164 177 251 c 0,4,5
 177 291 177 291 187.5 325.5 c 128,-1,6
 198 360 198 360 230 391 c 0,7,8
 272 430 272 430 327 430 c 0,9,10
 381 430 381 430 418.5 391.5 c 128,-1,11
 456 353 456 353 456 298 c 128,-1,12
 456 243 456 243 418 204.5 c 128,-1,13
 380 166 380 166 326 166 c 0,14,15
 296 166 296 166 269 181 c 1,16,17
 344 60 344 60 505 60 c 0,18,19
 614 60 614 60 699 124 c 0,20,21
 792 194 792 194 817 287 c 0,22,23
 824 313 824 313 824 343 c 0,24,25
 824 432 824 432 727 484 c 2,26,-1
 579 564 l 2,27,28
 423 648 423 648 423 778 c 0,29,30
 423 831 423 831 441 880 c 0,31,32
 481 987 481 987 605 1059 c 0,33,34
 709 1120 709 1120 837 1120 c 0,35,36
 962 1120 962 1120 1035 1039 c 0,37,38
 1087 982 1087 982 1087 911 c 0,39,40
 1087 873 1087 873 1075 839 c 0,41,42
 1063 807 1063 807 1033 777 c 0,43,44
 995 740 995 740 937 740 c 0,45,46
 883 740 883 740 845.5 778.5 c 128,-1,47
 808 817 808 817 808 872 c 128,-1,48
 808 927 808 927 846 965.5 c 128,-1,49
 884 1004 884 1004 938 1004 c 0,50,51
 968 1004 968 1004 995 989 c 1,52,53
 941 1047 941 1047 853 1047 c 0,54,55
 756 1047 756 1047 691 1001 c 0,56,57
 616 948 616 948 595 872 c 0,58,59
 590 854 590 854 590 837 c 0,60,61
 590 753 590 753 693 699 c 2,62,-1
 829 628 l 2,63,64
 1005 536 1005 536 1005 397 c 0,65,66
 1005 331 1005 331 984 275 c 0,67,68
 937 150 937 150 811 65 c 0,69,70
 686 -20 686 -20 510 -20 c 0,0,1
EndSplineSet
Validated: 1
EndChar

StartChar: t
Encoding: 116 116 81
Width: 700
GlyphClass: 2
Flags: W
HStem: -20 107<390 587.272> 1010 90<303 531 735 963> 1423 107<517.259 715.5>
VStem: 304 182<88.3198 324.945> 619 181<1175.14 1421.54>
DStem2: 254.601 -20 435.051 -20 0.258819 0.965926<222.832 1066.44 1206.17 1428.56>
LayerCount: 2
Fore
SplineSet
445 -20 m 0,0,1
 335 -20 335 -20 309 72 c 0,2,3
 304 90 304 90 304 115 c 0,4,5
 304 165 304 165 324 239 c 2,6,-1
 531 1010 l 1,7,-1
 321 1010 l 2,8,9
 297 1010 297 1010 297 1028 c 0,10,11
 297 1032 297 1032 299 1040 c 2,12,-1
 307 1070 l 2,13,14
 315 1100 315 1100 345 1100 c 2,15,-1
 555 1100 l 1,16,-1
 611 1310 l 2,17,18
 619 1340 619 1340 619 1362 c 0,19,20
 619 1423 619 1423 557 1423 c 0,21,22
 475 1423 475 1423 416 1310 c 1,23,-1
 401 1310 l 1,24,25
 421 1388 421 1388 471 1443 c 0,26,27
 548 1530 548 1530 660 1530 c 0,28,29
 771 1530 771 1530 795 1438 c 0,30,31
 800 1419 800 1419 800 1394 c 0,32,33
 800 1342 800 1342 781 1271 c 2,34,-1
 735 1100 l 1,35,-1
 945 1100 l 2,36,37
 969 1100 969 1100 969 1081 c 0,38,39
 969 1076 969 1076 967 1070 c 2,40,-1
 959 1040 l 2,41,42
 951 1010 951 1010 921 1010 c 2,43,-1
 711 1010 l 1,44,-1
 494 200 l 2,45,46
 486 170 486 170 486 148 c 0,47,48
 486 87 486 87 547 87 c 0,49,50
 629 87 629 87 689 200 c 1,51,-1
 704 200 l 1,52,53
 684 122 684 122 634 67 c 0,54,55
 557 -20 557 -20 445 -20 c 0,0,1
EndSplineSet
Validated: 1
EndChar

StartChar: u
Encoding: 117 117 82
Width: 1270
GlyphClass: 2
Flags: W
HStem: -20 111<533.396 739.728 1021.86 1197.27> 1013 107<367.259 563> 1080 20G<1189.5 1314.5>
VStem: 301 183<139.423 470.32> 469 182<772.594 1011.38> 913 183<88.4497 261.767>
DStem2: 214.141 -20 394.141 -20 0.258819 0.965926<345.773 1004.18> 864.141 -20 1044.29 -20 0.258819 0.965926<222.952 1171.26>
LayerCount: 2
Fore
SplineSet
555 -20 m 0,0,1
 390 -20 390 -20 326 114 c 0,2,3
 301 166 301 166 301 237 c 0,4,5
 301 305 301 305 324 390 c 2,6,-1
 461 900 l 2,7,8
 469 930 469 930 469 952 c 0,9,10
 469 1013 469 1013 407 1013 c 0,11,12
 325 1013 325 1013 266 900 c 1,13,-1
 251 900 l 1,14,15
 271 978 271 978 321 1033 c 0,16,17
 398 1120 398 1120 510 1120 c 0,18,19
 616 1120 616 1120 645 1028 c 0,20,21
 651 1009 651 1009 651 982 c 0,22,23
 651 933 651 933 631 861 c 2,24,-1
 504 390 l 2,25,26
 484 317 484 317 484 264 c 0,27,28
 484 233 484 233 491 209 c 0,29,30
 523 91 523 91 660 91 c 0,31,32
 793 91 793 91 889 210 c 0,33,34
 944 279 944 279 974 390 c 2,35,-1
 1151 1050 l 2,36,37
 1164 1100 1164 1100 1215 1100 c 2,38,-1
 1295 1100 l 2,39,40
 1334 1100 1334 1100 1334 1069 c 0,41,42
 1334 1061 1334 1061 1331 1050 c 2,43,-1
 1104 200 l 2,44,45
 1096 170 1096 170 1096 148 c 0,46,47
 1096 87 1096 87 1157 87 c 0,48,49
 1239 87 1239 87 1299 200 c 1,50,-1
 1314 200 l 1,51,52
 1294 122 1294 122 1244 67 c 0,53,54
 1167 -20 1167 -20 1055 -20 c 0,55,56
 947 -20 947 -20 919 72 c 0,57,58
 913 92 913 92 913 119 c 0,59,60
 913 151 913 151 921 192 c 1,61,62
 873 119 873 119 805 66 c 0,63,64
 693 -20 693 -20 555 -20 c 0,0,1
EndSplineSet
Validated: 1
EndChar

StartChar: braceleft
Encoding: 123 123 83
Width: 733
GlyphClass: 2
Flags: W
HStem: -200 82<501.559 640.355> 1628 82<947.45 1129.95>
VStem: 288 170<-69.8707 270.781> 392 180<363.938 696.285>
DStem2: 196.069 -200 376.409 -200 0.258819 0.965926<300.837 796.071 1132.3 1774.25>
LayerCount: 2
Fore
SplineSet
604 -200 m 16,0,1
 424 -200 424 -200 347 -99 c 0,2,3
 288 -22 288 -22 288 85 c 0,4,5
 288 143 288 143 307 214 c 2,6,-1
 379 482 l 2,7,8
 392 530 392 530 392 573 c 0,9,10
 392 707 392 707 252 755 c 1,11,12
 468 815 468 815 525 1028 c 2,13,-1
 597 1296 l 2,14,15
 648 1485 648 1485 805 1609 c 0,16,17
 933 1710 933 1710 1116 1710 c 0,18,19
 1135 1710 1135 1710 1135 1695 c 0,20,21
 1135 1689 1135 1689 1134 1685 c 2,22,-1
 1126 1653 l 2,23,24
 1120 1628 1120 1628 1094 1628 c 16,25,26
 1001 1628 1001 1628 926 1574 c 0,27,28
 836 1510 836 1510 779 1301 c 2,29,-1
 705 1027 l 2,30,31
 645 806 645 806 429 755 c 1,32,33
 572 711 572 711 572 574 c 0,34,35
 572 532 572 532 559 483 c 2,36,-1
 486 209 l 2,37,38
 458 104 458 104 458 37 c 0,39,40
 458 -32 458 -32 487 -64 c 0,41,42
 534 -118 534 -118 626 -118 c 0,43,44
 646 -118 646 -118 646 -134 c 0,45,46
 646 -139 646 -139 645 -143 c 2,47,-1
 636 -175 l 2,48,49
 629 -200 629 -200 604 -200 c 16,0,1
EndSplineSet
Validated: 1
EndChar

StartChar: bar
Encoding: 124 124 84
Width: 655
GlyphClass: 2
Flags: W
VStem: 220 619
DStem2: 209.603 -150 364.603 -150 0.258819 0.965926<32.8771 1881.01>
LayerCount: 2
Fore
SplineSet
745 1660 m 2,0,-1
 800 1660 l 2,1,2
 839 1660 839 1660 839 1629 c 0,3,4
 839 1620 839 1620 836 1610 c 2,5,-1
 378 -100 l 2,6,7
 365 -150 365 -150 315 -150 c 2,8,-1
 260 -150 l 2,9,10
 220 -150 220 -150 220 -119 c 0,11,12
 220 -111 220 -111 223 -100 c 2,13,-1
 681 1610 l 2,14,15
 695 1660 695 1660 745 1660 c 2,0,-1
EndSplineSet
Validated: 1
EndChar

StartChar: braceright
Encoding: 125 125 85
Width: 733
GlyphClass: 2
Flags: W
HStem: -200 82<7.68237 188.75> 1628 82<497.052 636.73>
VStem: 564 181<812.69 1139.69> 680 168<1241.31 1580.9>
DStem2: 249.409 -200 429.069 -200 0.258819 0.965926<249.363 890.708 1226.89 1720.81>
LayerCount: 2
Fore
SplineSet
21 -200 m 0,0,1
 2 -200 2 -200 2 -185 c 0,2,3
 2 -179 2 -179 3 -175 c 2,4,-1
 12 -143 l 2,5,6
 19 -118 19 -118 43 -118 c 16,7,8
 136 -118 136 -118 212 -64 c 0,9,10
 303 0 303 0 359 209 c 2,11,-1
 432 483 l 2,12,13
 489 697 489 697 708 755 c 1,14,15
 564 794 564 794 564 931 c 0,16,17
 564 975 564 975 578 1027 c 2,18,-1
 652 1301 l 2,19,20
 680 1405 680 1405 680 1473 c 0,21,22
 680 1542 680 1542 651 1574 c 0,23,24
 604 1628 604 1628 511 1628 c 0,25,26
 492 1628 492 1628 492 1643 c 0,27,28
 492 1649 492 1649 493 1653 c 2,29,-1
 501 1685 l 2,30,31
 507 1710 507 1710 533 1710 c 16,32,33
 716 1710 716 1710 790 1609 c 0,34,35
 848 1530 848 1530 848 1423 c 0,36,37
 848 1363 848 1363 830 1296 c 2,38,-1
 758 1028 l 2,39,40
 745 980 745 980 745 936 c 0,41,42
 745 801 745 801 885 755 c 1,43,44
 669 693 669 693 612 482 c 2,45,-1
 540 214 l 2,46,47
 488 21 488 21 332 -99 c 0,48,49
 201 -200 201 -200 21 -200 c 0,0,1
EndSplineSet
Validated: 1
EndChar

StartChar: asciitilde
Encoding: 126 126 86
Width: 1193
GlyphClass: 2
Flags: W
HStem: 598 151<929.356 1115.38> 760 151<480.335 668.785>
DStem2: 973 772 625 737 0.89608 -0.443892<-362.079 65.7791>
LayerCount: 2
Fore
SplineSet
636 911 m 0,0,1
 693 911 693 911 758 879 c 2,2,-1
 973 772 l 2,3,4
 1019 749 1019 749 1052 749 c 0,5,6
 1167 749 1167 749 1261 885 c 1,7,-1
 1280 885 l 1,8,9
 1183 598 1183 598 962 598 c 0,10,11
 905 598 905 598 841 630 c 2,12,-1
 625 737 l 2,13,14
 579 760 579 760 546 760 c 0,15,16
 432 760 432 760 337 624 c 1,17,-1
 317 624 l 1,18,19
 412 911 412 911 636 911 c 0,0,1
EndSplineSet
Validated: 1
EndChar

StartChar: exclamdown
Encoding: 161 161 88
Width: 659
GlyphClass: 2
Flags: W
HStem: -430 21G<202.25 260.75> 856 264<503.676 684.809>
VStem: 117 262<-386.059 -163.781> 465 259<895.707 1080.29>
LayerCount: 2
Fore
SplineSet
594 1120 m 128,-1,1
 648 1120 648 1120 686 1081.5 c 128,-1,2
 724 1043 724 1043 724 988 c 128,-1,3
 724 933 724 933 686 894.5 c 128,-1,4
 648 856 648 856 594 856 c 128,-1,5
 540 856 540 856 502.5 894.5 c 128,-1,6
 465 933 465 933 465 988 c 128,-1,7
 465 1043 465 1043 502.5 1081.5 c 128,-1,0
 540 1120 540 1120 594 1120 c 128,-1,1
231.5 -430 m 128,-1,9
 173 -430 173 -430 140 -387 c 0,10,11
 117 -357 117 -357 117 -312 c 0,12,13
 117 -281 117 -281 129 -247 c 2,14,-1
 480 750 l 2,15,16
 491 780 491 780 518 780 c 2,17,-1
 560 780 l 2,18,19
 583 780 583 780 583 759 c 0,20,21
 583 755 583 755 582 750 c 2,22,-1
 384 -276 l 2,23,24
 382 -285 382 -285 379 -298 c 0,25,26
 365 -357 365 -357 330 -392 c 0,27,8
 290 -430 290 -430 231.5 -430 c 128,-1,9
EndSplineSet
Validated: 1
EndChar

StartChar: cent
Encoding: 162 162 89
Width: 1078
GlyphClass: 2
Flags: W
HStem: -20 75<643 804.958> 690 264<956.191 1102.96> 1045 75<928.016 1049.28>
VStem: 229 193<161.581 566.125> 917 278<739.654 914.293>
DStem2: 488.282 -150 588.282 -150 0.258819 0.965926<26.6162 139.644 239.025 1216.16 1340.53 1451.63>
LayerCount: 2
Fore
SplineSet
524 -15 m 1,0,1
 379 6 379 6 301 116 c 0,2,3
 229 217 229 217 229 358 c 0,4,5
 229 446 229 446 257 550 c 0,6,7
 334 836 334 836 534 984 c 0,8,9
 672 1087 672 1087 826 1112 c 1,10,-1
 852 1210 l 2,11,12
 863 1250 863 1250 903 1250 c 2,13,-1
 923 1250 l 2,14,15
 955 1250 955 1250 955 1228 c 0,16,17
 955 1221 955 1221 952 1210 c 2,18,-1
 928 1120 l 1,19,20
 1067 1119 1067 1119 1149 1010 c 0,21,22
 1195 949 1195 949 1195 874 c 0,23,24
 1195 835 1195 835 1184 800 c 0,25,26
 1170 759 1170 759 1142 730 c 0,27,28
 1103 690 1103 690 1046 690 c 0,29,30
 992 690 992 690 954.5 728.5 c 128,-1,31
 917 767 917 767 917 822 c 128,-1,32
 917 877 917 877 955 915.5 c 128,-1,33
 993 954 993 954 1047 954 c 0,34,35
 1077 954 1077 954 1104 939 c 1,36,37
 1052 1045 1052 1045 931 1045 c 0,38,39
 919 1045 919 1045 908 1044 c 1,40,-1
 643 56 l 1,41,42
 654 55 654 55 665 55 c 0,43,44
 807 55 807 55 932 168 c 0,45,46
 963 196 963 196 992 229 c 1,47,-1
 1007 229 l 1,48,-1
 977 116 l 1,49,50
 821 -12 821 -12 623 -20 c 1,51,-1
 599 -110 l 2,52,53
 588 -150 588 -150 548 -150 c 2,54,-1
 528 -150 l 2,55,56
 497 -150 497 -150 497 -125 c 0,57,58
 497 -118 497 -118 499 -110 c 2,59,-1
 524 -15 l 1,0,1
549 75 m 1,60,-1
 802 1025 l 1,61,62
 700 991 700 991 623 899 c 0,63,64
 525 784 525 784 462 550 c 0,65,66
 422 401 422 401 422 302 c 0,67,68
 422 243 422 243 436 201 c 0,69,70
 467 109 467 109 549 75 c 1,60,-1
EndSplineSet
Validated: 1
EndChar

StartChar: sterling
Encoding: 163 163 90
Width: 1218
GlyphClass: 2
Flags: W
HStem: -20 107<112.077 263.382> -20 74<739.532 1056.33> 36 81<447.536 769.769> 600 90<232 401 625 892> 1100 264<1200.19 1347.16> 1455 75<998.324 1288.32>
VStem: 74 25<128.961 200> 992 259<158.188 349.293> 1161 277<1149.65 1324.29>
DStem2: 235.051 -20 434.601 -20 0.258819 0.965926<178.201 641.825 786.734 1299.85>
LayerCount: 2
Fore
SplineSet
225 -20 m 0,0,1
 120 -20 120 -20 85 71 c 0,2,3
 74 100 74 100 74 133 c 0,4,5
 74 165 74 165 84 200 c 1,6,-1
 99 200 l 1,7,8
 99 87 99 87 179 87 c 0,9,10
 264 87 264 87 294 200 c 2,11,-1
 401 600 l 1,12,-1
 250 600 l 2,13,14
 226 600 226 600 226 617 c 0,15,16
 226 622 226 622 228 630 c 2,17,-1
 236 660 l 2,18,19
 244 690 244 690 274 690 c 2,20,-1
 425 690 l 1,21,-1
 497 960 l 2,22,23
 573 1245 573 1245 774 1394 c 0,24,25
 956 1530 956 1530 1149 1530 c 0,26,27
 1312 1530 1312 1530 1393 1422 c 0,28,29
 1438 1364 1438 1364 1438 1284 c 0,30,31
 1438 1246 1438 1246 1427 1211 c 0,32,33
 1413 1169 1413 1169 1386 1141 c 0,34,35
 1346 1100 1346 1100 1290 1100 c 0,36,37
 1236 1100 1236 1100 1198.5 1138.5 c 128,-1,38
 1161 1177 1161 1177 1161 1232 c 128,-1,39
 1161 1287 1161 1287 1199 1325.5 c 128,-1,40
 1237 1364 1237 1364 1291 1364 c 0,41,42
 1321 1364 1321 1364 1348 1349 c 1,43,44
 1292 1455 1292 1455 1154 1455 c 0,45,46
 985 1455 985 1455 863 1309 c 0,47,48
 756 1181 756 1181 697 960 c 2,49,-1
 625 690 l 1,50,-1
 874 690 l 2,51,52
 898 690 898 690 898 673 c 0,53,54
 898 668 898 668 896 660 c 2,55,-1
 888 630 l 2,56,57
 880 600 880 600 850 600 c 2,58,-1
 601 600 l 1,59,-1
 504 239 l 2,60,61
 482 159 482 159 446 106 c 1,62,63
 500 117 500 117 563 117 c 0,64,65
 675 117 675 117 755 85 c 0,66,67
 833 54 833 54 915 54 c 0,68,69
 1034 54 1034 54 1100 127 c 1,70,71
 1060 133 1060 133 1030 164 c 0,72,73
 992 202 992 202 992 257 c 128,-1,74
 992 312 992 312 1030 350.5 c 128,-1,75
 1068 389 1068 389 1122 389 c 128,-1,76
 1176 389 1176 389 1213.5 350.5 c 128,-1,77
 1251 312 1251 312 1251 257 c 0,78,79
 1251 236 1251 236 1244 208 c 0,80,81
 1215 103 1215 103 1123 41 c 0,82,83
 1033 -20 1033 -20 904 -20 c 0,84,85
 823 -20 823 -20 686 15 c 0,86,87
 606 36 606 36 525 36 c 0,88,89
 458 36 458 36 376.5 8 c 128,-1,90
 295 -20 295 -20 225 -20 c 0,0,1
EndSplineSet
Validated: 1
EndChar

StartChar: currency
Encoding: 164 164 91
Width: 1522
GlyphClass: 2
Flags: W
HStem: 191 91<696.598 998.571> 1240 91<930.541 1232.97>
VStem: 417 201<391.381 789.839> 1312 200<730.618 1099.31>
DStem2: 276 283 353 177 0.785366 0.619032<0 213.591 1464.83 1636.13> 654 1299 520 1193 0.590813 -0.806809<6.35282 132.969 1100.32 1259.28>
LayerCount: 2
Fore
SplineSet
837 282 m 128,-1,1
 982 282 982 282 1098 404 c 0,2,3
 1212 523 1212 523 1276 761 c 0,4,5
 1312 895 1312 895 1312 991 c 0,6,7
 1312 1066 1312 1066 1290 1118 c 0,8,9
 1239 1240 1239 1240 1093 1240 c 0,10,11
 949 1240 949 1240 832 1118 c 0,12,13
 718 1000 718 1000 654 761 c 0,14,15
 618 627 618 627 618 531 c 0,16,17
 618 456 618 456 640 404 c 0,18,0
 692 282 692 282 837 282 c 128,-1,1
1119 1331 m 0,19,20
 1314 1331 1314 1331 1429 1192 c 9,21,-1
 1564 1299 l 1,22,-1
 1642 1193 l 1,23,-1
 1493 1075 l 1,24,25
 1512 1015 1512 1015 1512 943 c 0,26,27
 1512 860 1512 860 1486 761 c 0,28,29
 1431 557 1431 557 1299 418 c 1,30,-1
 1398 283 l 1,31,-1
 1263 177 l 1,32,-1
 1168 308 l 1,33,34
 995 191 995 191 812.5 191 c 128,-1,35
 630 191 630 191 520 308 c 1,36,-1
 353 177 l 1,37,-1
 276 283 l 1,38,-1
 447 418 l 1,39,40
 417 489 417 489 417 578 c 0,41,42
 417 662 417 662 444 761 c 0,43,44
 493 944 493 944 605 1075 c 1,45,-1
 520 1193 l 1,46,-1
 654 1299 l 1,47,-1
 731 1192 l 17,48,49
 922 1331 922 1331 1119 1331 c 0,19,20
EndSplineSet
Validated: 1
EndChar

StartChar: brokenbar
Encoding: 166 166 92
Width: 655
GlyphClass: 2
Flags: W
VStem: 220 619
DStem2: 209.603 -150 364.603 -150 0.258819 0.965926<32.8771 845.721 1068.17 1881.01>
LayerCount: 2
Fore
SplineSet
260 -150 m 2,0,1
 220 -150 220 -150 220 -119 c 0,2,3
 220 -111 220 -111 223 -100 c 2,4,-1
 413 610 l 2,5,6
 426 660 426 660 477 660 c 2,7,-1
 532 660 l 2,8,9
 571 660 571 660 571 629 c 0,10,11
 571 620 571 620 568 610 c 2,12,-1
 378 -100 l 2,13,14
 365 -150 365 -150 315 -150 c 2,15,-1
 260 -150 l 2,0,1
745 1660 m 2,16,-1
 800 1660 l 2,17,18
 839 1660 839 1660 839 1629 c 0,19,20
 839 1620 839 1620 836 1610 c 2,21,-1
 646 900 l 2,22,23
 633 850 633 850 583 850 c 2,24,-1
 528 850 l 2,25,26
 488 850 488 850 488 881 c 0,27,28
 488 889 488 889 491 900 c 2,29,-1
 681 1610 l 2,30,31
 695 1660 695 1660 745 1660 c 2,16,-1
EndSplineSet
Validated: 1
EndChar

StartChar: section
Encoding: 167 167 93
Width: 1142
GlyphClass: 2
Flags: W
HStem: -20 68<419.528 669.816> 96 264<387.844 534.809> 1150 264<1012.19 1159.16> 1462 68<877.184 1127.47>
VStem: 295 279<135.707 312.628> 345 178<656.031 846.054> 603 163<1172.6 1351.1> 781 163<158.903 337.404> 973 279<1197.37 1374.29> 1024 178<663.946 853.969>
DStem2: 645 598 538 448 0.885948 -0.463785<-151.049 266.783> 872 1131 753 990 0.885948 -0.463785<-135.369 279.197>
LayerCount: 2
Fore
SplineSet
545 -20 m 0,0,1
 420 -20 420 -20 347 61 c 0,2,3
 295 118 295 118 295 189 c 0,4,5
 295 227 295 227 307 261 c 0,6,7
 319 293 319 293 349 323 c 0,8,9
 387 360 387 360 445 360 c 0,10,11
 499 360 499 360 536.5 321.5 c 128,-1,12
 574 283 574 283 574 228 c 128,-1,13
 574 173 574 173 536 134.5 c 128,-1,14
 498 96 498 96 444 96 c 0,15,16
 414 96 414 96 387 111 c 1,17,18
 441 48 441 48 531 48 c 128,-1,19
 621 48 621 48 690 93 c 24,20,21
 758 137 758 137 775 199 c 0,22,23
 781 221 781 221 781 241 c 0,24,25
 781 326 781 326 675 379 c 2,26,-1
 538 448 l 2,27,28
 345 545 345 545 345 692 c 0,29,30
 345 724 345 724 354 759 c 0,31,32
 393 912 393 912 552 1022 c 1,33,-1
 651 959 l 1,34,35
 558 898 558 898 529 796 c 0,36,37
 523 775 523 775 523 755 c 0,38,39
 523 662 523 662 645 598 c 2,40,-1
 794 520 l 2,41,42
 944 441 944 441 944 310 c 0,43,44
 944 277 944 277 934 240 c 0,45,46
 902 120 902 120 785 43 c 0,47,48
 689 -20 689 -20 545 -20 c 0,0,1
1002 1530 m 0,49,50
 1127 1530 1127 1530 1200 1449 c 0,51,52
 1252 1392 1252 1392 1252 1321 c 0,53,54
 1252 1283 1252 1283 1240 1249 c 0,55,56
 1228 1217 1228 1217 1198 1187 c 0,57,58
 1160 1150 1160 1150 1102 1150 c 0,59,60
 1048 1150 1048 1150 1010.5 1188.5 c 128,-1,61
 973 1227 973 1227 973 1282 c 128,-1,62
 973 1337 973 1337 1011 1375.5 c 128,-1,63
 1049 1414 1049 1414 1103 1414 c 0,64,65
 1133 1414 1133 1414 1160 1399 c 1,66,67
 1106 1462 1106 1462 1016 1462 c 128,-1,68
 926 1462 926 1462 857 1417 c 24,69,70
 789 1373 789 1373 772 1311 c 0,71,72
 766 1289 766 1289 766 1269 c 0,73,74
 766 1184 766 1184 872 1131 c 2,75,-1
 1009 1062 l 2,76,77
 1202 965 1202 965 1202 818 c 0,78,79
 1202 786 1202 786 1193 751 c 0,80,81
 1154 598 1154 598 995 488 c 1,82,-1
 896 551 l 1,83,84
 989 612 989 612 1018 714 c 0,85,86
 1024 735 1024 735 1024 755 c 0,87,88
 1024 848 1024 848 902 912 c 2,89,-1
 753 990 l 2,90,91
 603 1069 603 1069 603 1200 c 0,92,93
 603 1233 603 1233 613 1270 c 0,94,95
 645 1390 645 1390 762 1467 c 0,96,97
 858 1530 858 1530 1002 1530 c 0,49,50
EndSplineSet
Validated: 1
EndChar

StartChar: dieresis
Encoding: 168 168 94
Width: 636
GlyphClass: 2
Flags: W
HStem: 1200 238<439.066 600.934 742.097 904.934>
VStem: 404 232<1235.07 1402.93> 706 234<1235.58 1402.42>
LayerCount: 2
Fore
SplineSet
824 1438 m 128,-1,1
 872 1438 872 1438 906 1404 c 128,-1,2
 940 1370 940 1370 940 1319 c 128,-1,3
 940 1268 940 1268 906 1234 c 128,-1,4
 872 1200 872 1200 824 1200 c 128,-1,5
 776 1200 776 1200 741 1234.5 c 128,-1,6
 706 1269 706 1269 706 1319 c 128,-1,7
 706 1369 706 1369 741 1403.5 c 128,-1,0
 776 1438 776 1438 824 1438 c 128,-1,1
520 1438 m 128,-1,9
 568 1438 568 1438 602 1404 c 128,-1,10
 636 1370 636 1370 636 1319 c 128,-1,11
 636 1268 636 1268 602 1234 c 128,-1,12
 568 1200 568 1200 520 1200 c 128,-1,13
 472 1200 472 1200 438 1234 c 128,-1,14
 404 1268 404 1268 404 1319 c 128,-1,15
 404 1370 404 1370 438 1404 c 128,-1,8
 472 1438 472 1438 520 1438 c 128,-1,9
EndSplineSet
Validated: 1
EndChar

StartChar: copyright
Encoding: 169 169 95
Width: 1405
GlyphClass: 2
Flags: W
HStem: 386 64<655.04 990.47> 568 50<830.361 1012.83> 1075 172<1135.82 1207.94> 1305 47<1001.77 1175.52> 1466 64<928.558 1261.96>
VStem: 382 77<624.327 999.014> 634 146<652.582 1003.7> 1109 174<1109.94 1219.18> 1154 10<752.69 757> 1461 75<916.456 1285.76>
LayerCount: 2
Fore
SplineSet
1082 1352 m 0,0,1
 1193 1352 1193 1352 1246 1283 c 0,2,3
 1283 1234 1283 1234 1283 1182 c 0,4,5
 1283 1139 1283 1139 1261 1109 c 0,6,7
 1236 1075 1236 1075 1194 1075 c 0,8,9
 1156 1075 1156 1075 1132 1100 c 0,10,11
 1109 1124 1109 1124 1109 1156 c 0,12,13
 1109 1194 1109 1194 1135 1220 c 0,14,15
 1161 1245 1161 1245 1209 1247 c 1,16,17
 1173 1305 1173 1305 1088 1305 c 0,18,19
 1016 1305 1016 1305 948 1242 c 0,20,21
 867 1167 867 1167 811 960 c 0,22,23
 780 846 780 846 780 772 c 0,24,25
 780 719 780 719 796 686 c 0,26,27
 828 618 828 618 907 618 c 0,28,29
 1034 618 1034 618 1154 757 c 1,30,-1
 1164 757 l 1,31,-1
 1141 671 l 1,32,33
 1028 568 1028 568 886 568 c 0,34,35
 742 568 742 568 682 648 c 0,36,37
 634 712 634 712 634 812 c 0,38,39
 634 881 634 881 657 966 c 0,40,41
 712 1172 712 1172 849 1273 c 0,42,43
 957 1352 957 1352 1082 1352 c 0,0,1
1113 1530 m 0,44,45
 1340 1530 1340 1530 1459 1369 c 0,46,47
 1536 1266 1536 1266 1536 1126 c 0,48,49
 1536 1050 1536 1050 1513 963 c 0,50,51
 1445 706 1445 706 1239 549 c 0,52,53
 1024 386 1024 386 804 386 c 0,54,55
 577 386 577 386 458 547 c 0,56,57
 382 649 382 649 382 787 c 0,58,59
 382 865 382 865 406 954 c 0,60,61
 473 1200 473 1200 678 1367 c 0,62,63
 879 1530 879 1530 1113 1530 c 0,44,45
1091 1466 m 0,64,65
 917 1466 917 1466 721 1312 c 0,66,67
 533 1165 533 1165 481 953 c 0,68,69
 459 864 459 864 459 790 c 0,70,71
 459 671 459 671 516 593 c 0,72,73
 620 450 620 450 826 450 c 0,74,75
 1006 450 1006 450 1201 605 c 0,76,77
 1383 750 1383 750 1439 963 c 0,78,79
 1461 1049 1461 1049 1461 1121 c 0,80,81
 1461 1240 1461 1240 1401 1323 c 0,82,83
 1297 1466 1297 1466 1091 1466 c 0,64,65
EndSplineSet
Validated: 1
EndChar

StartChar: guillemotleft
Encoding: 171 171 96
Width: 1189
GlyphClass: 2
Flags: W
DStem2: 499 770 346 730 0.402401 -0.915463<0 470.595> 346 730 499 770 0.682033 0.731321<133.604 777.727> 886 770 733 730 0.402401 -0.915463<0 470.595> 733 730 886 770 0.682033 0.731321<133.604 777.727>
LayerCount: 2
Fore
SplineSet
1270 1293 m 0,0,1
 1280 1293 1280 1293 1288 1287 c 2,2,-1
 1313 1267 l 2,3,4
 1323 1259 1323 1259 1323 1251 c 0,5,6
 1323 1247 1323 1247 1322 1243 c 0,7,8
 1320 1235 1320 1235 1312 1226 c 2,9,-1
 886 770 l 1,10,-1
 1072 364 l 2,11,12
 1078 351 1078 351 1078 340 c 0,13,14
 1078 335 1078 335 1077 331 c 0,15,16
 1072 312 1072 312 1044 294 c 2,17,-1
 1000 266 l 2,18,19
 980 253 980 253 965 253 c 0,20,21
 943 253 943 253 933 275 c 2,22,-1
 733 730 l 1,23,-1
 1245 1279 l 2,24,25
 1258 1293 1258 1293 1270 1293 c 0,0,1
883 1293 m 0,26,27
 894 1293 894 1293 901 1287 c 2,28,-1
 926 1267 l 2,29,30
 936 1259 936 1259 936 1251 c 0,31,32
 936 1247 936 1247 935 1243 c 0,33,34
 933 1235 933 1235 925 1226 c 2,35,-1
 499 770 l 1,36,-1
 685 364 l 2,37,38
 691 351 691 351 691 340 c 0,39,40
 691 335 691 335 690 331 c 0,41,42
 685 312 685 312 657 294 c 2,43,-1
 613 266 l 2,44,45
 593 253 593 253 578 253 c 0,46,47
 556 253 556 253 546 275 c 2,48,-1
 346 730 l 1,49,-1
 858 1279 l 2,50,51
 871 1293 871 1293 883 1293 c 0,26,27
EndSplineSet
Validated: 1
EndChar

StartChar: logicalnot
Encoding: 172 172 97
Width: 1218
GlyphClass: 2
Flags: W
HStem: 680 150<360.77 1044>
DStem2: 818 410 972 410 0.641253 0.76733<22.6093 352.102>
LayerCount: 2
Fore
SplineSet
422 830 m 2,0,-1
 1240 830 l 2,1,2
 1280 830 1280 830 1280 799 c 0,3,4
 1280 791 1280 791 1277 780 c 0,5,6
 1275 772 1275 772 1267 763 c 2,7,-1
 972 410 l 2,8,9
 947 380 947 380 920 380 c 2,10,-1
 826 380 l 2,11,12
 808 380 808 380 808 393 c 0,13,14
 808 398 808 398 818 410 c 2,15,-1
 1044 680 l 9,16,-1
 382 680 l 2,17,18
 343 680 343 680 343 711 c 0,19,20
 343 720 343 720 346 730 c 2,21,-1
 359 780 l 2,22,23
 372 830 372 830 422 830 c 2,0,-1
EndSplineSet
Validated: 1
EndChar

StartChar: uni00AD
Encoding: 173 173 98
Width: 1133
GlyphClass: 2
Flags: W
HStem: 680 150<360.77 1176.94>
LayerCount: 2
Fore
SplineSet
422 830 m 2,0,-1
 1155 830 l 2,1,2
 1195 830 1195 830 1195 799 c 0,3,4
 1195 791 1195 791 1192 780 c 2,5,-1
 1179 730 l 2,6,7
 1166 680 1166 680 1115 680 c 2,8,-1
 382 680 l 2,9,10
 343 680 343 680 343 711 c 0,11,12
 343 720 343 720 346 730 c 2,13,-1
 359 780 l 2,14,15
 372 830 372 830 422 830 c 2,0,-1
EndSplineSet
Validated: 1
EndChar

StartChar: registered
Encoding: 174 174 99
Width: 1405
GlyphClass: 2
Flags: W
HStem: 386 64<655.04 990.47> 587 63<572.805 682.5 1049 1197.88> 1121 21G<638 743> 1318 55<903.681 1116.15> 1466 64<928.558 1261.96>
VStem: 382 77<624.327 999.014> 549 21<662.473 706> 1162 152<1015.93 1289.18> 1461 75<916.456 1285.76>
DStem2: 574.596 386 714.237 386 0.258819 0.965926<263.709 516.622 576.149 860.973>
LayerCount: 2
Fore
SplineSet
1113 1530 m 0,0,1
 1340 1530 1340 1530 1459 1369 c 0,2,3
 1536 1266 1536 1266 1536 1126 c 0,4,5
 1536 1050 1536 1050 1513 963 c 0,6,7
 1445 706 1445 706 1239 549 c 0,8,9
 1024 386 1024 386 804 386 c 0,10,11
 577 386 577 386 458 547 c 0,12,13
 382 649 382 649 382 787 c 0,14,15
 382 865 382 865 406 954 c 0,16,17
 473 1200 473 1200 678 1367 c 0,18,19
 879 1530 879 1530 1113 1530 c 0,0,1
1091 1466 m 0,20,21
 917 1466 917 1466 721 1312 c 0,22,23
 533 1165 533 1165 481 953 c 0,24,25
 459 864 459 864 459 790 c 0,26,27
 459 671 459 671 516 593 c 0,28,29
 620 450 620 450 826 450 c 0,30,31
 1006 450 1006 450 1201 605 c 0,32,33
 1383 750 1383 750 1439 963 c 0,34,35
 1461 1049 1461 1049 1461 1121 c 0,36,37
 1461 1240 1461 1240 1401 1323 c 0,38,39
 1297 1466 1297 1466 1091 1466 c 0,20,21
1064 1373 m 0,40,41
 1211 1373 1211 1373 1274 1294 c 0,42,43
 1314 1243 1314 1243 1314 1174 c 0,44,45
 1314 1138 1314 1138 1303 1097 c 0,46,47
 1276 998 1276 998 1202 928 c 0,48,49
 1129 859 1129 859 1044 836 c 1,50,51
 1118 806 1118 806 1127 743 c 2,52,-1
 1131 714 l 2,53,54
 1138 662 1138 662 1181 662 c 0,55,56
 1223 662 1223 662 1264 727 c 1,57,-1
 1279 727 l 1,58,59
 1256 666 1256 666 1207 625.5 c 128,-1,60
 1158 585 1158 585 1100 585 c 0,61,62
 998 585 998 585 982 680 c 2,63,-1
 974 728 l 2,64,65
 959 816 959 816 909 828 c 24,66,67
 857 841 857 841 839 850 c 1,68,-1
 804 721 l 2,69,70
 788 662 788 662 755 629 c 0,71,72
 713 587 713 587 652 587 c 0,73,74
 580 587 580 587 556 636 c 0,75,76
 549 650 549 650 549 668 c 0,77,78
 549 685 549 685 555 706 c 1,79,-1
 570 706 l 1,80,81
 570 650 570 650 607 650 c 0,82,83
 645 650 645 650 659 701 c 2,84,-1
 786 1177 l 2,85,86
 794 1206 794 1206 823 1206 c 2,87,-1
 905 1206 l 2,88,89
 928 1206 928 1206 928 1189 c 0,90,91
 928 1185 928 1185 926 1177 c 2,92,-1
 861 932 l 1,93,94
 887 883 887 883 960 883 c 0,95,96
 1019 883 1019 883 1062 925 c 0,97,98
 1118 979 1118 979 1148 1090 c 0,99,100
 1162 1141 1162 1141 1162 1181 c 0,101,102
 1162 1222 1162 1222 1147 1252 c 0,103,104
 1115 1318 1115 1318 1022 1318 c 0,105,106
 829 1318 829 1318 657 1121 c 1,107,-1
 638 1130 l 1,108,109
 805 1373 805 1373 1064 1373 c 0,40,41
EndSplineSet
Validated: 1
EndChar

StartChar: macron
Encoding: 175 175 100
Width: 650
GlyphClass: 2
Flags: W
HStem: 1246 130<406.994 946.006>
VStem: 393 567<1288.21 1333.79>
LayerCount: 2
Fore
SplineSet
459 1376 m 2,0,-1
 929 1376 l 2,1,2
 960 1376 960 1376 960 1351 c 0,3,4
 960 1344 960 1344 958 1336 c 2,5,-1
 945 1286 l 2,6,7
 935 1246 935 1246 894 1246 c 2,8,-1
 424 1246 l 2,9,10
 393 1246 393 1246 393 1270 c 0,11,12
 393 1278 393 1278 395 1286 c 2,13,-1
 408 1336 l 2,14,15
 418 1376 418 1376 459 1376 c 2,0,-1
EndSplineSet
Validated: 1
EndChar

StartChar: degree
Encoding: 176 176 101
Width: 558
GlyphClass: 2
Flags: W
HStem: 1079 53<528.248 652.75> 1528 52<618.905 742.258>
VStem: 395 116<1138.5 1407.4> 759 117<1249.77 1500.07>
LayerCount: 2
Fore
SplineSet
687 1528 m 0,0,1
 635 1528 635 1528 598 1481 c 0,2,3
 556 1429 556 1429 529 1330 c 0,4,5
 511 1263 511 1263 511 1220 c 0,6,7
 511 1196 511 1196 517 1179 c 0,8,9
 533 1132 533 1132 583 1132 c 0,10,11
 635 1132 635 1132 673 1179 c 0,12,13
 715 1231 715 1231 741 1330 c 0,14,15
 759 1399 759 1399 759 1442 c 0,16,17
 759 1465 759 1465 754 1481 c 0,18,19
 737 1528 737 1528 687 1528 c 0,0,1
701 1580 m 128,-1,21
 787 1580 787 1580 839 1521 c 0,22,23
 876 1478 876 1478 876 1413 c 0,24,25
 876 1375 876 1375 864 1330 c 0,26,27
 832 1209 832 1209 736 1139 c 0,28,29
 653 1079 653 1079 567.5 1079 c 128,-1,30
 482 1079 482 1079 432 1139 c 0,31,32
 395 1184 395 1184 395 1250 c 0,33,34
 395 1290 395 1290 406 1330 c 0,35,36
 438 1451 438 1451 535 1521 c 0,37,20
 615 1580 615 1580 701 1580 c 128,-1,21
EndSplineSet
Validated: 1
EndChar

StartChar: plusminus
Encoding: 177 177 102
Width: 1233
GlyphClass: 2
Flags: W
HStem: 256 150<297.057 1113.23> 808 150<445.057 759 949 1261.23>
DStem2: 610.333 256 760.333 256 0.258819 0.965926<250.285 571.669 765.733 1086.86>
LayerCount: 2
Fore
SplineSet
940 1300 m 2,0,-1
 990 1300 l 2,1,2
 1030 1300 1030 1300 1030 1269 c 0,3,4
 1030 1261 1030 1261 1027 1250 c 2,5,-1
 949 958 l 1,6,-1
 1240 958 l 2,7,8
 1279 958 1279 958 1279 927 c 0,9,10
 1279 918 1279 918 1276 908 c 2,11,-1
 1263 858 l 2,12,13
 1250 808 1250 808 1200 808 c 2,14,-1
 909 808 l 1,15,-1
 830 516 l 2,16,17
 817 466 817 466 767 466 c 2,18,-1
 717 466 l 2,19,20
 677 466 677 466 677 497 c 0,21,22
 677 505 677 505 680 516 c 2,23,-1
 759 808 l 1,24,-1
 467 808 l 2,25,26
 427 808 427 808 427 839 c 0,27,28
 427 847 427 847 430 858 c 2,29,-1
 443 908 l 2,30,31
 456 958 456 958 507 958 c 2,32,-1
 799 958 l 1,33,-1
 877 1250 l 2,34,35
 890 1300 890 1300 940 1300 c 2,0,-1
359 406 m 2,36,-1
 1092 406 l 2,37,38
 1131 406 1131 406 1131 375 c 0,39,40
 1131 366 1131 366 1128 356 c 2,41,-1
 1115 306 l 2,42,43
 1102 256 1102 256 1052 256 c 2,44,-1
 319 256 l 2,45,46
 279 256 279 256 279 287 c 0,47,48
 279 295 279 295 282 306 c 2,49,-1
 295 356 l 2,50,51
 309 406 309 406 359 406 c 2,36,-1
EndSplineSet
Validated: 1
EndChar

StartChar: acute
Encoding: 180 180 103
Width: 436
GlyphClass: 2
Flags: W
HStem: 1160 324
VStem: 366 393
LayerCount: 2
Fore
SplineSet
669 1484 m 0,0,1
 713 1484 713 1484 737 1456 c 0,2,3
 759 1430 759 1430 759 1391 c 0,4,5
 759 1335 759 1335 698 1307 c 2,6,-1
 377 1160 l 1,7,-1
 366 1178 l 1,8,-1
 576 1439 l 2,9,10
 612 1484 612 1484 669 1484 c 0,0,1
EndSplineSet
Validated: 1
EndChar

StartChar: uni00B5
Encoding: 181 181 104
Width: 1270
GlyphClass: 2
Flags: W
HStem: -430 15<469.387 478.823> -20 111<530.804 739.964 1020.86 1196.45> 1013 107<370.023 564.5> 1080 20G<1189.5 1314.5>
VStem: 200 174<-290.532 16.3828> 469 182<773.062 1011.38> 913 183<88.4497 261.767>
DStem2: 104.782 -430 284.782 -430 0.258819 0.965926<313.581 511.403 767.21 1428.51> 754.282 -430 934.435 -430 0.258819 0.965926<647.415 1595.72>
LayerCount: 2
Fore
SplineSet
1056 -20 m 128,-1,1
 945 -20 945 -20 919 72 c 0,2,3
 913 92 913 92 913 119 c 0,4,5
 913 151 913 151 921 192 c 1,6,7
 873 119 873 119 805 66 c 0,8,9
 693 -20 693 -20 555 -20 c 0,10,11
 465 -20 465 -20 405 19 c 1,12,-1
 400 0 l 2,13,14
 374 -100 374 -100 374 -180 c 0,15,16
 374 -339 374 -339 479 -415 c 1,17,-1
 475 -430 l 1,18,19
 200 -365 200 -365 200 -135 c 0,20,21
 200 -74 200 -74 220 0 c 2,22,-1
 461 900 l 2,23,24
 469 930 469 930 469 952 c 0,25,26
 469 1013 469 1013 407 1013 c 0,27,28
 325 1013 325 1013 266 900 c 1,29,-1
 251 900 l 1,30,31
 269 974 269 974 321 1032 c 0,32,33
 399 1120 399 1120 510 1120 c 0,34,35
 619 1120 619 1120 645 1028 c 0,36,37
 651 1009 651 1009 651 982 c 0,38,39
 651 933 651 933 631 861 c 2,40,-1
 504 390 l 2,41,42
 484 314 484 314 484 261 c 0,43,44
 484 231 484 231 490 208 c 0,45,46
 522 91 522 91 661 91 c 0,47,48
 793 91 793 91 889 210 c 0,49,50
 944 279 944 279 974 390 c 2,51,-1
 1151 1050 l 2,52,53
 1164 1100 1164 1100 1215 1100 c 2,54,-1
 1295 1100 l 2,55,56
 1334 1100 1334 1100 1334 1069 c 0,57,58
 1334 1061 1334 1061 1331 1050 c 2,59,-1
 1104 200 l 2,60,61
 1096 170 1096 170 1096 148 c 0,62,63
 1096 87 1096 87 1157 87 c 0,64,65
 1239 87 1239 87 1299 200 c 1,66,-1
 1314 200 l 1,67,68
 1295 125 1295 125 1246 69 c 0,69,0
 1167 -20 1167 -20 1056 -20 c 128,-1,1
EndSplineSet
Validated: 1
EndChar

StartChar: paragraph
Encoding: 182 182 105
Width: 1102
GlyphClass: 2
Flags: W
HStem: 0 65<740 800> 1510 20G<906 1092>
DStem2: 651.603 0 722.583 0 0.258819 0.965926<85.6641 791.128> 783.221 0 852.26 0 0.258819 0.965926<67.1279 1327.79>
LayerCount: 2
Fore
SplineSet
702 0 m 2,0,1
 662 0 662 0 662 31 c 0,2,3
 662 39 662 39 665 50 c 2,4,-1
 857 764 l 1,5,6
 812 760 812 760 776 760 c 0,7,8
 609 760 609 760 525 838 c 0,9,10
 441 915 441 915 441 1034 c 0,11,12
 441 1085 441 1085 457 1145 c 0,13,14
 513 1353 513 1353 703 1459 c 0,15,16
 831 1530 831 1530 981 1530 c 0,17,18
 1203 1530 1203 1530 1203 1356 c 0,19,20
 1203 1310 1203 1310 1188 1253 c 2,21,-1
 865 50 l 2,22,23
 852 0 852 0 802 0 c 2,24,-1
 702 0 l 2,0,1
800 65 m 1,25,-1
 1127 1283 l 1,26,-1
 1067 1283 l 1,27,-1
 740 65 l 1,28,-1
 800 65 l 1,25,-1
EndSplineSet
Validated: 1
EndChar

StartChar: periodcentered
Encoding: 183 183 106
Width: 359
GlyphClass: 2
Flags: W
HStem: 625 264<292.191 473.324>
VStem: 253 259<664.707 849.293>
LayerCount: 2
Fore
SplineSet
383 889 m 128,-1,1
 437 889 437 889 474.5 850.5 c 128,-1,2
 512 812 512 812 512 757 c 128,-1,3
 512 702 512 702 474.5 663.5 c 128,-1,4
 437 625 437 625 383 625 c 128,-1,5
 329 625 329 625 291 663.5 c 128,-1,6
 253 702 253 702 253 757 c 128,-1,7
 253 812 253 812 291 850.5 c 128,-1,0
 329 889 329 889 383 889 c 128,-1,1
EndSplineSet
Validated: 1
EndChar

StartChar: cedilla
Encoding: 184 184 107
Width: 364
GlyphClass: 2
Flags: W
HStem: -430 138<-40.1465 114.465> -107 107<58 117.178>
VStem: 139 123<-265.995 -130.627>
LayerCount: 2
Fore
SplineSet
58 0 m 1,0,-1
 138 0 l 1,1,-1
 128 -39 l 1,2,3
 187 -49 187 -49 220 -80 c 0,4,5
 262 -118 262 -118 262 -173 c 0,6,7
 262 -199 262 -199 256 -223 c 0,8,9
 231 -309 231 -309 168 -362 c 0,10,11
 85 -430 85 -430 -15 -430 c 0,12,13
 -55 -430 -55 -430 -55 -399 c 0,14,15
 -55 -391 -55 -391 -52 -380 c 2,16,-1
 -42 -342 l 2,17,18
 -29 -292 -29 -292 22 -292 c 0,19,20
 60 -292 60 -292 95 -266 c 0,21,22
 126 -243 126 -243 136 -204 c 0,23,24
 139 -191 139 -191 139 -179 c 0,25,26
 139 -150 139 -150 118 -130 c 0,27,28
 92 -107 92 -107 29 -107 c 1,29,-1
 58 0 l 1,0,-1
EndSplineSet
Validated: 1
EndChar

StartChar: guillemotright
Encoding: 187 187 108
Width: 1188
GlyphClass: 2
Flags: W
DStem2: 291 320 870 816 0.682033 0.731321<-20.0947 624.029> 670 1271 531 1182 0.402401 -0.915463<1.47263 472.067> 678 320 1257 816 0.682033 0.731321<-20.0947 624.029> 1057 1271 918 1182 0.402401 -0.915463<1.47263 472.067>
LayerCount: 2
Fore
SplineSet
333 253 m 0,0,1
 322 253 322 253 315 259 c 2,2,-1
 290 279 l 2,3,4
 280 287 280 287 280 295 c 0,5,6
 280 299 280 299 281 303 c 0,7,8
 283 311 283 311 291 320 c 2,9,-1
 717 776 l 1,10,-1
 531 1182 l 2,11,12
 525 1195 525 1195 525 1206 c 0,13,14
 525 1211 525 1211 526 1215 c 0,15,16
 531 1234 531 1234 559 1252 c 2,17,-1
 603 1280 l 2,18,19
 623 1293 623 1293 638 1293 c 0,20,21
 660 1293 660 1293 670 1271 c 2,22,-1
 870 816 l 1,23,-1
 358 267 l 2,24,25
 345 253 345 253 333 253 c 0,0,1
720 253 m 0,26,27
 710 253 710 253 702 259 c 2,28,-1
 677 279 l 2,29,30
 667 287 667 287 667 295 c 0,31,32
 667 299 667 299 668 303 c 0,33,34
 670 311 670 311 678 320 c 2,35,-1
 1104 776 l 1,36,-1
 918 1182 l 2,37,38
 912 1195 912 1195 912 1206 c 0,39,40
 912 1211 912 1211 913 1215 c 0,41,42
 918 1234 918 1234 946 1252 c 2,43,-1
 990 1280 l 2,44,45
 1010 1293 1010 1293 1025 1293 c 0,46,47
 1047 1293 1047 1293 1057 1271 c 2,48,-1
 1257 816 l 1,49,-1
 745 267 l 2,50,51
 732 253 732 253 720 253 c 0,26,27
EndSplineSet
Validated: 1
EndChar

StartChar: questiondown
Encoding: 191 191 109
Width: 1256
GlyphClass: 2
Flags: W
HStem: -430 96<440.154 736.565> -70 262<894.676 1012.56> 856 264<863.676 1044.81>
VStem: 130 229<-253.643 62.1038> 825 259<895.707 1080.29> 856 259<-31.3239 152.293>
LayerCount: 2
Fore
SplineSet
492 -430 m 0,0,1
 280 -430 280 -430 189 -305 c 0,2,3
 130 -225 130 -225 130 -125 c 0,4,5
 130 -75 130 -75 145 -20 c 0,6,7
 205 205 205 205 447 365 c 2,8,-1
 680 519 l 2,9,10
 806 602 806 602 846 750 c 24,11,12
 854 780 854 780 884 780 c 2,13,-1
 926 780 l 2,14,15
 950 780 950 780 950 762 c 0,16,17
 950 757 950 757 948 750 c 0,18,19
 901 573 901 573 742 436 c 2,20,-1
 617 328 l 2,21,22
 415 154 415 154 374 -2 c 0,23,24
 359 -60 359 -60 359 -109 c 0,25,26
 359 -177 359 -177 385 -226 c 0,27,28
 444 -334 444 -334 596 -334 c 0,29,30
 738 -334 738 -334 856 -246 c 0,31,32
 957 -171 957 -171 1013 -66 c 1,33,34
 1000 -70 1000 -70 985 -70 c 0,35,36
 931 -70 931 -70 893.5 -32.5 c 128,-1,37
 856 5 856 5 856 60 c 128,-1,38
 856 115 856 115 893.5 153.5 c 128,-1,39
 931 192 931 192 985 192 c 128,-1,40
 1039 192 1039 192 1077 153.5 c 128,-1,41
 1115 115 1115 115 1115 60 c 0,42,43
 1115 -120 1115 -120 901 -291 c 0,44,45
 727 -430 727 -430 492 -430 c 0,0,1
954 1120 m 128,-1,47
 1008 1120 1008 1120 1046 1081.5 c 128,-1,48
 1084 1043 1084 1043 1084 988 c 128,-1,49
 1084 933 1084 933 1046 894.5 c 128,-1,50
 1008 856 1008 856 954 856 c 128,-1,51
 900 856 900 856 862.5 894.5 c 128,-1,52
 825 933 825 933 825 988 c 128,-1,53
 825 1043 825 1043 862.5 1081.5 c 128,-1,46
 900 1120 900 1120 954 1120 c 128,-1,47
EndSplineSet
Validated: 1
EndChar

StartChar: endash
Encoding: 8211 8211 110
Width: 1133
GlyphClass: 2
Flags: W
HStem: 680 150<360.77 1176.94>
LayerCount: 2
Fore
SplineSet
422 830 m 2,0,-1
 1155 830 l 2,1,2
 1195 830 1195 830 1195 799 c 0,3,4
 1195 791 1195 791 1192 780 c 2,5,-1
 1179 730 l 2,6,7
 1166 680 1166 680 1115 680 c 2,8,-1
 382 680 l 2,9,10
 343 680 343 680 343 711 c 0,11,12
 343 720 343 720 346 730 c 2,13,-1
 359 780 l 2,14,15
 372 830 372 830 422 830 c 2,0,-1
EndSplineSet
Validated: 1
EndChar

StartChar: emdash
Encoding: 8212 8212 111
Width: 1533
GlyphClass: 2
Flags: W
HStem: 680 150<360.77 1576.94>
LayerCount: 2
Fore
SplineSet
422 830 m 2,0,-1
 1555 830 l 2,1,2
 1595 830 1595 830 1595 799 c 0,3,4
 1595 791 1595 791 1592 780 c 2,5,-1
 1579 730 l 2,6,7
 1566 680 1566 680 1515 680 c 2,8,-1
 382 680 l 2,9,10
 343 680 343 680 343 711 c 0,11,12
 343 720 343 720 346 730 c 2,13,-1
 359 780 l 2,14,15
 372 830 372 830 422 830 c 2,0,-1
EndSplineSet
Validated: 1
EndChar

StartChar: afii00208
Encoding: 8213 8213 112
Width: 1533
GlyphClass: 2
Flags: W
HStem: 680 150<360.77 1576.94>
LayerCount: 2
Fore
SplineSet
422 830 m 2,0,-1
 1555 830 l 2,1,2
 1595 830 1595 830 1595 799 c 0,3,4
 1595 791 1595 791 1592 780 c 2,5,-1
 1579 730 l 2,6,7
 1566 680 1566 680 1515 680 c 2,8,-1
 382 680 l 2,9,10
 343 680 343 680 343 711 c 0,11,12
 343 720 343 720 346 730 c 2,13,-1
 359 780 l 2,14,15
 372 830 372 830 422 830 c 2,0,-1
EndSplineSet
Validated: 1
EndChar

StartChar: quoteleft
Encoding: 8216 8216 113
Width: 401
GlyphClass: 2
Flags: W
HStem: 1176 404<549 695>
VStem: 410 260<1210.84 1366>
LayerCount: 2
Fore
SplineSet
549 1176 m 0,0,1
 529 1176 529 1176 510 1181 c 0,2,3
 458 1195 458 1195 432 1238 c 0,4,5
 410 1274 410 1274 410 1321 c 0,6,7
 410 1343 410 1343 416 1366 c 0,8,9
 435 1436 435 1436 497 1495 c 0,10,11
 588 1580 588 1580 695 1580 c 0,12,13
 740 1580 740 1580 782 1569 c 1,14,-1
 779 1556 l 1,15,16
 692 1534 692 1534 628 1481 c 0,17,18
 596 1454 596 1454 571 1415 c 1,19,20
 633 1398 633 1398 654 1361 c 0,21,22
 670 1332 670 1332 670 1301 c 0,23,24
 670 1281 670 1281 665 1265 c 0,25,26
 651 1218 651 1218 608 1192 c 0,27,28
 581 1176 581 1176 549 1176 c 0,0,1
EndSplineSet
Validated: 1
EndChar

StartChar: quoteright
Encoding: 8217 8217 114
Width: 401
GlyphClass: 2
Flags: W
HStem: 1176 404<445 591>
VStem: 470 260<1390 1545.16>
LayerCount: 2
Fore
SplineSet
591 1580 m 0,0,1
 611 1580 611 1580 630 1575 c 0,2,3
 682 1561 682 1561 708 1518 c 0,4,5
 730 1482 730 1482 730 1435 c 0,6,7
 730 1413 730 1413 724 1390 c 0,8,9
 705 1320 705 1320 643 1261 c 0,10,11
 552 1176 552 1176 445 1176 c 0,12,13
 400 1176 400 1176 358 1187 c 1,14,-1
 361 1200 l 1,15,16
 448 1222 448 1222 512 1275 c 0,17,18
 544 1302 544 1302 569 1341 c 1,19,20
 507 1358 507 1358 486 1395 c 0,21,22
 470 1424 470 1424 470 1455 c 0,23,24
 470 1475 470 1475 475 1491 c 0,25,26
 489 1538 489 1538 532 1564 c 0,27,28
 559 1580 559 1580 591 1580 c 0,0,1
EndSplineSet
Validated: 1
EndChar

StartChar: quotesinglbase
Encoding: 8218 8218 115
Width: 368
GlyphClass: 2
Flags: W
HStem: -183 404<52 198>
VStem: 77 260<31 186.161>
LayerCount: 2
Fore
SplineSet
198 221 m 0,0,1
 218 221 218 221 237 216 c 0,2,3
 289 202 289 202 315 159 c 0,4,5
 337 123 337 123 337 76 c 0,6,7
 337 54 337 54 331 31 c 0,8,9
 312 -39 312 -39 250 -98 c 0,10,11
 159 -183 159 -183 52 -183 c 0,12,13
 7 -183 7 -183 -35 -172 c 1,14,-1
 -32 -159 l 1,15,16
 55 -137 55 -137 119 -84 c 0,17,18
 151 -57 151 -57 176 -18 c 1,19,20
 114 -1 114 -1 93 36 c 0,21,22
 77 65 77 65 77 96 c 0,23,24
 77 116 77 116 82 132 c 0,25,26
 96 179 96 179 139 205 c 0,27,28
 166 221 166 221 198 221 c 0,0,1
EndSplineSet
Validated: 1
EndChar

StartChar: quotereversed
Encoding: 8219 8219 116
Width: 412
GlyphClass: 2
Flags: W
HStem: 1105 21G<632 661> 1335 245<552.099 682.157>
VStem: 434 277<1360.91 1530.26> 434 118<1241.5 1343>
LayerCount: 2
Fore
SplineSet
581 1580 m 0,0,1
 601 1580 601 1580 618 1575 c 0,2,3
 671 1559 671 1559 695 1518 c 0,4,5
 711 1491 711 1491 711 1456 c 0,6,7
 711 1441 711 1441 706 1423 c 0,8,9
 693 1375 693 1375 650 1349 c 0,10,11
 627 1335 627 1335 600 1335 c 0,12,13
 582 1335 582 1335 552 1343 c 1,14,15
 554 1295 554 1295 568 1257 c 0,16,17
 596 1181 596 1181 661 1117 c 1,18,-1
 657 1105 l 1,19,20
 607 1118 607 1118 576 1139 c 0,21,22
 480 1202 480 1202 448 1311 c 0,23,24
 434 1358 434 1358 434 1400 c 0,25,26
 434 1433 434 1433 442 1463 c 0,27,28
 461 1531 461 1531 522 1565 c 0,29,30
 549 1580 549 1580 581 1580 c 0,0,1
EndSplineSet
Validated: 19457
EndChar

StartChar: quotedblleft
Encoding: 8220 8220 117
Width: 705
GlyphClass: 2
Flags: W
HStem: 1176 404<549 695 852 998>
VStem: 410 260<1210.84 1366> 713 260<1210.84 1366>
LayerCount: 2
Fore
SplineSet
549 1176 m 0,0,1
 529 1176 529 1176 510 1181 c 0,2,3
 458 1195 458 1195 432 1238 c 0,4,5
 410 1274 410 1274 410 1321 c 0,6,7
 410 1343 410 1343 416 1366 c 0,8,9
 435 1436 435 1436 497 1495 c 0,10,11
 588 1580 588 1580 695 1580 c 0,12,13
 740 1580 740 1580 782 1569 c 1,14,-1
 779 1556 l 1,15,16
 692 1534 692 1534 628 1481 c 0,17,18
 596 1454 596 1454 571 1415 c 1,19,20
 633 1398 633 1398 654 1361 c 0,21,22
 670 1332 670 1332 670 1301 c 0,23,24
 670 1281 670 1281 665 1265 c 0,25,26
 651 1218 651 1218 608 1192 c 0,27,28
 581 1176 581 1176 549 1176 c 0,0,1
852 1176 m 0,29,30
 832 1176 832 1176 813 1181 c 0,31,32
 761 1195 761 1195 735 1238 c 0,33,34
 713 1274 713 1274 713 1321 c 0,35,36
 713 1343 713 1343 719 1366 c 0,37,38
 738 1436 738 1436 800 1495 c 0,39,40
 891 1580 891 1580 998 1580 c 0,41,42
 1043 1580 1043 1580 1085 1569 c 1,43,-1
 1082 1556 l 1,44,45
 995 1534 995 1534 931 1481 c 0,46,47
 899 1454 899 1454 874 1415 c 1,48,49
 936 1398 936 1398 957 1361 c 0,50,51
 973 1332 973 1332 973 1301 c 0,52,53
 973 1281 973 1281 968 1265 c 0,54,55
 954 1218 954 1218 911 1192 c 0,56,57
 884 1176 884 1176 852 1176 c 0,29,30
EndSplineSet
Validated: 1
EndChar

StartChar: quotedblright
Encoding: 8221 8221 118
Width: 705
GlyphClass: 2
Flags: W
HStem: 1176 404<445 591 748 894>
VStem: 470 260<1390 1545.16> 773 260<1390 1545.16>
LayerCount: 2
Fore
SplineSet
894 1580 m 0,0,1
 914 1580 914 1580 933 1575 c 0,2,3
 985 1561 985 1561 1011 1518 c 0,4,5
 1033 1482 1033 1482 1033 1435 c 0,6,7
 1033 1413 1033 1413 1027 1390 c 0,8,9
 1008 1320 1008 1320 946 1261 c 0,10,11
 855 1176 855 1176 748 1176 c 0,12,13
 703 1176 703 1176 661 1187 c 1,14,-1
 664 1200 l 1,15,16
 751 1222 751 1222 815 1275 c 0,17,18
 847 1302 847 1302 872 1341 c 1,19,20
 810 1358 810 1358 789 1395 c 0,21,22
 773 1424 773 1424 773 1455 c 0,23,24
 773 1475 773 1475 778 1491 c 0,25,26
 792 1538 792 1538 835 1564 c 0,27,28
 862 1580 862 1580 894 1580 c 0,0,1
591 1580 m 0,29,30
 611 1580 611 1580 630 1575 c 0,31,32
 682 1561 682 1561 708 1518 c 0,33,34
 730 1482 730 1482 730 1435 c 0,35,36
 730 1413 730 1413 724 1390 c 0,37,38
 705 1320 705 1320 643 1261 c 0,39,40
 552 1176 552 1176 445 1176 c 0,41,42
 400 1176 400 1176 358 1187 c 1,43,-1
 361 1200 l 1,44,45
 448 1222 448 1222 512 1275 c 0,46,47
 544 1302 544 1302 569 1341 c 1,48,49
 507 1358 507 1358 486 1395 c 0,50,51
 470 1424 470 1424 470 1455 c 0,52,53
 470 1475 470 1475 475 1491 c 0,54,55
 489 1538 489 1538 532 1564 c 0,56,57
 559 1580 559 1580 591 1580 c 0,29,30
EndSplineSet
Validated: 1
EndChar

StartChar: quotedblbase
Encoding: 8222 8222 119
Width: 685
GlyphClass: 2
Flags: W
HStem: -183 404<61 207 364 510>
VStem: 86 260<31 186.161> 389 260<31 186.161>
LayerCount: 2
Fore
SplineSet
510 221 m 0,0,1
 530 221 530 221 549 216 c 0,2,3
 601 202 601 202 627 159 c 0,4,5
 649 123 649 123 649 76 c 0,6,7
 649 54 649 54 643 31 c 0,8,9
 624 -39 624 -39 562 -98 c 0,10,11
 471 -183 471 -183 364 -183 c 0,12,13
 319 -183 319 -183 277 -172 c 1,14,-1
 280 -159 l 1,15,16
 367 -137 367 -137 431 -84 c 0,17,18
 463 -57 463 -57 488 -18 c 1,19,20
 426 -1 426 -1 405 36 c 0,21,22
 389 65 389 65 389 96 c 0,23,24
 389 116 389 116 394 132 c 0,25,26
 408 179 408 179 451 205 c 0,27,28
 478 221 478 221 510 221 c 0,0,1
207 221 m 0,29,30
 227 221 227 221 246 216 c 0,31,32
 298 202 298 202 324 159 c 0,33,34
 346 123 346 123 346 76 c 0,35,36
 346 54 346 54 340 31 c 0,37,38
 321 -39 321 -39 259 -98 c 0,39,40
 168 -183 168 -183 61 -183 c 0,41,42
 16 -183 16 -183 -26 -172 c 1,43,-1
 -23 -159 l 1,44,45
 64 -137 64 -137 128 -84 c 0,46,47
 160 -57 160 -57 185 -18 c 1,48,49
 123 -1 123 -1 102 36 c 0,50,51
 86 65 86 65 86 96 c 0,52,53
 86 116 86 116 91 132 c 0,54,55
 105 179 105 179 148 205 c 0,56,57
 175 221 175 221 207 221 c 0,29,30
EndSplineSet
Validated: 1
EndChar

StartChar: dagger
Encoding: 8224 8224 120
Width: 1390
VWidth: 0
GlyphClass: 2
Flags: W
HStem: 935 100<720.001 896 1022 1198>
DStem2: 634.677 -40 734.677 -40 0.258819 0.965926<390.997 1009.41 1138.62 1279.94>
LayerCount: 2
Fore
SplineSet
679 -40 m 1,0,1
 665 105 665 105 534 159 c 1,2,-1
 536 169 l 1,3,4
 705 224 705 224 744 368 c 2,5,-1
 896 935 l 1,6,-1
 809 935 l 2,7,8
 666 935 666 935 568 781 c 1,9,-1
 558 781 l 1,10,11
 543 927 543 927 413 980 c 1,12,-1
 415 990 l 1,13,14
 574 1043 574 1043 668 1189 c 1,15,-1
 678 1189 l 1,16,17
 692 1035 692 1035 835 1035 c 2,18,-1
 922 1035 l 1,19,-1
 951 1142 l 2,20,21
 959 1173 959 1173 959 1199 c 0,22,23
 959 1297 959 1297 850 1341 c 1,24,-1
 853 1351 l 1,25,26
 1013 1405 1013 1405 1105 1550 c 1,27,-1
 1115 1550 l 1,28,29
 1129 1405 1129 1405 1261 1351 c 1,30,-1
 1258 1341 l 1,31,32
 1089 1286 1089 1286 1051 1142 c 2,33,-1
 1022 1035 l 1,34,-1
 1109 1035 l 2,35,36
 1252 1035 1252 1035 1350 1189 c 1,37,-1
 1360 1189 l 1,38,39
 1375 1043 1375 1043 1505 990 c 1,40,-1
 1503 980 l 1,41,42
 1344 927 1344 927 1250 781 c 1,43,-1
 1240 781 l 1,44,45
 1226 935 1226 935 1083 935 c 2,46,-1
 996 935 l 1,47,-1
 844 368 l 2,48,49
 836 337 836 337 836 310 c 0,50,51
 836 213 836 213 944 169 c 1,52,-1
 942 159 l 1,53,54
 782 105 782 105 689 -40 c 1,55,-1
 679 -40 l 1,0,1
EndSplineSet
Validated: 1
EndChar

StartChar: daggerdbl
Encoding: 8225 8225 121
Width: 1390
VWidth: 0
GlyphClass: 2
Flags: W
HStem: 475 100<596.109 772 899 1074.89> 935 100<720.001 896 1022 1198>
DStem2: 634.677 -40 734.677 -40 0.258819 0.965926<390.997 532.994 662.456 1009.41 1138.62 1279.94>
LayerCount: 2
Fore
SplineSet
679 -40 m 1,0,1
 665 105 665 105 534 159 c 1,2,-1
 536 169 l 1,3,4
 705 224 705 224 744 368 c 2,5,-1
 772 475 l 1,6,-1
 685 475 l 2,7,8
 542 475 542 475 445 321 c 1,9,-1
 435 321 l 1,10,11
 420 467 420 467 289 520 c 1,12,-1
 292 530 l 1,13,14
 451 583 451 583 544 729 c 1,15,-1
 554 729 l 1,16,17
 568 575 568 575 712 575 c 2,18,-1
 799 575 l 1,19,-1
 896 935 l 1,20,-1
 809 935 l 2,21,22
 666 935 666 935 568 781 c 1,23,-1
 558 781 l 1,24,25
 543 927 543 927 413 980 c 1,26,-1
 415 990 l 1,27,28
 574 1043 574 1043 668 1189 c 1,29,-1
 678 1189 l 1,30,31
 692 1035 692 1035 835 1035 c 2,32,-1
 922 1035 l 1,33,-1
 951 1142 l 2,34,35
 959 1173 959 1173 959 1199 c 0,36,37
 959 1297 959 1297 850 1341 c 1,38,-1
 853 1351 l 1,39,40
 1013 1405 1013 1405 1105 1550 c 1,41,-1
 1115 1550 l 1,42,43
 1129 1405 1129 1405 1261 1351 c 1,44,-1
 1258 1341 l 1,45,46
 1089 1286 1089 1286 1051 1142 c 2,47,-1
 1022 1035 l 1,48,-1
 1109 1035 l 2,49,50
 1252 1035 1252 1035 1350 1189 c 1,51,-1
 1360 1189 l 1,52,53
 1375 1043 1375 1043 1505 990 c 1,54,-1
 1503 980 l 1,55,56
 1344 927 1344 927 1250 781 c 1,57,-1
 1240 781 l 1,58,59
 1226 935 1226 935 1083 935 c 2,60,-1
 996 935 l 1,61,-1
 899 575 l 1,62,-1
 986 575 l 2,63,64
 1129 575 1129 575 1226 729 c 1,65,-1
 1236 729 l 1,66,67
 1251 583 1251 583 1382 530 c 1,68,-1
 1379 520 l 1,69,70
 1220 467 1220 467 1127 321 c 1,71,-1
 1117 321 l 1,72,73
 1103 475 1103 475 959 475 c 2,74,-1
 872 475 l 1,75,-1
 844 368 l 2,76,77
 836 337 836 337 836 310 c 0,78,79
 836 213 836 213 944 169 c 1,80,-1
 942 159 l 1,81,82
 782 105 782 105 689 -40 c 1,83,-1
 679 -40 l 1,0,1
EndSplineSet
Validated: 1
EndChar

StartChar: bullet
Encoding: 8226 8226 122
Width: 880
GlyphClass: 2
Flags: W
HStem: 470 572<487.581 796.419>
VStem: 352 580<603.939 908.061>
LayerCount: 2
Fore
SplineSet
642 1042 m 128,-1,1
 762 1042 762 1042 847 958 c 128,-1,2
 932 874 932 874 932 756 c 128,-1,3
 932 638 932 638 847 554 c 128,-1,4
 762 470 762 470 642 470 c 128,-1,5
 522 470 522 470 437 554 c 128,-1,6
 352 638 352 638 352 756 c 128,-1,7
 352 874 352 874 437 958 c 128,-1,0
 522 1042 522 1042 642 1042 c 128,-1,1
EndSplineSet
Validated: 1
EndChar

StartChar: ellipsis
Encoding: 8230 8230 123
Width: 1125
GlyphClass: 2
Flags: W
HStem: -20 264<119.191 300.324 502.191 683.324 885.191 1066.32>
VStem: 80 259<19.7072 204.293> 463 259<19.7072 204.293> 846 259<19.7072 204.293>
CounterMasks: 1 70
LayerCount: 2
Fore
SplineSet
976 -20 m 128,-1,1
 922 -20 922 -20 884 18.5 c 128,-1,2
 846 57 846 57 846 112 c 128,-1,3
 846 167 846 167 884 205.5 c 128,-1,4
 922 244 922 244 976 244 c 128,-1,5
 1030 244 1030 244 1067.5 205.5 c 128,-1,6
 1105 167 1105 167 1105 112 c 128,-1,7
 1105 57 1105 57 1067.5 18.5 c 128,-1,0
 1030 -20 1030 -20 976 -20 c 128,-1,1
593 -20 m 128,-1,9
 539 -20 539 -20 501 18.5 c 128,-1,10
 463 57 463 57 463 112 c 128,-1,11
 463 167 463 167 501 205.5 c 128,-1,12
 539 244 539 244 593 244 c 128,-1,13
 647 244 647 244 684.5 205.5 c 128,-1,14
 722 167 722 167 722 112 c 128,-1,15
 722 57 722 57 684.5 18.5 c 128,-1,8
 647 -20 647 -20 593 -20 c 128,-1,9
210 -20 m 128,-1,17
 156 -20 156 -20 118 18.5 c 128,-1,18
 80 57 80 57 80 112 c 128,-1,19
 80 167 80 167 118 205.5 c 128,-1,20
 156 244 156 244 210 244 c 128,-1,21
 264 244 264 244 301.5 205.5 c 128,-1,22
 339 167 339 167 339 112 c 128,-1,23
 339 57 339 57 301.5 18.5 c 128,-1,16
 264 -20 264 -20 210 -20 c 128,-1,17
EndSplineSet
Validated: 1
EndChar

StartChar: perthousand
Encoding: 8240 8240 124
Width: 2293
GlyphClass: 2
Flags: W
HStem: -20 59<1064.46 1219.14 1768.46 1923.14> 605 59<1205.09 1359.91 1909.09 2063.91> 846 59<633.461 788.143> 1471 59<774.087 928.909>
VStem: 453 152<936.203 1248.42> 884 152<70.2031 382.419> 956 154<1123.86 1440> 1387 154<257.862 573.999> 1588 152<70.2031 382.419> 2091 154<257.862 573.999>
DStem2: 325 65 439 -15 0.645378 0.763863<-37.0624 1957.41>
LayerCount: 2
Fore
SplineSet
2008 664 m 128,-1,1
 2126 664 2126 664 2194 582 c 0,2,3
 2245 520 2245 520 2245 431 c 0,4,5
 2245 381 2245 381 2229 322 c 0,6,7
 2185 158 2185 158 2055 62 c 0,8,9
 1943 -20 1943 -20 1825 -20 c 128,-1,10
 1707 -20 1707 -20 1639 62 c 0,11,12
 1588 123 1588 123 1588 213 c 0,13,14
 1588 265 1588 265 1603 322 c 0,15,16
 1647 488 1647 488 1778 582 c 0,17,0
 1890 664 1890 664 2008 664 c 128,-1,1
1992 605 m 0,18,19
 1926 605 1926 605 1863 535 c 0,20,21
 1805 471 1805 471 1767 322 c 0,22,23
 1740 218 1740 218 1740 156 c 0,24,25
 1740 125 1740 125 1747 106 c 0,26,27
 1769 39 1769 39 1839 39 c 0,28,29
 1906 39 1906 39 1968 109 c 0,30,31
 2027 175 2027 175 2065 322 c 0,32,33
 2091 423 2091 423 2091 485 c 0,34,35
 2091 519 2091 519 2083 542 c 0,36,37
 2062 605 2062 605 1992 605 c 0,18,19
1304 664 m 128,-1,39
 1422 664 1422 664 1490 582 c 0,40,41
 1541 520 1541 520 1541 431 c 0,42,43
 1541 381 1541 381 1525 322 c 0,44,45
 1481 158 1481 158 1351 62 c 0,46,47
 1239 -20 1239 -20 1121 -20 c 128,-1,48
 1003 -20 1003 -20 935 62 c 0,49,50
 884 123 884 123 884 213 c 0,51,52
 884 265 884 265 899 322 c 0,53,54
 943 488 943 488 1074 582 c 0,55,38
 1186 664 1186 664 1304 664 c 128,-1,39
1288 605 m 0,56,57
 1222 605 1222 605 1159 535 c 0,58,59
 1101 471 1101 471 1063 322 c 0,60,61
 1036 218 1036 218 1036 156 c 0,62,63
 1036 125 1036 125 1043 106 c 0,64,65
 1065 39 1065 39 1135 39 c 0,66,67
 1202 39 1202 39 1264 109 c 0,68,69
 1323 175 1323 175 1361 322 c 0,70,71
 1387 423 1387 423 1387 485 c 0,72,73
 1387 519 1387 519 1379 542 c 0,74,75
 1358 605 1358 605 1288 605 c 0,56,57
873 1530 m 128,-1,77
 991 1530 991 1530 1059 1448 c 0,78,79
 1110 1386 1110 1386 1110 1297 c 0,80,81
 1110 1247 1110 1247 1094 1188 c 0,82,83
 1050 1024 1050 1024 920 928 c 0,84,85
 808 846 808 846 690 846 c 128,-1,86
 572 846 572 846 504 928 c 0,87,88
 453 989 453 989 453 1079 c 0,89,90
 453 1130 453 1130 468 1188 c 0,91,92
 512 1354 512 1354 643 1448 c 0,93,76
 755 1530 755 1530 873 1530 c 128,-1,77
857 1471 m 0,94,95
 791 1471 791 1471 728 1401 c 0,96,97
 670 1337 670 1337 632 1188 c 0,98,99
 605 1084 605 1084 605 1022 c 0,100,101
 605 991 605 991 612 972 c 0,102,103
 634 905 634 905 704 905 c 0,104,105
 771 905 771 905 833 975 c 0,106,107
 892 1041 892 1041 930 1188 c 0,108,109
 956 1289 956 1289 956 1351 c 0,110,111
 956 1385 956 1385 948 1408 c 0,112,113
 927 1471 927 1471 857 1471 c 0,94,95
391 -40 m 0,114,115
 379 -40 379 -40 366 -31 c 2,116,-1
 325 -3 l 2,117,118
 307 9 307 9 307 27 c 0,119,120
 307 31 307 31 308 36 c 0,121,122
 311 48 311 48 325 65 c 2,123,-1
 1556 1522 l 2,124,125
 1580 1550 1580 1550 1601 1550 c 0,126,127
 1616 1550 1616 1550 1629 1541 c 2,128,-1
 1669 1513 l 2,129,130
 1686 1501 1686 1501 1686 1483 c 0,131,132
 1686 1477 1686 1477 1685 1473 c 0,133,134
 1681 1456 1681 1456 1669 1442 c 2,135,-1
 439 -15 l 2,136,137
 418 -40 418 -40 391 -40 c 0,114,115
EndSplineSet
Validated: 1
EndChar

StartChar: minute
Encoding: 8242 8242 125
Width: 350
GlyphClass: 2
Flags: W
HStem: 1158 382
VStem: 374 322
LayerCount: 2
Fore
SplineSet
583 1540 m 0,0,1
 590 1540 590 1540 600 1536 c 2,2,-1
 675 1506 l 2,3,4
 696 1498 696 1498 696 1481 c 0,5,6
 696 1476 696 1476 695 1473 c 0,7,8
 692 1463 692 1463 682 1449 c 2,9,-1
 491 1186 l 2,10,11
 471 1158 471 1158 447 1158 c 0,12,13
 439 1158 439 1158 430 1162 c 2,14,-1
 395 1178 l 2,15,16
 374 1188 374 1188 374 1204 c 0,17,18
 374 1209 374 1209 375 1212 c 0,19,20
 378 1221 378 1221 382 1228 c 2,21,-1
 543 1510 l 2,22,23
 560 1540 560 1540 583 1540 c 0,0,1
EndSplineSet
Validated: 1
EndChar

StartChar: second
Encoding: 8243 8243 126
Width: 597
GlyphClass: 2
Flags: W
HStem: 1158 382
VStem: 374 569
LayerCount: 2
Fore
SplineSet
830 1540 m 0,0,1
 837 1540 837 1540 847 1536 c 2,2,-1
 922 1506 l 2,3,4
 943 1498 943 1498 943 1481 c 0,5,6
 943 1476 943 1476 942 1473 c 0,7,8
 939 1463 939 1463 929 1449 c 2,9,-1
 738 1186 l 2,10,11
 718 1158 718 1158 694 1158 c 0,12,13
 686 1158 686 1158 677 1162 c 2,14,-1
 642 1178 l 2,15,16
 621 1188 621 1188 621 1204 c 0,17,18
 621 1209 621 1209 622 1212 c 0,19,20
 625 1221 625 1221 629 1228 c 2,21,-1
 790 1510 l 2,22,23
 807 1540 807 1540 830 1540 c 0,0,1
583 1540 m 0,24,25
 590 1540 590 1540 600 1536 c 2,26,-1
 675 1506 l 2,27,28
 696 1498 696 1498 696 1481 c 0,29,30
 696 1476 696 1476 695 1473 c 0,31,32
 692 1463 692 1463 682 1449 c 2,33,-1
 491 1186 l 2,34,35
 471 1158 471 1158 447 1158 c 0,36,37
 439 1158 439 1158 430 1162 c 2,38,-1
 395 1178 l 2,39,40
 374 1188 374 1188 374 1204 c 0,41,42
 374 1209 374 1209 375 1212 c 0,43,44
 378 1221 378 1221 382 1228 c 2,45,-1
 543 1510 l 2,46,47
 560 1540 560 1540 583 1540 c 0,24,25
EndSplineSet
Validated: 1
EndChar

StartChar: guilsinglleft
Encoding: 8249 8249 127
Width: 802
GlyphClass: 2
Flags: W
VStem: 346 590
DStem2: 499 770 346 730 0.402401 -0.915463<0 470.595> 346 730 499 770 0.682033 0.731321<133.604 777.727>
LayerCount: 2
Fore
SplineSet
883 1293 m 0,0,1
 894 1293 894 1293 901 1287 c 2,2,-1
 926 1267 l 2,3,4
 936 1259 936 1259 936 1251 c 0,5,6
 936 1247 936 1247 935 1243 c 0,7,8
 933 1235 933 1235 925 1226 c 2,9,-1
 499 770 l 1,10,-1
 685 364 l 2,11,12
 691 351 691 351 691 340 c 0,13,14
 691 335 691 335 690 331 c 0,15,16
 685 312 685 312 657 294 c 2,17,-1
 613 266 l 2,18,19
 593 253 593 253 578 253 c 0,20,21
 556 253 556 253 546 275 c 2,22,-1
 346 730 l 1,23,-1
 858 1279 l 2,24,25
 871 1293 871 1293 883 1293 c 0,0,1
EndSplineSet
Validated: 1
EndChar

StartChar: guilsinglright
Encoding: 8250 8250 128
Width: 801
GlyphClass: 2
Flags: W
VStem: 280 590
DStem2: 291 320 870 816 0.682033 0.731321<-20.0947 624.029> 670 1271 531 1182 0.402401 -0.915463<1.47263 472.067>
LayerCount: 2
Fore
SplineSet
333 253 m 0,0,1
 322 253 322 253 315 259 c 2,2,-1
 290 279 l 2,3,4
 280 287 280 287 280 295 c 0,5,6
 280 299 280 299 281 303 c 0,7,8
 283 311 283 311 291 320 c 2,9,-1
 717 776 l 1,10,-1
 531 1182 l 2,11,12
 525 1195 525 1195 525 1206 c 0,13,14
 525 1211 525 1211 526 1215 c 0,15,16
 531 1234 531 1234 559 1252 c 2,17,-1
 603 1280 l 2,18,19
 623 1293 623 1293 638 1293 c 0,20,21
 660 1293 660 1293 670 1271 c 2,22,-1
 870 816 l 1,23,-1
 358 267 l 2,24,25
 345 253 345 253 333 253 c 0,0,1
EndSplineSet
Validated: 1
EndChar

StartChar: fraction
Encoding: 8260 8260 129
Width: 1012
GlyphClass: 2
Flags: W
DStem2: 37 65 151 -15 0.645378 0.763863<-37.0624 1957.41>
LayerCount: 2
Fore
SplineSet
103 -40 m 0,0,1
 91 -40 91 -40 78 -31 c 2,2,-1
 37 -3 l 2,3,4
 19 9 19 9 19 27 c 0,5,6
 19 31 19 31 20 36 c 0,7,8
 23 48 23 48 37 65 c 2,9,-1
 1268 1522 l 2,10,11
 1292 1550 1292 1550 1313 1550 c 0,12,13
 1328 1550 1328 1550 1341 1541 c 2,14,-1
 1381 1513 l 2,15,16
 1398 1501 1398 1501 1398 1483 c 0,17,18
 1398 1477 1398 1477 1397 1473 c 0,19,20
 1393 1456 1393 1456 1381 1442 c 2,21,-1
 151 -15 l 2,22,23
 130 -40 130 -40 103 -40 c 0,0,1
EndSplineSet
Validated: 1
EndChar

StartChar: Euro
Encoding: 8364 8364 130
Width: 1530
GlyphClass: 2
Flags: W
HStem: -20 75<787.823 1115.55> 600 90<323 450 695 1121> 818 90<381 500 758 1179> 1021 264<1414.19 1561.16> 1455 75<1137.91 1460.46>
VStem: 439 210<222.502 596.802> 1375 280<1073.6 1245.29> 1402 15<327.883 336>
LayerCount: 2
Fore
SplineSet
901 -20 m 0,0,1
 647 -20 647 -20 534 134 c 0,2,3
 439 265 439 265 439 461 c 0,4,5
 439 527 439 527 450 600 c 1,6,-1
 341 600 l 2,7,8
 317 600 317 600 317 617 c 0,9,10
 317 622 317 622 319 630 c 2,11,-1
 327 660 l 2,12,13
 335 690 335 690 365 690 c 2,14,-1
 466 690 l 1,15,16
 473 722 473 722 482 755 c 0,17,18
 491 787 491 787 500 818 c 1,19,-1
 399 818 l 2,20,21
 375 818 375 818 375 835 c 0,22,23
 375 840 375 840 377 848 c 2,24,-1
 385 878 l 2,25,26
 393 908 393 908 423 908 c 2,27,-1
 531 908 l 1,28,29
 647 1214 647 1214 867 1376 c 0,30,31
 1077 1530 1077 1530 1307 1530 c 0,32,33
 1499 1530 1499 1530 1595 1401 c 0,34,35
 1655 1321 1655 1321 1655 1222 c 0,36,37
 1655 1173 1655 1173 1642 1132 c 0,38,39
 1629 1092 1629 1092 1600 1062 c 0,40,41
 1560 1021 1560 1021 1504 1021 c 0,42,43
 1450 1021 1450 1021 1412.5 1059.5 c 128,-1,44
 1375 1098 1375 1098 1375 1153 c 128,-1,45
 1375 1208 1375 1208 1413 1246.5 c 128,-1,46
 1451 1285 1451 1285 1505 1285 c 0,47,48
 1535 1285 1535 1285 1562 1270 c 1,49,50
 1516 1455 1516 1455 1310 1455 c 0,51,52
 1137 1455 1137 1455 990 1320 c 0,53,54
 856 1197 856 1197 758 908 c 1,55,-1
 1161 908 l 2,56,57
 1185 908 1185 908 1185 891 c 0,58,59
 1185 886 1185 886 1183 878 c 2,60,-1
 1175 848 l 2,61,62
 1167 818 1167 818 1137 818 c 2,63,-1
 730 818 l 1,64,65
 721 787 721 787 712 755 c 0,66,67
 703 722 703 722 695 690 c 1,68,-1
 1103 690 l 2,69,70
 1127 690 1127 690 1127 673 c 0,71,72
 1127 668 1127 668 1125 660 c 2,73,-1
 1117 630 l 2,74,75
 1109 600 1109 600 1079 600 c 2,76,-1
 675 600 l 1,77,78
 649 468 649 468 649 371 c 0,79,80
 649 257 649 257 686 192 c 0,81,82
 764 55 764 55 946 55 c 0,83,84
 1114 55 1114 55 1257 180 c 0,85,86
 1336 249 1336 249 1402 336 c 1,87,-1
 1417 336 l 1,88,-1
 1375 178 l 1,89,90
 1164 -20 1164 -20 901 -20 c 0,0,1
EndSplineSet
Validated: 1
EndChar

StartChar: afii61248
Encoding: 8453 8453 131
Width: 1614
GlyphClass: 2
Flags: W
HStem: -20 53<1092.35 1233.02> 719 46<1275.6 1406.33> 746 50<630.361 812.832> 1253 172<935.818 1007.94> 1483 47<801.767 975.516>
VStem: 434 146<830.582 1181.7> 909 174<1287.94 1397.18> 921 137<79.0797 410.627> 954 10<930.69 935> 1445 141<330.811 680.746>
DStem2: 346 65 460 -15 0.645378 0.763863<-37.0624 1957.41>
LayerCount: 2
Fore
SplineSet
882 1530 m 0,0,1
 993 1530 993 1530 1046 1461 c 0,2,3
 1083 1412 1083 1412 1083 1360 c 0,4,5
 1083 1317 1083 1317 1061 1287 c 0,6,7
 1036 1253 1036 1253 994 1253 c 0,8,9
 956 1253 956 1253 932 1278 c 0,10,11
 909 1302 909 1302 909 1334 c 0,12,13
 909 1372 909 1372 935 1398 c 0,14,15
 961 1423 961 1423 1009 1425 c 1,16,17
 973 1483 973 1483 888 1483 c 0,18,19
 816 1483 816 1483 748 1420 c 0,20,21
 667 1345 667 1345 611 1138 c 0,22,23
 580 1024 580 1024 580 950 c 0,24,25
 580 897 580 897 596 864 c 0,26,27
 628 796 628 796 707 796 c 0,28,29
 834 796 834 796 954 935 c 1,30,-1
 964 935 l 1,31,-1
 941 849 l 1,32,33
 828 746 828 746 686 746 c 0,34,35
 542 746 542 746 482 826 c 0,36,37
 434 890 434 890 434 990 c 0,38,39
 434 1059 434 1059 457 1144 c 0,40,41
 512 1350 512 1350 649 1451 c 0,42,43
 757 1530 757 1530 882 1530 c 0,0,1
412 -40 m 0,44,45
 400 -40 400 -40 387 -31 c 2,46,-1
 346 -3 l 2,47,48
 328 9 328 9 328 27 c 0,49,50
 328 31 328 31 329 36 c 0,51,52
 332 48 332 48 346 65 c 2,53,-1
 1577 1522 l 2,54,55
 1601 1550 1601 1550 1622 1550 c 0,56,57
 1637 1550 1637 1550 1650 1541 c 2,58,-1
 1690 1513 l 2,59,60
 1707 1501 1707 1501 1707 1483 c 0,61,62
 1707 1477 1707 1477 1706 1473 c 0,63,64
 1702 1456 1702 1456 1690 1442 c 2,65,-1
 460 -15 l 2,66,67
 439 -40 439 -40 412 -40 c 0,44,45
1159 33 m 0,68,69
 1212 33 1212 33 1275 94 c 0,70,71
 1359 175 1359 175 1414 375 c 0,72,73
 1445 488 1445 488 1445 568 c 0,74,75
 1445 613 1445 613 1435 648 c 0,76,77
 1415 719 1415 719 1344 719 c 0,78,79
 1290 719 1290 719 1226 658 c 0,80,81
 1150 584 1150 584 1092 374 c 0,82,83
 1059 252 1059 252 1058 173 c 0,84,85
 1058 124 1058 124 1071 92 c 0,86,87
 1094 33 1094 33 1159 33 c 0,68,69
1145 -20 m 0,88,89
 1027 -20 1027 -20 968 61 c 0,90,91
 921 127 921 127 921 224 c 0,92,93
 921 291 921 291 943 372 c 0,94,95
 997 574 997 574 1136 685 c 0,96,97
 1236 765 1236 765 1358 765 c 128,-1,98
 1480 765 1480 765 1538 685 c 0,99,100
 1586 618 1586 618 1586 520 c 0,101,102
 1586 453 1586 453 1564 372 c 0,103,104
 1510 170 1510 170 1372 63 c 0,105,106
 1265 -20 1265 -20 1145 -20 c 0,88,89
EndSplineSet
Validated: 1
EndChar

StartChar: afii61289
Encoding: 8467 8467 132
Width: 958
GlyphClass: 2
Flags: W
HStem: -20 136<441 619.523> 0 21G<50 268.333> 1510 20G<1042 1112.5>
LayerCount: 2
Fore
SplineSet
512 466 m 1,0,1
 661 672 661 672 784 860 c 0,2,3
 977 1153 977 1153 1029 1368 c 1,4,5
 897 1241 897 1241 789 1067 c 0,6,7
 585 740 585 740 512 466 c 1,0,1
50 0 m 1,8,9
 216 161 216 161 333 297 c 1,10,11
 344 381 344 381 364 458 c 0,12,13
 415 662 415 662 506 848 c 0,14,15
 702 1251 702 1251 901 1434 c 0,16,17
 1005 1530 1005 1530 1079 1530 c 0,18,19
 1146 1530 1146 1530 1168 1479 c 0,20,21
 1178 1456 1178 1456 1178 1423 c 0,22,23
 1178 1380 1178 1380 1161 1318 c 0,24,25
 1136 1226 1136 1226 1065 1072 c 0,26,27
 901 722 901 722 495 271 c 1,28,29
 495 116 495 116 542 116 c 0,30,31
 567 116 567 116 603 145 c 0,32,33
 634 171 634 171 677 228 c 1,34,-1
 853 228 l 1,35,36
 771 113 771 113 670 39 c 0,37,38
 590 -20 590 -20 497 -20 c 0,39,40
 385 -20 385 -20 355 120 c 1,41,-1
 251 0 l 1,42,-1
 50 0 l 1,8,9
EndSplineSet
Validated: 1
EndChar

StartChar: trademark
Encoding: 8482 8482 133
Width: 1947
VWidth: 1396
GlyphClass: 2
Flags: W
HStem: 754 63<526.805 635.863 984.129 1070.24 1817.8 1925.05> 1473 57<694.672 1028.15 1229.71 1374 1942.96 2022.71>
VStem: 503 21<829.473 873> 960 22<822.799 875> 980 169<1350.75 1469.57> 1734 143<821.24 1234.02> 2025 23<1420 1468.75>
DStem2: 579.774 744 719.415 744 0.258819 0.965926<65.9713 663.16> 1081 870 1171 870 0.382147 0.924101<-80.5444 441.47> 1434 1440 1295 1439 0.181126 -0.98346<-65.5898 13.2817 171.411 451.25> 1520 997 1440 744 0.579421 0.815029<0 320.195> 1737 890 1878 870 0.110432 0.993884<-16.1575 322.018>
LayerCount: 2
Fore
SplineSet
1333 1540 m 0,0,1
 1415 1540 1415 1540 1434 1440 c 2,2,-1
 1520 997 l 1,3,-1
 1852 1464 l 2,4,5
 1907 1541 1907 1541 1973 1541 c 0,6,7
 2024 1541 2024 1541 2041 1501 c 0,8,9
 2048 1485 2048 1485 2048 1464.5 c 128,-1,10
 2048 1444 2048 1444 2041 1420 c 1,11,-1
 2025 1420 l 1,12,13
 2025 1485 2025 1485 1981 1485 c 0,14,15
 1951 1485 1951 1485 1943 1455 c 1,16,-1
 1878 870 l 2,17,18
 1877 864 1877 864 1877 858 c 0,19,20
 1877 821 1877 821 1907 821 c 8,21,22
 1941 821 1941 821 1966 875 c 1,23,-1
 1981 875 l 1,24,25
 1969 829 1969 829 1946 804 c 0,26,27
 1900 755 1900 755 1829 755 c 128,-1,28
 1758 755 1758 755 1738 808 c 0,29,30
 1734 819 1734 819 1734 842 c 0,31,32
 1734 862 1734 862 1737 890 c 2,33,-1
 1773 1210 l 1,34,-1
 1440 744 l 1,35,-1
 1423 744 l 1,36,-1
 1327 1246 l 1,37,-1
 1171 870 l 2,38,39
 1148 814 1148 814 1127 793 c 0,40,41
 1090 754 1090 754 1041 754 c 0,42,43
 960 754 960 754 960 825 c 0,44,45
 960 847 960 847 967 875 c 1,46,-1
 982 875 l 1,47,48
 982 808 982 808 1019 808 c 24,49,50
 1055 808 1055 808 1081 870 c 2,51,-1
 1301 1402 l 1,52,-1
 1295 1439 l 2,53,54
 1289 1475 1289 1475 1261 1475 c 24,55,56
 1230 1475 1230 1475 1197 1420 c 1,57,-1
 1182 1420 l 1,58,59
 1192 1463 1192 1463 1220 1493 c 0,60,61
 1264 1540 1264 1540 1333 1540 c 0,0,1
606 754 m 0,62,63
 534 754 534 754 510 803 c 0,64,65
 503 817 503 817 503 835 c 0,66,67
 503 852 503 852 509 873 c 1,68,-1
 524 873 l 1,69,70
 524 817 524 817 561 817 c 24,71,72
 599 817 599 817 613 868 c 2,73,-1
 740 1344 l 2,74,75
 748 1373 748 1373 777 1373 c 2,76,-1
 859 1373 l 2,77,78
 882 1373 882 1373 882 1356 c 0,79,80
 882 1351 882 1351 880 1344 c 2,81,-1
 758 888 l 2,82,83
 743 831 743 831 708 796 c 0,84,85
 666 754 666 754 606 754 c 0,62,63
966 1530 m 2,86,87
 1053 1530 1053 1530 1102 1496 c 0,88,89
 1149 1463 1149 1463 1149 1409 c 0,90,91
 1149 1374 1149 1374 1131 1350 c 0,92,93
 1106 1318 1106 1318 1065 1318 c 0,94,95
 1025 1318 1025 1318 1002 1343 c 0,96,97
 980 1366 980 1366 980 1400 c 0,98,99
 980 1430 980 1430 996 1449 c 0,100,101
 1009 1465 1009 1465 1029 1471 c 1,102,103
 1002 1473 1002 1473 967 1473 c 2,104,-1
 825 1473 l 2,105,106
 649 1473 649 1473 465 1271 c 1,107,-1
 444 1285 l 1,108,109
 603 1530 603 1530 844 1530 c 2,110,-1
 966 1530 l 2,86,87
EndSplineSet
Validated: 1
EndChar

StartChar: uni2126
Encoding: 8486 8486 134
Width: 1424
GlyphClass: 2
Flags: W
HStem: 0 125<282.243 543 947 1212.38> 1455 75<957.836 1228.15>
VStem: 191 15<299.935 338> 315 207<375.885 804.244> 1339 205<828.08 1277.86>
LayerCount: 2
Fore
SplineSet
546 0 m 2,0,1
 373 0 l 2,2,3
 176 0 176 0 176 209 c 0,4,5
 176 266 176 266 191 338 c 1,6,-1
 206 338 l 1,7,8
 235 125 235 125 406 125 c 2,9,-1
 543 125 l 1,10,-1
 552 156 l 1,11,12
 472 210 472 210 421 274 c 0,13,14
 315 408 315 408 315 592 c 0,15,16
 315 691 315 691 346 805 c 0,17,18
 439 1152 439 1152 717 1376 c 0,19,20
 908 1530 908 1530 1122 1530 c 128,-1,21
 1336 1530 1336 1530 1445 1376 c 0,22,23
 1544 1235 1544 1235 1544 1045 c 0,24,25
 1544 933 1544 933 1510 805 c 0,26,27
 1423 480 1423 480 1149 274 c 0,28,29
 1064 210 1064 210 956 156 c 1,30,-1
 947 125 l 1,31,-1
 1084 125 l 2,32,33
 1242 125 1242 125 1400 338 c 1,34,-1
 1415 338 l 1,35,36
 1301 0 1301 0 1051 0 c 2,37,-1
 878 0 l 2,38,39
 838 0 838 0 838 31 c 0,40,41
 838 39 838 39 841 50 c 2,42,-1
 877 182 l 1,43,44
 969 256 969 256 1043 335 c 0,45,46
 1212 515 1212 515 1276 755 c 0,47,48
 1339 993 1339 993 1339 1146 c 0,49,50
 1339 1259 1339 1259 1305 1327 c 0,51,52
 1240 1455 1240 1455 1102 1455 c 128,-1,53
 964 1455 964 1455 833 1324 c 0,54,55
 658 1150 658 1150 552 755 c 0,56,57
 522 643 522 643 522 544 c 0,58,59
 522 421 522 421 558 331 c 0,60,61
 583 270 583 270 645 182 c 1,62,-1
 609 50 l 2,63,64
 595 0 595 0 546 0 c 2,0,1
EndSplineSet
Validated: 1
EndChar

StartChar: estimated
Encoding: 8494 8494 135
Width: 1330
GlyphClass: 2
Flags: W
HStem: -20 92<481.188 883.725> 525 80<510 1145> 1036 84<733.26 1127.8>
VStem: 222 1175<377 709>
LayerCount: 2
Fore
SplineSet
660 -20 m 0,0,1
 404 -20 404 -20 293 139 c 0,2,3
 222 241 222 241 222 377 c 0,4,5
 222 458 222 458 247 550 c 0,6,7
 311 788 311 788 504 952 c 24,8,9
 702 1120 702 1120 966 1120 c 0,10,11
 1208 1120 1208 1120 1318 961 c 272,12,13
 1397 846 1397 846 1397 709 c 0,14,15
 1397 623 1397 623 1371 525 c 1,16,-1
 489 525 l 1,17,-1
 399 192 l 1,18,19
 478 72 478 72 685 72 c 256,20,21
 808 72 808 72 915 132 c 0,22,23
 1011 186 1011 186 1082 266 c 1,24,-1
 1159 204 l 1,25,26
 1063 113 1063 113 964 61 c 0,27,28
 811 -20 811 -20 660 -20 c 0,0,1
510 605 m 1,29,-1
 1145 605 l 1,30,-1
 1225 903 l 1,31,32
 1143 1036 1143 1036 944 1036 c 0,33,34
 753 1036 753 1036 593 914 c 1,35,-1
 510 605 l 1,29,-1
EndSplineSet
Validated: 1
EndChar

StartChar: partialdiff
Encoding: 8706 8706 136
Width: 1285
GlyphClass: 2
Flags: W
HStem: -20 153<438.336 709.146> 879 161<770.93 1040.24> 1378 152<859.253 1188.63>
VStem: 226 189<159.033 438.151> 1243 185<932.032 1323.56>
LayerCount: 2
Fore
SplineSet
507 -20 m 0,0,1
 226 -20 226 -20 226 217 c 0,2,3
 226 286 226 286 250 375 c 0,4,5
 319 631 319 631 504 815 c 0,6,7
 732 1040 732 1040 951 1040 c 0,8,9
 1110 1040 1110 1040 1191 894 c 1,10,11
 1243 1091 1243 1091 1243 1185 c 0,12,13
 1243 1215 1243 1215 1239 1239 c 0,14,15
 1215 1378 1215 1378 1047 1378 c 0,16,17
 916 1378 916 1378 767 1294 c 1,18,-1
 813 1468 l 1,19,20
 964 1530 964 1530 1113 1530 c 0,21,22
 1428 1530 1428 1530 1428 1213 c 0,23,24
 1428 1095 1428 1095 1385 934 c 0,25,26
 1281 545 1281 545 1037 262.5 c 128,-1,27
 793 -20 793 -20 507 -20 c 0,0,1
561 133 m 0,28,29
 699 133 699 133 849.5 286 c 128,-1,30
 1000 439 1000 439 1102 680 c 1,31,32
 1102 766 1102 766 1053 822.5 c 128,-1,33
 1004 879 1004 879 928 879 c 0,34,35
 773 879 773 879 626 710 c 0,36,37
 479 540 479 540 433 369 c 0,38,39
 415 302 415 302 415 248 c 0,40,41
 415 133 415 133 561 133 c 0,28,29
EndSplineSet
Validated: 1
EndChar

StartChar: uni2206
Encoding: 8710 8710 137
Width: 1418
GlyphClass: 2
Flags: W
HStem: 0 90<180 1199>
DStem2: 5 0 180 90 0.587395 0.8093<175.631 1586.8> 1145 1550 1009 1232 0.170375 -0.985379<290.18 1447.85>
LayerCount: 2
Fore
SplineSet
180 90 m 1,0,-1
 1199 90 l 1,1,-1
 1009 1232 l 1,2,-1
 180 90 l 1,0,-1
5 0 m 25,3,-1
 1130 1550 l 1,4,-1
 1145 1550 l 1,5,-1
 1413 0 l 25,6,-1
 5 0 l 25,3,-1
EndSplineSet
Validated: 1
EndChar

StartChar: product
Encoding: 8719 8719 138
Width: 1528
GlyphClass: 2
Flags: W
HStem: -430 107<4.14514 152.498 1129 1324.66> 1419 91<820 1468>
VStem: -36 25<-281.039 -210> 1026 198<-321.485 -75.5781>
DStem2: 125.051 -430 324.601 -430 0.258819 0.965926<109.563 1965.86> 972.601 -430 1173.05 -430 0.258819 0.965926<228.009 1914.22>
LayerCount: 2
Fore
SplineSet
138 -430 m 0,0,1
 10 -430 10 -430 -25 -339 c 0,2,3
 -36 -310 -36 -310 -36 -277 c 0,4,5
 -36 -245 -36 -245 -26 -210 c 1,6,-1
 -11 -210 l 1,7,8
 -11 -323 -11 -323 69 -323 c 0,9,10
 154 -323 154 -323 184 -210 c 2,11,-1
 631 1460 l 2,12,13
 644 1510 644 1510 695 1510 c 2,14,-1
 1643 1510 l 2,15,16
 1682 1510 1682 1510 1682 1479 c 0,17,18
 1682 1471 1682 1471 1679 1460 c 2,19,-1
 1232 -210 l 2,20,21
 1224 -240 1224 -240 1224 -262 c 0,22,23
 1224 -323 1224 -323 1285 -323 c 0,24,25
 1367 -323 1367 -323 1427 -210 c 1,26,-1
 1442 -210 l 1,27,28
 1424 -287 1424 -287 1374 -342 c 0,29,30
 1296 -430 1296 -430 1184 -430 c 0,31,32
 1074 -430 1074 -430 1037 -338 c 0,33,34
 1026 -311 1026 -311 1026 -275 c 0,35,36
 1026 -231 1026 -231 1042 -171 c 2,37,-1
 1468 1419 l 25,38,-1
 820 1419 l 25,39,-1
 394 -171 l 2,40,41
 365 -279 365 -279 315 -342 c 0,42,43
 245 -430 245 -430 138 -430 c 0,0,1
EndSplineSet
Validated: 1
EndChar

StartChar: summation
Encoding: 8721 8721 139
Width: 1388
GlyphClass: 2
Flags: W
HStem: -410 90<273 1096.67> -21 20G<1110 1164> 1420 90<715 1370.75>
VStem: 1007 259<-231.062 -40.7072> 1243 275<1202.12 1379.78>
DStem2: -26 -395 273 -320 0.643096 0.765786<249.72 1214.44> 715 1420 481 1495 0.274457 -0.9616<0 861.994>
LayerCount: 2
Fore
SplineSet
-30 -410 m 1,0,-1
 -26 -395 l 9,1,-1
 755 535 l 1,2,-1
 481 1495 l 1,3,-1
 485 1510 l 9,4,-1
 1288 1510 l 2,5,6
 1400 1510 1400 1510 1462 1452 c 0,7,8
 1518 1400 1518 1400 1518 1330 c 0,9,10
 1518 1295 1518 1295 1509 1266 c 0,11,12
 1497 1226 1497 1226 1468 1196 c 0,13,14
 1428 1155 1428 1155 1372 1155 c 0,15,16
 1318 1155 1318 1155 1280.5 1193.5 c 128,-1,17
 1243 1232 1243 1232 1243 1287 c 128,-1,18
 1243 1342 1243 1342 1281 1381 c 0,19,20
 1315 1416 1315 1416 1373 1418 c 1,21,-1
 1373 1420 l 1,22,-1
 715 1420 l 17,23,-1
 977 497 l 1,24,-1
 273 -320 l 1,25,-1
 936 -320 l 2,26,27
 1044 -320 1044 -320 1115 -263 c 1,28,29
 1075 -257 1075 -257 1045 -226 c 0,30,31
 1007 -188 1007 -188 1007 -133 c 128,-1,32
 1007 -78 1007 -78 1045 -39.5 c 128,-1,33
 1083 -1 1083 -1 1137 -1 c 128,-1,34
 1191 -1 1191 -1 1228.5 -39.5 c 128,-1,35
 1266 -78 1266 -78 1266 -133 c 0,36,37
 1266 -154 1266 -154 1259 -182 c 0,38,39
 1233 -285 1233 -285 1138 -349 c 0,40,41
 1048 -410 1048 -410 919 -410 c 2,42,-1
 -30 -410 l 1,0,-1
EndSplineSet
Validated: 1
EndChar

StartChar: minus
Encoding: 8722 8722 140
Width: 1133
GlyphClass: 2
Flags: W
HStem: 680 150<360.77 1176.94>
LayerCount: 2
Fore
SplineSet
422 830 m 2,0,-1
 1155 830 l 2,1,2
 1195 830 1195 830 1195 799 c 0,3,4
 1195 791 1195 791 1192 780 c 2,5,-1
 1179 730 l 2,6,7
 1166 680 1166 680 1115 680 c 2,8,-1
 382 680 l 2,9,10
 343 680 343 680 343 711 c 0,11,12
 343 720 343 720 346 730 c 2,13,-1
 359 780 l 2,14,15
 372 830 372 830 422 830 c 2,0,-1
EndSplineSet
Validated: 1
EndChar

StartChar: uni2215
Encoding: 8725 8725 141
Width: 1012
GlyphClass: 2
Flags: W
DStem2: 37 65 151 -15 0.645378 0.763863<-37.0624 1957.41>
LayerCount: 2
Fore
SplineSet
103 -40 m 0,0,1
 91 -40 91 -40 78 -31 c 2,2,-1
 37 -3 l 2,3,4
 19 9 19 9 19 27 c 0,5,6
 19 31 19 31 20 36 c 0,7,8
 23 48 23 48 37 65 c 2,9,-1
 1268 1522 l 2,10,11
 1292 1550 1292 1550 1313 1550 c 0,12,13
 1328 1550 1328 1550 1341 1541 c 2,14,-1
 1381 1513 l 2,15,16
 1398 1501 1398 1501 1398 1483 c 0,17,18
 1398 1477 1398 1477 1397 1473 c 0,19,20
 1393 1456 1393 1456 1381 1442 c 2,21,-1
 151 -15 l 2,22,23
 130 -40 130 -40 103 -40 c 0,0,1
EndSplineSet
Validated: 1
EndChar

StartChar: uni2219
Encoding: 8729 8729 142
Width: 359
GlyphClass: 2
Flags: W
HStem: 625 264<292.191 473.324>
VStem: 253 259<664.707 849.293>
LayerCount: 2
Fore
SplineSet
383 889 m 128,-1,1
 437 889 437 889 474.5 850.5 c 128,-1,2
 512 812 512 812 512 757 c 128,-1,3
 512 702 512 702 474.5 663.5 c 128,-1,4
 437 625 437 625 383 625 c 128,-1,5
 329 625 329 625 291 663.5 c 128,-1,6
 253 702 253 702 253 757 c 128,-1,7
 253 812 253 812 291 850.5 c 128,-1,0
 329 889 329 889 383 889 c 128,-1,1
EndSplineSet
Validated: 1
EndChar

StartChar: radical
Encoding: 8730 8730 143
Width: 1338
GlyphClass: 2
Flags: W
HStem: 741 90<261 431> 1550 90<1573 1755>
DStem2: 600 801 431 741 0.127004 -0.991902<38.0504 489.582> 667 316 546 -40 0.542572 0.840009<0 1528.14>
LayerCount: 2
Fore
SplineSet
531 -40 m 1,0,-1
 431 741 l 1,1,-1
 279 741 l 2,2,3
 255 741 255 741 255 759 c 0,4,5
 255 764 255 764 257 771 c 2,6,-1
 265 801 l 2,7,8
 273 831 273 831 303 831 c 2,9,-1
 563 831 l 2,10,11
 596 831 596 831 600 801 c 2,12,-1
 667 316 l 1,13,-1
 1504 1610 l 2,14,15
 1523 1640 1523 1640 1557 1640 c 2,16,-1
 1737 1640 l 2,17,18
 1761 1640 1761 1640 1761 1621 c 0,19,20
 1761 1618 1761 1618 1759 1610 c 2,21,-1
 1751 1580 l 2,22,23
 1743 1550 1743 1550 1713 1550 c 2,24,-1
 1573 1550 l 1,25,-1
 546 -40 l 1,26,-1
 531 -40 l 1,0,-1
EndSplineSet
Validated: 1
EndChar

StartChar: infinity
Encoding: 8734 8734 144
Width: 1658
GlyphClass: 2
Flags: W
HStem: 362 167<490.843 751.75> 362 79<1144.59 1397.87> 981 167<1311.25 1572.05> 1069 79<664.994 918.409>
VStem: 335 111<574.477 834.225> 1617 110<675.775 935.523>
DStem2: 890 710 1059 645 0.59249 0.805578<-225.195 465.372>
LayerCount: 2
Fore
SplineSet
804 1148 m 0,0,1
 923 1148 923 1148 988 1089 c 0,2,3
 997 1081 997 1081 997 1073 c 0,4,5
 997 1070 997 1070 996 1066 c 0,6,7
 994 1058 994 1058 984 1047 c 2,8,-1
 970 1032 l 2,9,10
 957 1018 957 1018 944 1018 c 0,11,12
 935 1018 935 1018 926 1025 c 0,13,14
 869 1069 869 1069 796 1069 c 0,15,16
 694 1069 694 1069 584 972 c 0,17,18
 480 881 480 881 453 758 c 0,19,20
 446 727 446 727 446 698 c 0,21,22
 446 641 446 641 474 595 c 0,23,24
 514 529 514 529 618 529 c 0,25,26
 757 529 757 529 890 710 c 2,27,-1
 1004 865 l 2,28,29
 1212 1148 1212 1148 1435 1148 c 0,30,31
 1604 1148 1604 1148 1677 1042 c 0,32,33
 1727 971 1727 971 1727 875 c 0,34,35
 1727 818 1727 818 1709 752 c 0,36,37
 1665 586 1665 586 1523 468 c 0,38,39
 1397 362 1397 362 1259 362 c 0,40,41
 1140 362 1140 362 1075 421 c 0,42,43
 1066 429 1066 429 1066 437 c 0,44,45
 1066 440 1066 440 1067 444 c 0,46,47
 1069 452 1069 452 1079 463 c 2,48,-1
 1093 478 l 2,49,50
 1106 492 1106 492 1119 492 c 0,51,52
 1128 492 1128 492 1137 485 c 0,53,54
 1194 441 1194 441 1267 441 c 0,55,56
 1369 441 1369 441 1479 538 c 0,57,58
 1583 629 1583 629 1610 752 c 0,59,60
 1617 783 1617 783 1617 812 c 0,61,62
 1617 869 1617 869 1589 915 c 0,63,64
 1549 981 1549 981 1445 981 c 0,65,66
 1306 981 1306 981 1173 800 c 2,67,-1
 1059 645 l 2,68,69
 851 362 851 362 628 362 c 0,70,71
 459 362 459 362 385 468 c 0,72,73
 335 539 335 539 335 635 c 0,74,75
 335 692 335 692 353 758 c 0,76,77
 397 924 397 924 539 1042 c 0,78,79
 666 1148 666 1148 804 1148 c 0,0,1
EndSplineSet
Validated: 1
EndChar

StartChar: approxequal
Encoding: 8776 8776 145
Width: 1193
GlyphClass: 2
Flags: W
HStem: 406 151<877.816 1065.63> 568 151<428.88 617.644> 804 151<984.356 1170.38> 966 151<535.335 724.184>
DStem2: 921 580 574 545 0.895258 -0.445547<-361.138 66.9727> 1028 978 681 943 0.895258 -0.445547<-362.033 66.0777>
LayerCount: 2
Fore
SplineSet
585 719 m 0,0,1
 642 719 642 719 706 687 c 2,2,-1
 921 580 l 2,3,4
 967 557 967 557 1000 557 c 0,5,6
 1115 557 1115 557 1210 693 c 1,7,-1
 1229 693 l 1,8,9
 1132 406 1132 406 911 406 c 0,10,11
 854 406 854 406 789 438 c 2,12,-1
 574 545 l 2,13,14
 528 568 528 568 494 568 c 0,15,16
 380 568 380 568 286 432 c 1,17,-1
 266 432 l 1,18,19
 361 719 361 719 585 719 c 0,0,1
691 1117 m 0,20,21
 748 1117 748 1117 813 1085 c 2,22,-1
 1028 978 l 2,23,24
 1074 955 1074 955 1107 955 c 0,25,26
 1222 955 1222 955 1316 1091 c 1,27,-1
 1335 1091 l 1,28,29
 1238 804 1238 804 1017 804 c 0,30,31
 960 804 960 804 896 836 c 2,32,-1
 681 943 l 2,33,34
 635 966 635 966 601 966 c 0,35,36
 487 966 487 966 392 830 c 1,37,-1
 372 830 l 1,38,39
 467 1117 467 1117 691 1117 c 0,20,21
EndSplineSet
Validated: 1
EndChar

StartChar: notequal
Encoding: 8800 8800 146
Width: 1133
GlyphClass: 2
Flags: W
HStem: 490 150<309.77 488 604 614 731 1125.94> 870 150<411.77 809 926 936 1053 1227.94>
DStem2: 279 242 352 192 0.645782 0.763522<-30.7321 324.322 595.775 821.756 1093.86 1441.1>
LayerCount: 2
Fore
SplineSet
1220 1334 m 0,0,1
 1233 1334 1233 1334 1243 1327 c 2,2,-1
 1258 1316 l 2,3,4
 1273 1305 1273 1305 1273 1293 c 0,5,6
 1273 1288 1273 1288 1272 1284 c 0,7,8
 1269 1276 1269 1276 1257 1262 c 2,9,-1
 1053 1020 l 1,10,-1
 1206 1020 l 2,11,12
 1246 1020 1246 1020 1246 989 c 0,13,14
 1246 982 1246 982 1243 970 c 2,15,-1
 1230 920 l 2,16,17
 1217 870 1217 870 1166 870 c 2,18,-1
 926 870 l 1,19,-1
 731 640 l 1,20,-1
 1104 640 l 2,21,22
 1144 640 1144 640 1144 609 c 0,23,24
 1144 602 1144 602 1141 590 c 2,25,-1
 1128 540 l 2,26,27
 1115 490 1115 490 1064 490 c 2,28,-1
 604 490 l 1,29,-1
 352 192 l 2,30,31
 333 170 333 170 316 170 c 0,32,33
 303 170 303 170 293 177 c 2,34,-1
 278 188 l 2,35,36
 264 198 264 198 264 211 c 0,37,38
 264 216 264 216 265 219 c 0,39,40
 269 230 269 230 279 242 c 2,41,-1
 488 490 l 1,42,-1
 331 490 l 2,43,44
 292 490 292 490 292 521 c 0,45,46
 292 528 292 528 295 540 c 2,47,-1
 308 590 l 2,48,49
 321 640 321 640 371 640 c 2,50,-1
 614 640 l 1,51,-1
 809 870 l 1,52,-1
 433 870 l 2,53,54
 394 870 394 870 394 901 c 0,55,56
 394 908 394 908 397 920 c 2,57,-1
 410 970 l 2,58,59
 423 1020 423 1020 473 1020 c 2,60,-1
 936 1020 l 1,61,-1
 1184 1312 l 2,62,63
 1203 1334 1203 1334 1220 1334 c 0,0,1
EndSplineSet
Validated: 1
EndChar

StartChar: lessequal
Encoding: 8804 8804 147
Width: 1233
GlyphClass: 2
Flags: W
HStem: 190 150<279.906 1095.09>
DStem2: 597 902 461 788 0.84286 -0.538133<0 590.922> 510 969 597 902 0.897272 0.441477<48.4837 854.439>
LayerCount: 2
Fore
SplineSet
1285 1345 m 0,0,1
 1299 1345 1299 1345 1305 1326 c 2,2,-1
 1317 1291 l 2,3,4
 1319 1283 1319 1283 1319 1277 c 0,5,6
 1319 1270 1319 1270 1317 1265 c 0,7,8
 1311 1253 1311 1253 1291 1243 c 2,9,-1
 597 902 l 1,10,-1
 1092 587 l 2,11,12
 1111 575 1111 575 1111 557 c 0,13,14
 1111 553 1111 553 1110 549 c 0,15,16
 1107 537 1107 537 1092 519 c 2,17,-1
 1054 474 l 2,18,19
 1031 447 1031 447 1008 447 c 0,20,21
 995 447 995 447 981 456 c 2,22,-1
 461 788 l 2,23,24
 427 810 427 810 427 840 c 0,25,26
 427 847 427 847 430 858 c 2,27,-1
 441 899 l 2,28,29
 452 940 452 940 510 969 c 2,30,-1
 1262 1339 l 2,31,32
 1274 1345 1274 1345 1285 1345 c 0,0,1
341 340 m 2,33,-1
 1074 340 l 2,34,35
 1114 340 1114 340 1114 309 c 0,36,37
 1114 301 1114 301 1111 290 c 2,38,-1
 1097 240 l 2,39,40
 1084 190 1084 190 1034 190 c 2,41,-1
 301 190 l 2,42,43
 261 190 261 190 261 221 c 0,44,45
 261 229 261 229 264 240 c 2,46,-1
 278 290 l 2,47,48
 291 340 291 340 341 340 c 2,33,-1
EndSplineSet
Validated: 1
EndChar

StartChar: greaterequal
Encoding: 8805 8805 148
Width: 1233
GlyphClass: 2
Flags: W
HStem: 190 150<279.906 1095.09>
DStem2: 1116 890 451 453 0.897272 0.441477<-805.956 0> 1252 1004 1116 890 0.84286 -0.538133<-644.204 -53.2817>
LayerCount: 2
Fore
SplineSet
705 1345 m 0,0,1
 718 1345 718 1345 732 1336 c 2,2,-1
 1252 1004 l 2,3,4
 1286 982 1286 982 1286 952 c 0,5,6
 1286 945 1286 945 1283 934 c 2,7,-1
 1272 893 l 2,8,9
 1261 852 1261 852 1203 823 c 2,10,-1
 451 453 l 2,11,12
 439 447 439 447 428 447 c 0,13,14
 414 447 414 447 408 466 c 2,15,-1
 396 501 l 2,16,17
 394 509 394 509 394 515 c 0,18,19
 394 522 394 522 396 527 c 0,20,21
 402 539 402 539 422 549 c 2,22,-1
 1116 890 l 1,23,-1
 621 1205 l 2,24,25
 602 1217 602 1217 602 1235 c 0,26,27
 602 1239 602 1239 603 1243 c 0,28,29
 606 1255 606 1255 621 1273 c 2,30,-1
 659 1318 l 2,31,32
 682 1345 682 1345 705 1345 c 0,0,1
341 340 m 2,33,-1
 1074 340 l 2,34,35
 1114 340 1114 340 1114 309 c 0,36,37
 1114 301 1114 301 1111 290 c 2,38,-1
 1097 240 l 2,39,40
 1084 190 1084 190 1034 190 c 2,41,-1
 301 190 l 2,42,43
 261 190 261 190 261 221 c 0,44,45
 261 229 261 229 264 240 c 2,46,-1
 278 290 l 2,47,48
 291 340 291 340 341 340 c 2,33,-1
EndSplineSet
Validated: 1
EndChar

StartChar: lozenge
Encoding: 9674 9674 149
Width: 1134
GlyphClass: 2
Flags: W
HStem: -20 21G<555.034 579.635> 1510 20G<959.854 983.489>
DStem2: 298 738 455 795 0.65087 0.759189<145.46 789.418> 455 795 298 738 0.328907 -0.944362<2.19022 619.464> 653 208 562 -20 0.661361 0.750068<0 635.909> 977 1530 874 1284 0.308623 -0.951185<202.203 828.34>
LayerCount: 2
Fore
SplineSet
653 208 m 1,0,-1
 1069 689 l 1,1,-1
 874 1284 l 1,2,-1
 455 795 l 1,3,-1
 653 208 l 1,0,-1
562 -20 m 1,4,-1
 298 738 l 1,5,-1
 977 1530 l 1,6,-1
 1233 741 l 1,7,-1
 562 -20 l 1,4,-1
EndSplineSet
Validated: 1
EndChar

StartChar: multiply
Encoding: 215 215 150
Width: 1060
Flags: W
HStem: 424 661
DStem2: 626 755 704 649 0.785158 0.619296<-380.441 -4.40309 171.642 546.3> 761 861 626 755 0.591499 -0.806306<-274.03 0 137.221 424.327>
LayerCount: 2
Fore
SplineSet
579 1085 m 0,0,1
 597 1085 597 1085 610 1067 c 2,2,-1
 761 861 l 1,3,-1
 1023 1067 l 2,4,5
 1046 1085 1046 1085 1062 1085 c 0,6,7
 1079 1085 1079 1085 1093 1067 c 2,8,-1
 1120 1032 l 2,9,10
 1128 1022 1128 1022 1128 1006 c 0,11,12
 1128 1001 1128 1001 1127 997 c 0,13,14
 1122 978 1122 978 1100 961 c 2,15,-1
 838 755 l 1,16,-1
 989 550 l 2,17,18
 999 537 999 537 999 524 c 0,19,20
 1000 520 1000 520 998 514 c 0,21,22
 994 497 994 497 970 478 c 2,23,-1
 926 443 l 2,24,25
 905 426 905 426 886 426 c 128,-1,26
 867 426 867 426 855 443 c 2,27,-1
 704 649 l 1,28,-1
 442 442 l 2,29,30
 419 424 419 424 402 424 c 0,31,32
 384 424 384 424 371 442 c 2,33,-1
 346 477 l 2,34,35
 336 491 336 491 336 503 c 0,36,37
 336 508 336 508 337 512 c 0,38,39
 342 530 342 530 365 548 c 2,40,-1
 626 755 l 1,41,-1
 475 961 l 2,42,43
 465 975 465 975 465 984 c 0,44,45
 465 990 465 990 467 996 c 0,46,47
 472 1013 472 1013 495 1032 c 2,48,-1
 539 1067 l 2,49,50
 562 1085 562 1085 579 1085 c 0,0,1
EndSplineSet
Validated: 1
EndChar

StartChar: divide
Encoding: 247 247 151
Width: 1133
Flags: W
HStem: 298 264<591.191 772.324> 680 150<360.77 1176.94> 943 264<764.191 945.324>
VStem: 552 259<337.707 522.293> 725 259<982.707 1167.29>
LayerCount: 2
Fore
SplineSet
682 298 m 128,-1,1
 628 298 628 298 590 336.5 c 128,-1,2
 552 375 552 375 552 430 c 128,-1,3
 552 485 552 485 590 523.5 c 128,-1,4
 628 562 628 562 682 562 c 128,-1,5
 736 562 736 562 773.5 523.5 c 128,-1,6
 811 485 811 485 811 430 c 128,-1,7
 811 375 811 375 773.5 336.5 c 128,-1,0
 736 298 736 298 682 298 c 128,-1,1
855 943 m 128,-1,9
 801 943 801 943 763 981.5 c 128,-1,10
 725 1020 725 1020 725 1075 c 128,-1,11
 725 1130 725 1130 763 1168.5 c 128,-1,12
 801 1207 801 1207 855 1207 c 128,-1,13
 909 1207 909 1207 946.5 1168.5 c 128,-1,14
 984 1130 984 1130 984 1075 c 128,-1,15
 984 1020 984 1020 946.5 981.5 c 128,-1,8
 909 943 909 943 855 943 c 128,-1,9
422 830 m 2,16,-1
 1155 830 l 2,17,18
 1195 830 1195 830 1195 799 c 0,19,20
 1195 791 1195 791 1192 780 c 2,21,-1
 1179 730 l 2,22,23
 1166 680 1166 680 1115 680 c 2,24,-1
 382 680 l 2,25,26
 343 680 343 680 343 711 c 0,27,28
 343 720 343 720 346 730 c 2,29,-1
 359 780 l 2,30,31
 372 830 372 830 422 830 c 2,16,-1
EndSplineSet
Validated: 1
EndChar

StartChar: g
Encoding: 103 103 152
Width: 1179
Flags: W
HStem: -430 61<247.559 524.077> -321 264<198.844 345.809> -20 75<499.022 727.412> 1045 75<744.369 981.565> 1080 20G<1118 1243.5>
VStem: 108 277<-281.293 -104.119> 227 190<155.258 564.155> 1024 239<863.5 1084.5>
DStem2: 683.782 -430 863.987 -430 0.258819 0.965926<324.987 542.436 576.325 1358.76 1486.77 1595.63>
LayerCount: 2
Fore
SplineSet
612 55 m 0,0,1
 698 55 698 55 766 114 c 0,2,3
 849 186 849 186 884 319 c 2,4,-1
 1008 781 l 2,5,6
 1024 840 1024 840 1024 887 c 0,7,8
 1024 946 1024 946 999 986 c 0,9,10
 963 1045 963 1045 877 1045 c 0,11,12
 735 1045 735 1045 611 892 c 0,13,14
 518 777 518 777 458 550 c 0,15,16
 418 400 418 400 417 299 c 0,17,18
 417 247 417 247 428 208 c 0,19,20
 470 55 470 55 612 55 c 0,0,1
560 -20 m 0,21,22
 379 -20 379 -20 278 144 c 0,23,24
 227 227 227 227 227 345 c 0,25,26
 227 436 227 436 257 549 c 0,27,28
 323 794 323 794 495 956 c 0,29,30
 670 1120 670 1120 865 1120 c 0,31,32
 1028 1120 1028 1120 1069 1006 c 1,33,-1
 1080 1050 l 2,34,35
 1092 1100 1092 1100 1144 1100 c 2,36,-1
 1224 1100 l 2,37,38
 1263 1100 1263 1100 1263 1069 c 0,39,40
 1263 1061 1263 1061 1260 1050 c 2,41,-1
 1006 100 l 2,42,43
 936 -162 936 -162 750 -302 c 0,44,45
 580 -430 580 -430 389 -430 c 0,46,47
 263 -430 263 -430 193 -381 c 0,48,49
 108 -322 108 -322 108 -224 c 0,50,51
 108 -179 108 -179 127 -141 c 0,52,53
 140 -115 140 -115 163 -94 c 0,54,55
 202 -57 202 -57 256 -57 c 128,-1,56
 310 -57 310 -57 347.5 -95.5 c 128,-1,57
 385 -134 385 -134 385 -189 c 128,-1,58
 385 -244 385 -244 347 -282.5 c 128,-1,59
 309 -321 309 -321 255 -321 c 0,60,61
 225 -321 225 -321 198 -306 c 1,62,63
 272 -369 272 -369 378 -369 c 0,64,65
 539 -369 539 -369 660 -246 c 0,66,67
 761 -144 761 -144 799 0 c 2,68,-1
 824 94 l 1,69,70
 728 -20 728 -20 560 -20 c 0,21,22
EndSplineSet
Validated: 1
EndChar

StartChar: k
Encoding: 107 107 153
Width: 1158
Flags: W
HStem: -20 107<887 1085.27> 0 21G<250 369> 856 264<1085.29 1272.32> 1423 107<476.759 672.5>
VStem: 579 182<1189.16 1421.46> 802 182<88.317 342.778> 838 176<133.129 462.056>
DStem2: 214.244 -20 394.768 -20 0.258819 0.965926<449.446 1428.65>
LayerCount: 2
Fore
SplineSet
270 0 m 2,0,1
 230 0 230 0 230 31 c 0,2,3
 230 39 230 39 233 50 c 2,4,-1
 571 1310 l 2,5,6
 579 1340 579 1340 579 1362 c 0,7,8
 579 1423 579 1423 517 1423 c 0,9,10
 435 1423 435 1423 376 1310 c 1,11,-1
 360 1310 l 1,12,13
 380 1388 380 1388 430 1443 c 0,14,15
 507 1530 507 1530 619 1530 c 0,16,17
 726 1530 726 1530 755 1438 c 0,18,19
 761 1419 761 1419 761 1393 c 0,20,21
 761 1346 761 1346 741 1271 c 2,22,-1
 499 369 l 1,23,24
 753 824 753 824 1066 1075 c 0,25,26
 1122 1120 1122 1120 1179.5 1120 c 128,-1,27
 1237 1120 1237 1120 1274 1081.5 c 128,-1,28
 1311 1043 1311 1043 1311 988 c 128,-1,29
 1311 933 1311 933 1273.5 894.5 c 128,-1,30
 1236 856 1236 856 1182 856 c 128,-1,31
 1128 856 1128 856 1090 894 c 0,32,33
 1062 923 1062 923 1055 961 c 1,34,35
 871 806 871 806 726 578 c 1,36,37
 1014 577 1014 577 1014 345 c 0,38,39
 1014 281 1014 281 992 200 c 0,40,41
 984 170 984 170 984 148 c 0,42,43
 984 87 984 87 1045 87 c 0,44,45
 1127 87 1127 87 1187 200 c 1,46,-1
 1202 200 l 1,47,48
 1182 122 1182 122 1132 67 c 0,49,50
 1055 -20 1055 -20 943 -20 c 128,-1,51
 831 -20 831 -20 807 72 c 0,52,53
 802 91 802 91 802 116 c 0,54,55
 802 166 802 166 822 240 c 0,56,57
 838 298 838 298 838 344 c 0,58,59
 838 488 838 488 681 507 c 1,60,61
 521 266 521 266 413 50 c 0,62,63
 388 0 388 0 350 0 c 2,64,-1
 270 0 l 2,0,1
EndSplineSet
Validated: 1
EndChar

StartChar: v
Encoding: 118 118 154
Width: 1222
Flags: W
HStem: -20 99<540.992 824.746> 1013 107<367.259 563>
VStem: 304 181<135.104 479.219> 469 182<770.875 1011.46> 1146 151<527.26 854.564>
DStem2: 215.016 -20 394.552 -20 0.258819 0.965926<350.513 1003.95>
LayerCount: 2
Fore
SplineSet
602 -20 m 0,0,1
 416 -20 416 -20 341 107 c 0,2,3
 304 170 304 170 304 253 c 0,4,5
 304 312 304 312 323 383 c 2,6,-1
 461 900 l 2,7,8
 469 930 469 930 469 952 c 0,9,10
 469 1013 469 1013 407 1013 c 0,11,12
 325 1013 325 1013 266 900 c 1,13,-1
 251 900 l 1,14,15
 271 978 271 978 321 1033 c 0,16,17
 398 1120 398 1120 510 1120 c 0,18,19
 616 1120 616 1120 645 1028 c 0,20,21
 651 1009 651 1009 651 983 c 0,22,23
 651 935 651 935 631 861 c 2,24,-1
 502 381 l 2,25,26
 485 318 485 318 485 269 c 0,27,28
 485 218 485 218 502 178 c 0,29,30
 543 79 543 79 693 79 c 0,31,32
 878 79 878 79 1007 230 c 0,33,34
 1090 327 1090 327 1127 468 c 0,35,36
 1146 541 1146 541 1146 612 c 0,37,38
 1146 687 1146 687 1125 751 c 0,39,40
 1103 817 1103 817 1054 863 c 0,41,42
 992 921 992 921 992 991 c 0,43,44
 992 1009 992 1009 996 1027 c 0,45,46
 1006 1071 1006 1071 1041 1097 c 0,47,48
 1072 1120 1072 1120 1119 1120 c 0,49,50
 1227 1120 1227 1120 1276 970 c 0,51,52
 1297 906 1297 906 1297 803 c 0,53,54
 1297 690 1297 690 1261 557 c 0,55,56
 1210 367 1210 367 1076 214 c 0,57,58
 872 -20 872 -20 602 -20 c 0,0,1
EndSplineSet
Validated: 1
EndChar

StartChar: w
Encoding: 119 119 155
Width: 1872
Flags: W
HStem: -20 110<530.314 753.311 1179.19 1474.75> 1013 107<367.259 563> 1080 20G<1189.5 1314.5>
VStem: 301 183<136.001 470.32> 469 182<772.594 1011.38> 1796 151<527.26 854.564>
DStem2: 214.141 -20 394.141 -20 0.258819 0.965926<342 1004.18> 865.016 -20 1044.55 -20 0.258819 0.965926<349.895 1171.1>
LayerCount: 2
Fore
SplineSet
555 -20 m 0,0,1
 390 -20 390 -20 326 114 c 0,2,3
 301 166 301 166 301 237 c 0,4,5
 301 304 301 304 324 390 c 2,6,-1
 461 900 l 2,7,8
 469 930 469 930 469 952 c 0,9,10
 469 1013 469 1013 407 1013 c 0,11,12
 325 1013 325 1013 266 900 c 1,13,-1
 251 900 l 1,14,15
 271 978 271 978 321 1033 c 0,16,17
 398 1120 398 1120 510 1120 c 0,18,19
 616 1120 616 1120 645 1028 c 0,20,21
 651 1009 651 1009 651 982 c 0,22,23
 651 935 651 935 631 861 c 2,24,-1
 504 390 l 2,25,26
 484 316 484 316 484 260 c 0,27,28
 484 230 484 230 490 208 c 0,29,30
 522 90 522 90 657.5 90 c 128,-1,31
 793 90 793 90 889 210 c 0,32,33
 946 281 946 281 973 383 c 2,34,-1
 1151 1050 l 2,35,36
 1164 1100 1164 1100 1215 1100 c 2,37,-1
 1295 1100 l 2,38,39
 1334 1100 1334 1100 1334 1069 c 0,40,41
 1334 1061 1334 1061 1331 1050 c 2,42,-1
 1152 381 l 2,43,44
 1136 320 1136 320 1136 268 c 0,45,46
 1136 218 1136 218 1152 178 c 0,47,48
 1193 79 1193 79 1343 79 c 0,49,50
 1528 79 1528 79 1657 230 c 0,51,52
 1740 327 1740 327 1777 468 c 0,53,54
 1796 541 1796 541 1796 612 c 0,55,56
 1796 687 1796 687 1775 751 c 0,57,58
 1753 817 1753 817 1704 863 c 0,59,60
 1642 921 1642 921 1642 991 c 0,61,62
 1642 1009 1642 1009 1646 1027 c 0,63,64
 1656 1071 1656 1071 1691 1097 c 0,65,66
 1722 1120 1722 1120 1769 1120 c 0,67,68
 1877 1120 1877 1120 1926 970 c 0,69,70
 1947 906 1947 906 1947 803 c 0,71,72
 1947 690 1947 690 1911 557 c 0,73,74
 1860 367 1860 367 1726 214 c 0,75,76
 1522 -20 1522 -20 1252 -20 c 0,77,78
 1060 -20 1060 -20 991 107 c 0,79,80
 964 157 964 157 957 216 c 1,81,82
 904 132 904 132 813 62 c 0,83,84
 706 -20 706 -20 555 -20 c 0,0,1
EndSplineSet
Validated: 1
EndChar

StartChar: y
Encoding: 121 121 156
Width: 1270
Flags: W
HStem: -430 61<318.559 588.461> -321 264<269.844 416.809> -20 111<533.125 740.2> 1013 107<367.259 563> 1080 20G<1189.5 1314.5>
VStem: 179 277<-281.293 -104.119> 301 183<138.543 470.32> 469 182<772.594 1011.38>
DStem2: 104.282 -430 284.282 -430 0.258819 0.965926<768.335 1428.64> 754.782 -430 934.987 -430 0.258819 0.965926<324.987 1595.66>
LayerCount: 2
Fore
SplineSet
555 -20 m 0,0,1
 390 -20 390 -20 326 114 c 0,2,3
 301 166 301 166 301 237 c 0,4,5
 301 304 301 304 324 390 c 2,6,-1
 461 900 l 2,7,8
 469 930 469 930 469 952 c 0,9,10
 469 1013 469 1013 407 1013 c 0,11,12
 325 1013 325 1013 266 900 c 1,13,-1
 251 900 l 1,14,15
 271 978 271 978 321 1033 c 0,16,17
 398 1120 398 1120 510 1120 c 0,18,19
 616 1120 616 1120 645 1028 c 0,20,21
 651 1009 651 1009 651 982 c 0,22,23
 651 935 651 935 631 861 c 2,24,-1
 504 390 l 2,25,26
 484 316 484 316 484 262 c 0,27,28
 484 232 484 232 490 209 c 0,29,30
 522 91 522 91 662 91 c 0,31,32
 793 91 793 91 889 210 c 0,33,34
 944 279 944 279 974 390 c 2,35,-1
 1151 1050 l 2,36,37
 1164 1100 1164 1100 1215 1100 c 2,38,-1
 1295 1100 l 2,39,40
 1334 1100 1334 1100 1334 1069 c 0,41,42
 1334 1061 1334 1061 1331 1050 c 2,43,-1
 1077 100 l 2,44,45
 1007 -162 1007 -162 821 -302 c 0,46,47
 651 -430 651 -430 460 -430 c 0,48,49
 334 -430 334 -430 264 -381 c 0,50,51
 179 -322 179 -322 179 -224 c 0,52,53
 179 -179 179 -179 198 -141 c 0,54,55
 211 -115 211 -115 234 -94 c 0,56,57
 273 -57 273 -57 327 -57 c 128,-1,58
 381 -57 381 -57 418.5 -95.5 c 128,-1,59
 456 -134 456 -134 456 -189 c 128,-1,60
 456 -244 456 -244 418 -282.5 c 128,-1,61
 380 -321 380 -321 326 -321 c 0,62,63
 296 -321 296 -321 269 -306 c 1,64,65
 343 -369 343 -369 449 -369 c 0,66,67
 595 -369 595 -369 731 -246 c 24,68,69
 828 -158 828 -158 870 0 c 2,70,-1
 921 192 l 1,71,72
 873 119 873 119 805 66 c 0,73,74
 693 -20 693 -20 555 -20 c 0,0,1
EndSplineSet
Validated: 1
EndChar

StartChar: z
Encoding: 122 122 157
Width: 1051
Flags: W
HStem: -20 74<561.707 869.579> 36 81<376 591.616> 983 81<773.225 965> 1046 74<520.381 798.858>
VStem: 326 259<754.707 944.357> 805 259<155.643 345.293>
DStem2: 47 -10 376 117 0.678833 0.734293<316.591 1352.32>
LayerCount: 2
Fore
SplineSet
58 -20 m 1,0,1
 47 -10 l 1,2,-1
 965 983 l 1,3,4
 864 983 864 983 785 1015 c 0,5,6
 707 1046 707 1046 657 1046 c 0,7,8
 550 1046 550 1046 477 977 c 1,9,10
 516 971 516 971 547 940 c 0,11,12
 585 902 585 902 585 847 c 128,-1,13
 585 792 585 792 547 753.5 c 128,-1,14
 509 715 509 715 455 715 c 128,-1,15
 401 715 401 715 363.5 753.5 c 128,-1,16
 326 792 326 792 326 847 c 0,17,18
 326 868 326 868 332 892 c 0,19,20
 360 996 360 996 454 1059 c 0,21,22
 544 1120 544 1120 669 1120 c 0,23,24
 717 1120 717 1120 853 1085 c 0,25,26
 934 1064 934 1064 1049 1064 c 0,27,28
 1157 1064 1157 1064 1284 1120 c 1,29,-1
 1294 1110 l 1,30,-1
 376 117 l 1,31,32
 497 117 497 117 577 85 c 0,33,34
 655 54 655 54 732 54 c 0,35,36
 840 54 840 54 913 123 c 1,37,38
 874 129 874 129 843 160 c 0,39,40
 805 198 805 198 805 253 c 128,-1,41
 805 308 805 308 843 346.5 c 128,-1,42
 881 385 881 385 935 385 c 128,-1,43
 989 385 989 385 1026.5 346.5 c 128,-1,44
 1064 308 1064 308 1064 253 c 0,45,46
 1064 232 1064 232 1058 208 c 0,47,48
 1030 104 1030 104 936 41 c 0,49,50
 846 -20 846 -20 721 -20 c 0,51,52
 645 -20 645 -20 509 15 c 0,53,54
 428 36 428 36 322 36 c 0,55,56
 198 36 198 36 58 -20 c 1,0,1
EndSplineSet
Validated: 1
EndChar

StartChar: x
Encoding: 120 120 158
Width: 1067
Flags: W
HStem: -20 107<804.5 993.39> -20 75<105.43 309.607> 1013 107<368.141 556.5>
VStem: 52 27<117.446 200> 1002 259<887.922 1080.29>
DStem2: 645 1003 477 955 0.26938 -0.963034<-69.8179 536.141 599.264 655.888 714.564 961.363>
LayerCount: 2
Fore
SplineSet
179 -20 m 0,0,1
 87 -20 87 -20 61 59 c 0,2,3
 52 87 52 87 52 119 c 0,4,5
 52 156 52 156 64 200 c 1,6,-1
 79 200 l 1,7,8
 79 55 79 55 185 55 c 0,9,10
 258 55 258 55 344 112 c 0,11,12
 530 233 530 233 649 345 c 1,13,-1
 477 955 l 2,14,15
 461 1013 461 1013 407 1013 c 0,16,17
 325 1013 325 1013 266 900 c 1,18,-1
 251 900 l 1,19,20
 270 975 270 975 320 1031 c 0,21,22
 399 1120 399 1120 500 1120 c 0,23,24
 613 1120 613 1120 645 1003 c 2,25,-1
 787 486 l 1,26,27
 968 645 968 645 1114 858 c 1,28,29
 1077 858 1077 858 1040 894 c 0,30,31
 1002 931 1002 931 1002 988 c 0,32,33
 1002 1043 1002 1043 1040 1081.5 c 128,-1,34
 1078 1120 1078 1120 1132 1120 c 128,-1,35
 1186 1120 1186 1120 1223.5 1081.5 c 128,-1,36
 1261 1043 1261 1043 1261 988 c 0,37,38
 1261 945 1261 945 1232 897 c 0,39,40
 1211 861 1211 861 1180 820 c 0,41,42
 1032 616 1032 616 809 403 c 1,43,-1
 885 145 l 2,44,45
 902 87 902 87 954 87 c 0,46,47
 1036 87 1036 87 1096 200 c 1,48,-1
 1111 200 l 1,49,50
 1092 125 1092 125 1042 69 c 0,51,52
 963 -20 963 -20 862 -20 c 0,53,54
 747 -20 747 -20 716 97 c 2,55,-1
 670 268 l 1,56,57
 555 164 555 164 388 57 c 0,58,59
 269 -20 269 -20 179 -20 c 0,0,1
EndSplineSet
Validated: 1
EndChar

